<svg width="1016" height="746" viewBox="0 0 1016 746" fill="none" xmlns="http://www.w3.org/2000/svg">
<g filter="url(#filter0_d_57_639)">
<rect x="5" y="1" width="1006" height="736" rx="30" fill="#4DA2C2"/>
<rect x="4.5" y="0.5" width="1007" height="737" rx="30.5" stroke="black"/>
</g>
<rect x="318" y="399" width="473" height="50" rx="20" fill="#FF0000"/>
<rect x="318" y="481" width="473" height="50" rx="20" fill="#FF0000"/>
<rect x="318" y="563" width="473" height="50" rx="20" fill="#71C34E"/>
<rect x="318" y="645" width="473" height="50" rx="20" fill="#FF0000"/>
<rect x="52" y="177" width="900" height="180" rx="20" fill="#71C34E"/>
<path d="M439.885 78.136C442.232 78.136 444.323 78.712 446.158 79.864C447.992 81.016 449.4 82.6373 450.382 84.728C451.406 86.776 451.918 89.1227 451.918 91.768C451.918 95.736 450.851 98.9147 448.718 101.304C446.584 103.693 443.79 104.888 440.333 104.888H435.534C435.32 104.888 435.214 104.995 435.214 105.208V122.232C435.214 122.445 435.128 122.637 434.958 122.808C434.83 122.936 434.659 123 434.446 123H426.958C426.744 123 426.552 122.936 426.382 122.808C426.254 122.637 426.19 122.445 426.19 122.232V78.904C426.19 78.6907 426.254 78.52 426.382 78.392C426.552 78.2213 426.744 78.136 426.958 78.136H439.885ZM438.35 97.848C439.715 97.848 440.803 97.336 441.614 96.312C442.467 95.2453 442.894 93.7947 442.894 91.96C442.894 90.0827 442.467 88.6107 441.614 87.544C440.803 86.4773 439.715 85.944 438.35 85.944H435.534C435.32 85.944 435.214 86.0507 435.214 86.264V97.528C435.214 97.7413 435.32 97.848 435.534 97.848H438.35ZM479.364 108.6C479.364 108.813 479.278 109.005 479.108 109.176C478.98 109.304 478.809 109.368 478.596 109.368H464.516C464.302 109.368 464.196 109.475 464.196 109.688V112.056C464.196 113.123 464.473 114.019 465.028 114.744C465.625 115.427 466.372 115.768 467.268 115.768C468.078 115.768 468.74 115.512 469.252 115C469.764 114.445 470.105 113.763 470.276 112.952C470.404 112.525 470.681 112.312 471.108 112.312L478.468 112.696C478.681 112.696 478.852 112.781 478.98 112.952C479.15 113.08 479.214 113.272 479.172 113.528C478.873 116.813 477.721 119.309 475.716 121.016C473.753 122.68 470.937 123.512 467.268 123.512C463.47 123.512 460.505 122.573 458.372 120.696C456.238 118.776 455.172 116.131 455.172 112.76V100.344C455.172 97.1013 456.238 94.4987 458.372 92.536C460.547 90.5733 463.513 89.592 467.268 89.592C471.022 89.592 473.966 90.5733 476.1 92.536C478.276 94.4987 479.364 97.1013 479.364 100.344V108.6ZM467.268 97.336C466.372 97.336 465.625 97.6773 465.028 98.36C464.473 99.0427 464.196 99.9173 464.196 100.984V103.48C464.196 103.693 464.302 103.8 464.516 103.8H470.02C470.233 103.8 470.34 103.693 470.34 103.48V100.984C470.34 99.9173 470.041 99.0427 469.444 98.36C468.889 97.6773 468.164 97.336 467.268 97.336ZM498.215 89.72C499.367 89.72 500.263 89.9333 500.903 90.36C501.244 90.5733 501.372 90.8933 501.287 91.32L500.071 98.808C500.028 99.2773 499.729 99.448 499.175 99.32C498.705 99.1493 498.129 99.064 497.447 99.064C496.807 99.064 496.252 99.1493 495.783 99.32C494.801 99.4907 494.012 100.088 493.415 101.112C492.817 102.093 492.519 103.245 492.519 104.568V122.168C492.519 122.381 492.433 122.573 492.263 122.744C492.135 122.872 491.964 122.936 491.751 122.936H484.263C484.049 122.936 483.857 122.872 483.687 122.744C483.559 122.573 483.495 122.381 483.495 122.168V90.872C483.495 90.6587 483.559 90.488 483.687 90.36C483.857 90.1893 484.049 90.104 484.263 90.104H491.751C491.964 90.104 492.135 90.1893 492.263 90.36C492.433 90.488 492.519 90.6587 492.519 90.872V93.368C492.519 93.5387 492.54 93.6453 492.583 93.688C492.668 93.688 492.753 93.624 492.839 93.496C493.991 90.9787 495.783 89.72 498.215 89.72ZM518.151 90.872C518.151 90.6587 518.215 90.488 518.343 90.36C518.513 90.1893 518.705 90.104 518.919 90.104H526.407C526.62 90.104 526.791 90.1893 526.919 90.36C527.089 90.488 527.175 90.6587 527.175 90.872V121.464C527.175 126.2 526.044 129.848 523.783 132.408C521.564 134.968 517.553 136.248 511.751 136.248C510.599 136.248 509.703 136.227 509.062 136.184C508.551 136.141 508.295 135.864 508.295 135.352V129.08C508.295 128.525 508.572 128.291 509.127 128.376C511.644 128.461 513.543 128.205 514.823 127.608C516.145 127.053 517.02 126.2 517.447 125.048C517.916 123.896 518.151 122.381 518.151 120.504C518.151 120.376 518.108 120.312 518.023 120.312C517.937 120.312 517.852 120.376 517.767 120.504C516.999 121.528 516.06 122.253 514.951 122.68C513.884 123.064 512.839 123.256 511.815 123.256C508.871 123.256 506.673 122.317 505.223 120.44C503.772 118.52 503.047 115.875 503.047 112.504V100.344C503.047 96.888 503.772 94.2427 505.223 92.408C506.716 90.5307 508.913 89.592 511.815 89.592C514.417 89.592 516.401 90.552 517.767 92.472C517.852 92.6 517.937 92.6427 518.023 92.6C518.108 92.5573 518.151 92.472 518.151 92.344V90.872ZM515.079 115.448C515.975 115.448 516.7 115.107 517.255 114.424C517.852 113.741 518.151 112.867 518.151 111.8V100.984C518.151 99.9173 517.852 99.0427 517.255 98.36C516.7 97.6773 515.975 97.336 515.079 97.336C514.183 97.336 513.457 97.6773 512.903 98.36C512.348 99.0427 512.071 99.9173 512.071 100.984V111.8C512.071 112.867 512.348 113.741 512.903 114.424C513.457 115.107 514.183 115.448 515.079 115.448ZM546.465 90.872C546.465 90.6587 546.529 90.488 546.657 90.36C546.827 90.1893 547.019 90.104 547.233 90.104H554.721C554.934 90.104 555.105 90.1893 555.233 90.36C555.403 90.488 555.489 90.6587 555.489 90.872V122.232C555.489 122.445 555.403 122.637 555.233 122.808C555.105 122.936 554.934 123 554.721 123H547.233C547.019 123 546.827 122.936 546.657 122.808C546.529 122.637 546.465 122.445 546.465 122.232V121.144C546.465 121.016 546.422 120.931 546.337 120.888C546.251 120.845 546.166 120.888 546.081 121.016C545.441 121.912 544.63 122.552 543.649 122.936C542.71 123.277 541.601 123.448 540.321 123.448C537.761 123.448 535.649 122.68 533.985 121.144C532.321 119.565 531.489 117.155 531.489 113.912V90.872C531.489 90.6587 531.553 90.488 531.681 90.36C531.851 90.1893 532.043 90.104 532.257 90.104H539.745C539.958 90.104 540.129 90.1893 540.257 90.36C540.427 90.488 540.513 90.6587 540.513 90.872V111.928C540.513 113.165 540.747 114.125 541.217 114.808C541.729 115.448 542.454 115.768 543.393 115.768C544.331 115.768 545.078 115.405 545.633 114.68C546.187 113.955 546.465 112.973 546.465 111.736V90.872ZM575.666 89.592C578.567 89.592 580.743 90.552 582.194 92.472C583.644 94.392 584.37 97.08 584.37 100.536V122.232C584.37 122.445 584.284 122.637 584.114 122.808C583.986 122.936 583.815 123 583.602 123H576.114C575.9 123 575.708 122.936 575.538 122.808C575.41 122.637 575.346 122.445 575.346 122.232V101.24C575.346 100.003 575.09 99.0427 574.578 98.36C574.108 97.6773 573.404 97.336 572.466 97.336C571.484 97.336 570.716 97.6987 570.162 98.424C569.65 99.1067 569.394 100.088 569.394 101.368V122.232C569.394 122.445 569.308 122.637 569.138 122.808C569.01 122.936 568.839 123 568.626 123H561.138C560.924 123 560.732 122.936 560.562 122.808C560.434 122.637 560.37 122.445 560.37 122.232V90.872C560.37 90.6587 560.434 90.488 560.562 90.36C560.732 90.1893 560.924 90.104 561.138 90.104H568.626C568.839 90.104 569.01 90.1893 569.138 90.36C569.308 90.488 569.394 90.6587 569.394 90.872V92.088C569.394 92.216 569.436 92.28 569.522 92.28C569.65 92.28 569.799 92.1947 569.97 92.024C571.335 90.4027 573.234 89.592 575.666 89.592ZM603.971 95.672C603.971 95.8853 603.885 96.0773 603.715 96.248C603.587 96.376 603.416 96.44 603.203 96.44H599.619C599.405 96.44 599.299 96.5467 599.299 96.76V111.992C599.299 113.229 599.533 114.083 600.003 114.552C600.472 115.021 601.176 115.235 602.115 115.192H602.562C602.776 115.192 602.947 115.277 603.075 115.448C603.245 115.576 603.331 115.747 603.331 115.96V122.232C603.331 122.445 603.245 122.637 603.075 122.808C602.947 122.936 602.776 123 602.562 123H600.003C596.888 123 594.541 122.488 592.963 121.464C591.384 120.397 590.595 118.392 590.595 115.448V96.76C590.595 96.5467 590.488 96.44 590.275 96.44H588.163C587.949 96.44 587.757 96.376 587.587 96.248C587.459 96.0773 587.395 95.8853 587.395 95.672V90.872C587.395 90.6587 587.459 90.488 587.587 90.36C587.757 90.1893 587.949 90.104 588.163 90.104H590.275C590.488 90.104 590.595 89.9973 590.595 89.784V82.68C590.595 82.4667 590.659 82.296 590.786 82.168C590.957 81.9973 591.149 81.912 591.363 81.912H598.531C598.744 81.912 598.915 81.9973 599.043 82.168C599.213 82.296 599.299 82.4667 599.299 82.68V89.784C599.299 89.9973 599.405 90.104 599.619 90.104H603.203C603.416 90.104 603.587 90.1893 603.715 90.36C603.885 90.488 603.971 90.6587 603.971 90.872V95.672ZM619.524 89.592C623.15 89.592 626.094 90.5733 628.356 92.536C630.617 94.4987 631.748 97.08 631.748 100.28V122.232C631.748 122.445 631.662 122.637 631.492 122.808C631.364 122.936 631.193 123 630.98 123H623.492C623.278 123 623.086 122.936 622.916 122.808C622.788 122.637 622.724 122.445 622.724 122.232V120.824C622.724 120.696 622.681 120.611 622.596 120.568C622.51 120.525 622.425 120.568 622.34 120.696C620.932 122.488 618.756 123.427 615.812 123.512C613.337 123.512 611.182 122.829 609.348 121.464C607.556 120.099 606.66 117.496 606.66 113.656C606.66 109.688 607.748 106.957 609.924 105.464C612.142 103.971 615.321 103.224 619.46 103.224H622.404C622.617 103.224 622.724 103.117 622.724 102.904V101.304C622.724 100.152 622.404 99.2133 621.764 98.488C621.166 97.72 620.398 97.336 619.46 97.336C618.734 97.336 618.116 97.5707 617.604 98.04C617.134 98.4667 616.836 99.0853 616.708 99.896C616.665 100.408 616.388 100.664 615.876 100.664L608.196 100.6C607.684 100.6 607.428 100.344 607.428 99.832C607.641 96.7173 608.857 94.2427 611.076 92.408C613.294 90.5307 616.11 89.592 619.524 89.592ZM618.884 116.536C619.865 116.536 620.74 116.216 621.508 115.576C622.318 114.893 622.724 113.997 622.724 112.888V109.88C622.724 109.667 622.617 109.56 622.404 109.56H619.78C618.628 109.56 617.689 109.901 616.964 110.584C616.281 111.224 615.94 112.12 615.94 113.272C615.94 114.339 616.196 115.149 616.708 115.704C617.262 116.259 617.988 116.536 618.884 116.536ZM675.875 103.544C676.088 103.544 676.259 103.629 676.387 103.8C676.557 103.928 676.643 104.099 676.643 104.312V110.904C676.643 111.117 676.557 111.309 676.387 111.48C676.259 111.608 676.088 111.672 675.875 111.672H673.891C673.677 111.672 673.571 111.779 673.571 111.992V122.232C673.571 122.445 673.485 122.637 673.315 122.808C673.187 122.936 673.016 123 672.803 123H665.315C665.101 123 664.909 122.936 664.739 122.808C664.611 122.637 664.547 122.445 664.547 122.232V111.992C664.547 111.779 664.44 111.672 664.227 111.672H648.227C648.013 111.672 647.821 111.608 647.651 111.48C647.523 111.309 647.459 111.117 647.459 110.904V105.656C647.459 105.272 647.501 104.952 647.587 104.696L656.099 78.84C656.227 78.4133 656.504 78.2 656.931 78.2H665.059C665.315 78.2 665.507 78.2853 665.635 78.456C665.763 78.584 665.784 78.7973 665.699 79.096L658.019 103.16C657.976 103.416 658.061 103.544 658.275 103.544H664.227C664.44 103.544 664.547 103.437 664.547 103.224V96.568C664.547 96.3547 664.611 96.184 664.739 96.056C664.909 95.8853 665.101 95.8 665.315 95.8H672.803C673.016 95.8 673.187 95.8853 673.315 96.056C673.485 96.184 673.571 96.3547 673.571 96.568V103.224C673.571 103.437 673.677 103.544 673.891 103.544H675.875Z" fill="white"/>
<path d="M224 409C224 403.477 228.477 399 234 399H264C269.523 399 274 403.477 274 409V439C274 444.523 269.523 449 264 449H234C228.477 449 224 444.523 224 439V409Z" fill="#71C34E"/>
<path d="M224 573C224 567.477 228.477 563 234 563H264C269.523 563 274 567.477 274 573V603C274 608.523 269.523 613 264 613H234C228.477 613 224 608.523 224 603V573Z" fill="#71C34E"/>
<path d="M224 655C224 649.477 228.477 645 234 645H264C269.523 645 274 649.477 274 655V685C274 690.523 269.523 695 264 695H234C228.477 695 224 690.523 224 685V655Z" fill="#71C34E"/>
<path d="M224 491C224 485.477 228.477 481 234 481H264C269.523 481 274 485.477 274 491V521C274 526.523 269.523 531 264 531H234C228.477 531 224 526.523 224 521V491Z" fill="#71C34E"/>
<path d="M252.097 437C251.841 437 251.703 436.883 251.681 436.648L251.169 433.576C251.169 433.469 251.105 433.416 250.977 433.416H246.913C246.785 433.416 246.721 433.469 246.721 433.576L246.209 436.648C246.188 436.883 246.049 437 245.793 437H242.049C241.772 437 241.665 436.861 241.729 436.584L246.433 414.952C246.476 414.717 246.615 414.6 246.849 414.6H251.169C251.404 414.6 251.543 414.717 251.585 414.952L256.257 436.584L256.289 436.712C256.289 436.904 256.172 437 255.937 437H252.097ZM247.361 429.768C247.361 429.875 247.404 429.928 247.489 429.928H250.369C250.476 429.928 250.519 429.875 250.497 429.768L248.993 421.032C248.972 420.968 248.94 420.936 248.897 420.936C248.855 420.936 248.823 420.968 248.801 421.032L247.361 429.768Z" fill="white"/>
<path d="M256.256 512.824C256.256 514.808 255.659 516.333 254.464 517.4C253.27 518.467 251.723 519 249.824 519H243.776C243.67 519 243.574 518.968 243.488 518.904C243.424 518.819 243.392 518.723 243.392 518.616V496.984C243.392 496.877 243.424 496.792 243.488 496.728C243.574 496.643 243.67 496.6 243.776 496.6H249.12C251.254 496.6 252.918 497.112 254.112 498.136C255.328 499.16 255.936 500.685 255.936 502.712C255.936 504.824 255.211 506.36 253.76 507.32C253.675 507.384 253.664 507.448 253.728 507.512C255.414 508.707 256.256 510.477 256.256 512.824ZM248.064 500.472C247.958 500.472 247.904 500.525 247.904 500.632V505.656C247.904 505.763 247.958 505.816 248.064 505.816H249.216C249.942 505.816 250.507 505.592 250.912 505.144C251.318 504.675 251.52 504.024 251.52 503.192C251.52 502.317 251.318 501.645 250.912 501.176C250.528 500.707 249.963 500.472 249.216 500.472H248.064ZM249.472 515.096C250.176 515.096 250.731 514.84 251.136 514.328C251.542 513.816 251.744 513.091 251.744 512.152C251.744 511.213 251.542 510.467 251.136 509.912C250.731 509.357 250.187 509.08 249.504 509.08H248.064C247.958 509.08 247.904 509.133 247.904 509.24V514.936C247.904 515.043 247.958 515.096 248.064 515.096H249.472Z" fill="white"/>
<path d="M249.534 601.256C247.614 601.256 246.067 600.691 244.894 599.56C243.742 598.408 243.166 596.872 243.166 594.952V584.584C243.166 582.685 243.742 581.171 244.894 580.04C246.067 578.909 247.614 578.344 249.534 578.344C251.475 578.344 253.022 578.909 254.174 580.04C255.347 581.171 255.934 582.685 255.934 584.584V584.936C255.934 585.043 255.891 585.139 255.806 585.224C255.742 585.288 255.657 585.32 255.55 585.32L251.806 585.48C251.55 585.48 251.422 585.363 251.422 585.128V584.296C251.422 583.677 251.251 583.176 250.91 582.792C250.569 582.408 250.11 582.216 249.534 582.216C248.979 582.216 248.531 582.408 248.19 582.792C247.849 583.176 247.678 583.677 247.678 584.296V595.336C247.678 595.955 247.849 596.456 248.19 596.84C248.531 597.203 248.979 597.384 249.534 597.384C250.11 597.384 250.569 597.203 250.91 596.84C251.251 596.456 251.422 595.955 251.422 595.336V594.472C251.422 594.365 251.454 594.28 251.518 594.216C251.603 594.131 251.699 594.088 251.806 594.088L255.55 594.248C255.657 594.248 255.742 594.291 255.806 594.376C255.891 594.44 255.934 594.525 255.934 594.632V594.952C255.934 596.872 255.347 598.408 254.174 599.56C253.001 600.691 251.454 601.256 249.534 601.256Z" fill="white"/>
<path d="M243.683 683C243.576 683 243.48 682.968 243.395 682.904C243.331 682.819 243.299 682.723 243.299 682.616V660.984C243.299 660.877 243.331 660.792 243.395 660.728C243.48 660.643 243.576 660.6 243.683 660.6H249.475C251.416 660.6 252.973 661.165 254.147 662.296C255.32 663.427 255.907 664.931 255.907 666.808V676.792C255.907 678.669 255.32 680.173 254.147 681.304C252.973 682.435 251.416 683 249.475 683H243.683ZM247.811 678.968C247.811 679.075 247.864 679.128 247.971 679.128L249.411 679.096C249.987 679.075 250.456 678.829 250.819 678.36C251.181 677.891 251.373 677.272 251.395 676.504V667.096C251.395 666.285 251.213 665.645 250.851 665.176C250.488 664.707 249.997 664.472 249.379 664.472H247.971C247.864 664.472 247.811 664.525 247.811 664.632V678.968Z" fill="white"/>
<path d="M494.066 519C493.81 519 493.671 518.883 493.65 518.648L493.138 515.576C493.138 515.469 493.074 515.416 492.946 515.416H488.882C488.754 515.416 488.69 515.469 488.69 515.576L488.178 518.648C488.157 518.883 488.018 519 487.762 519H484.018C483.741 519 483.634 518.861 483.698 518.584L488.402 496.952C488.445 496.717 488.583 496.6 488.818 496.6H493.138C493.373 496.6 493.511 496.717 493.554 496.952L498.226 518.584L498.258 518.712C498.258 518.904 498.141 519 497.906 519H494.066ZM489.33 511.768C489.33 511.875 489.373 511.928 489.458 511.928H492.338C492.445 511.928 492.487 511.875 492.466 511.768L490.962 503.032C490.941 502.968 490.909 502.936 490.866 502.936C490.823 502.936 490.791 502.968 490.77 503.032L489.33 511.768ZM507.204 505.336C507.204 505.443 507.161 505.539 507.076 505.624C507.012 505.688 506.927 505.72 506.82 505.72H505.028C504.921 505.72 504.868 505.773 504.868 505.88V513.496C504.868 514.115 504.985 514.541 505.22 514.776C505.455 515.011 505.807 515.117 506.276 515.096H506.5C506.607 515.096 506.692 515.139 506.756 515.224C506.841 515.288 506.884 515.373 506.884 515.48V518.616C506.884 518.723 506.841 518.819 506.756 518.904C506.692 518.968 506.607 519 506.5 519H505.22C503.663 519 502.489 518.744 501.7 518.232C500.911 517.699 500.516 516.696 500.516 515.224V505.88C500.516 505.773 500.463 505.72 500.356 505.72H499.3C499.193 505.72 499.097 505.688 499.012 505.624C498.948 505.539 498.916 505.443 498.916 505.336V502.936C498.916 502.829 498.948 502.744 499.012 502.68C499.097 502.595 499.193 502.552 499.3 502.552H500.356C500.463 502.552 500.516 502.499 500.516 502.392V498.84C500.516 498.733 500.548 498.648 500.612 498.584C500.697 498.499 500.793 498.456 500.9 498.456H504.484C504.591 498.456 504.676 498.499 504.74 498.584C504.825 498.648 504.868 498.733 504.868 498.84V502.392C504.868 502.499 504.921 502.552 505.028 502.552H506.82C506.927 502.552 507.012 502.595 507.076 502.68C507.161 502.744 507.204 502.829 507.204 502.936V505.336ZM523.972 502.296C525.423 502.296 526.511 502.787 527.237 503.768C527.962 504.749 528.325 506.125 528.325 507.896V518.616C528.325 518.723 528.282 518.819 528.197 518.904C528.133 518.968 528.047 519 527.941 519H524.197C524.09 519 523.994 518.968 523.909 518.904C523.845 518.819 523.812 518.723 523.812 518.616V508.184C523.812 507.544 523.685 507.053 523.429 506.712C523.173 506.349 522.831 506.168 522.405 506.168C521.935 506.168 521.562 506.349 521.285 506.712C521.029 507.053 520.901 507.544 520.901 508.184V518.616C520.901 518.723 520.858 518.819 520.773 518.904C520.709 518.968 520.623 519 520.517 519H516.805C516.698 519 516.602 518.968 516.517 518.904C516.453 518.819 516.421 518.723 516.421 518.616V508.184C516.421 507.544 516.293 507.053 516.036 506.712C515.781 506.349 515.439 506.168 515.013 506.168C514.543 506.168 514.17 506.349 513.893 506.712C513.637 507.053 513.509 507.544 513.509 508.184V518.616C513.509 518.723 513.466 518.819 513.381 518.904C513.317 518.968 513.231 519 513.125 519H509.381C509.274 519 509.178 518.968 509.093 518.904C509.029 518.819 508.997 518.723 508.997 518.616V502.936C508.997 502.829 509.029 502.744 509.093 502.68C509.178 502.595 509.274 502.552 509.381 502.552H513.125C513.231 502.552 513.317 502.595 513.381 502.68C513.466 502.744 513.509 502.829 513.509 502.936V503.352C513.509 503.416 513.53 503.459 513.573 503.48C513.615 503.501 513.658 503.491 513.701 503.448C514.127 503.021 514.597 502.723 515.109 502.552C515.621 502.381 516.111 502.296 516.581 502.296C518.245 502.296 519.439 502.957 520.165 504.28L520.229 504.312C520.293 504.312 520.367 504.248 520.453 504.12C520.901 503.437 521.434 502.968 522.053 502.712C522.693 502.435 523.333 502.296 523.972 502.296ZM536.478 519.256C534.58 519.256 533.086 518.776 531.998 517.816C530.932 516.856 530.398 515.544 530.398 513.88V507.672C530.398 506.051 530.942 504.749 532.03 503.768C533.118 502.787 534.601 502.296 536.478 502.296C538.377 502.296 539.87 502.787 540.958 503.768C542.046 504.749 542.59 506.051 542.59 507.672V513.88C542.59 515.544 542.046 516.856 540.958 517.816C539.892 518.776 538.398 519.256 536.478 519.256ZM536.478 515.352C536.948 515.352 537.332 515.181 537.63 514.84C537.929 514.499 538.078 514.061 538.078 513.528V507.992C538.078 507.459 537.929 507.021 537.63 506.68C537.332 506.339 536.948 506.168 536.478 506.168C536.009 506.168 535.625 506.339 535.326 506.68C535.049 507.021 534.91 507.459 534.91 507.992V513.528C534.91 514.061 535.049 514.499 535.326 514.84C535.625 515.181 536.009 515.352 536.478 515.352ZM550.283 519.224C548.469 519.224 547.019 518.797 545.931 517.944C544.864 517.069 544.331 515.907 544.331 514.456V514.232C544.331 514.125 544.363 514.04 544.427 513.976C544.512 513.891 544.608 513.848 544.715 513.848H548.235C548.341 513.848 548.427 513.891 548.491 513.976C548.576 514.04 548.619 514.125 548.619 514.232V514.328C548.619 514.776 548.779 515.149 549.099 515.448C549.419 515.725 549.813 515.864 550.283 515.864C550.709 515.864 551.04 515.747 551.275 515.512C551.531 515.256 551.659 514.936 551.659 514.552C551.659 514.083 551.456 513.72 551.051 513.464C550.645 513.187 550.187 512.963 549.675 512.792C549.184 512.6 548.843 512.472 548.651 512.408C547.477 511.981 546.485 511.395 545.674 510.648C544.885 509.88 544.491 508.781 544.491 507.352C544.491 505.795 545.003 504.568 546.027 503.672C547.051 502.776 548.416 502.328 550.123 502.328C551.893 502.328 553.291 502.797 554.315 503.736C555.36 504.675 555.883 505.944 555.883 507.544C555.883 507.651 555.84 507.747 555.755 507.832C555.691 507.896 555.605 507.928 555.499 507.928H552.075C551.968 507.928 551.872 507.896 551.786 507.832C551.723 507.747 551.691 507.651 551.691 507.544V507.288C551.691 506.861 551.552 506.52 551.275 506.264C551.019 505.987 550.677 505.848 550.251 505.848C549.803 505.848 549.451 505.997 549.195 506.296C548.939 506.573 548.811 506.904 548.811 507.288C548.811 507.8 549.024 508.205 549.451 508.504C549.899 508.781 550.571 509.091 551.467 509.432C552.384 509.773 553.163 510.125 553.803 510.488C554.464 510.829 555.029 511.331 555.499 511.992C555.968 512.632 556.203 513.443 556.203 514.424C556.203 515.896 555.659 517.069 554.571 517.944C553.504 518.797 552.075 519.224 550.283 519.224ZM565.23 502.552C565.337 502.552 565.422 502.595 565.486 502.68C565.571 502.744 565.614 502.829 565.614 502.936V505.336C565.614 505.443 565.571 505.539 565.486 505.624C565.422 505.688 565.337 505.72 565.23 505.72H563.47C563.363 505.72 563.31 505.773 563.31 505.88V518.616C563.31 518.723 563.267 518.819 563.182 518.904C563.118 518.968 563.033 519 562.926 519H559.214C559.107 519 559.011 518.968 558.926 518.904C558.862 518.819 558.83 518.723 558.83 518.616V505.88C558.83 505.773 558.777 505.72 558.67 505.72H557.71C557.603 505.72 557.507 505.688 557.422 505.624C557.358 505.539 557.326 505.443 557.326 505.336V502.936C557.326 502.829 557.358 502.744 557.422 502.68C557.507 502.595 557.603 502.552 557.71 502.552H558.67C558.777 502.552 558.83 502.499 558.83 502.392V501.528C558.83 499.608 559.31 498.285 560.27 497.56C561.251 496.813 562.798 496.461 564.91 496.504H565.038C565.145 496.504 565.23 496.547 565.294 496.632C565.379 496.696 565.422 496.781 565.422 496.888L565.39 499.448C565.39 499.555 565.347 499.651 565.262 499.736C565.198 499.8 565.113 499.832 565.006 499.832H564.942C563.854 499.853 563.31 500.515 563.31 501.816V502.392C563.31 502.499 563.363 502.552 563.47 502.552H565.23ZM579.369 511.8C579.369 511.907 579.327 512.003 579.241 512.088C579.177 512.152 579.092 512.184 578.985 512.184H571.945C571.839 512.184 571.785 512.237 571.785 512.344V513.528C571.785 514.061 571.924 514.509 572.201 514.872C572.5 515.213 572.873 515.384 573.321 515.384C573.727 515.384 574.057 515.256 574.313 515C574.569 514.723 574.74 514.381 574.825 513.976C574.889 513.763 575.028 513.656 575.241 513.656L578.921 513.848C579.028 513.848 579.113 513.891 579.177 513.976C579.263 514.04 579.295 514.136 579.273 514.264C579.124 515.907 578.548 517.155 577.545 518.008C576.564 518.84 575.156 519.256 573.321 519.256C571.423 519.256 569.94 518.787 568.873 517.848C567.807 516.888 567.273 515.565 567.273 513.88V507.672C567.273 506.051 567.807 504.749 568.873 503.768C569.961 502.787 571.444 502.296 573.321 502.296C575.199 502.296 576.671 502.787 577.737 503.768C578.825 504.749 579.369 506.051 579.369 507.672V511.8ZM573.321 506.168C572.873 506.168 572.5 506.339 572.201 506.68C571.924 507.021 571.785 507.459 571.785 507.992V509.24C571.785 509.347 571.839 509.4 571.945 509.4H574.697C574.804 509.4 574.857 509.347 574.857 509.24V507.992C574.857 507.459 574.708 507.021 574.409 506.68C574.132 506.339 573.769 506.168 573.321 506.168ZM571.529 500.568C571.38 500.568 571.273 500.525 571.209 500.44C571.145 500.355 571.156 500.248 571.241 500.12L573.129 496.856C573.215 496.685 573.375 496.6 573.609 496.6H576.585C576.799 496.6 576.905 496.675 576.905 496.824C576.905 496.888 576.873 496.973 576.809 497.08L574.345 500.344C574.217 500.493 574.068 500.568 573.897 500.568H571.529ZM588.795 502.36C589.371 502.36 589.819 502.467 590.139 502.68C590.309 502.787 590.373 502.947 590.331 503.16L589.723 506.904C589.701 507.139 589.552 507.224 589.275 507.16C589.04 507.075 588.752 507.032 588.411 507.032C588.091 507.032 587.813 507.075 587.579 507.16C587.088 507.245 586.693 507.544 586.395 508.056C586.096 508.547 585.947 509.123 585.947 509.784V518.584C585.947 518.691 585.904 518.787 585.819 518.872C585.755 518.936 585.669 518.968 585.563 518.968H581.819C581.712 518.968 581.616 518.936 581.531 518.872C581.467 518.787 581.435 518.691 581.435 518.584V502.936C581.435 502.829 581.467 502.744 581.531 502.68C581.616 502.595 581.712 502.552 581.819 502.552H585.563C585.669 502.552 585.755 502.595 585.819 502.68C585.904 502.744 585.947 502.829 585.947 502.936V504.184C585.947 504.269 585.957 504.323 585.979 504.344C586.021 504.344 586.064 504.312 586.107 504.248C586.683 502.989 587.579 502.36 588.795 502.36ZM594.082 500.696C593.356 500.696 592.748 500.461 592.258 499.992C591.788 499.501 591.554 498.893 591.554 498.168C591.554 497.421 591.788 496.813 592.258 496.344C592.727 495.875 593.335 495.64 594.082 495.64C594.828 495.64 595.426 495.875 595.874 496.344C596.343 496.813 596.578 497.421 596.578 498.168C596.578 498.893 596.343 499.501 595.874 499.992C595.404 500.461 594.807 500.696 594.082 500.696ZM592.258 519C592.151 519 592.055 518.968 591.97 518.904C591.906 518.819 591.874 518.723 591.874 518.616V502.936C591.874 502.829 591.906 502.744 591.97 502.68C592.055 502.595 592.151 502.552 592.258 502.552H596.002C596.108 502.552 596.194 502.595 596.258 502.68C596.343 502.744 596.386 502.829 596.386 502.936V518.616C596.386 518.723 596.343 518.819 596.258 518.904C596.194 518.968 596.108 519 596.002 519H592.258ZM604.634 519.256C602.756 519.256 601.274 518.776 600.186 517.816C599.119 516.856 598.586 515.544 598.586 513.88V507.672C598.586 506.051 599.119 504.749 600.186 503.768C601.274 502.787 602.756 502.296 604.634 502.296C606.511 502.296 607.983 502.776 609.05 503.736C610.138 504.696 610.682 505.944 610.682 507.48V508.056C610.682 508.163 610.639 508.259 610.554 508.344C610.49 508.408 610.404 508.44 610.298 508.44L606.554 508.6C606.298 508.6 606.17 508.472 606.17 508.216V507.832C606.17 507.363 606.02 506.968 605.722 506.648C605.444 506.328 605.082 506.168 604.634 506.168C604.164 506.168 603.791 506.339 603.514 506.68C603.236 507.021 603.098 507.469 603.098 508.024V513.528C603.098 514.083 603.236 514.531 603.514 514.872C603.791 515.213 604.164 515.384 604.634 515.384C605.082 515.384 605.444 515.224 605.722 514.904C606.02 514.563 606.17 514.168 606.17 513.72V513.304C606.17 513.197 606.202 513.112 606.266 513.048C606.351 512.963 606.447 512.92 606.554 512.92L610.298 512.952C610.404 512.952 610.49 512.995 610.554 513.08C610.639 513.144 610.682 513.229 610.682 513.336V514.072C610.682 515.651 610.138 516.909 609.05 517.848C607.983 518.787 606.511 519.256 604.634 519.256ZM618.637 502.296C620.45 502.296 621.922 502.787 623.053 503.768C624.183 504.749 624.749 506.04 624.749 507.64V518.616C624.749 518.723 624.706 518.819 624.621 518.904C624.557 518.968 624.471 519 624.365 519H620.621C620.514 519 620.418 518.968 620.333 518.904C620.269 518.819 620.237 518.723 620.237 518.616V517.912C620.237 517.848 620.215 517.805 620.173 517.784C620.13 517.763 620.087 517.784 620.045 517.848C619.341 518.744 618.253 519.213 616.781 519.256C615.543 519.256 614.466 518.915 613.549 518.232C612.653 517.549 612.205 516.248 612.205 514.328C612.205 512.344 612.749 510.979 613.837 510.232C614.946 509.485 616.535 509.112 618.605 509.112H620.077C620.183 509.112 620.237 509.059 620.237 508.952V508.152C620.237 507.576 620.077 507.107 619.757 506.744C619.458 506.36 619.074 506.168 618.605 506.168C618.242 506.168 617.933 506.285 617.677 506.52C617.442 506.733 617.293 507.043 617.229 507.448C617.207 507.704 617.069 507.832 616.813 507.832L612.973 507.8C612.717 507.8 612.589 507.672 612.589 507.416C612.695 505.859 613.303 504.621 614.413 503.704C615.522 502.765 616.93 502.296 618.637 502.296ZM618.317 515.768C618.807 515.768 619.245 515.608 619.629 515.288C620.034 514.947 620.237 514.499 620.237 513.944V512.44C620.237 512.333 620.183 512.28 620.077 512.28H618.765C618.189 512.28 617.719 512.451 617.357 512.792C617.015 513.112 616.845 513.56 616.845 514.136C616.845 514.669 616.973 515.075 617.229 515.352C617.506 515.629 617.869 515.768 618.317 515.768Z" fill="black"/>
<path d="M523.315 414.984C523.315 414.877 523.347 414.792 523.411 414.728C523.496 414.643 523.592 414.6 523.699 414.6H527.443C527.55 414.6 527.635 414.643 527.699 414.728C527.784 414.792 527.827 414.877 527.827 414.984V436.616C527.827 436.723 527.784 436.819 527.699 436.904C527.635 436.968 527.55 437 527.443 437H523.699C523.592 437 523.496 436.968 523.411 436.904C523.347 436.819 523.315 436.723 523.315 436.616V427.88C523.315 427.773 523.262 427.72 523.155 427.72H519.955C519.848 427.72 519.795 427.773 519.795 427.88V436.616C519.795 436.723 519.752 436.819 519.667 436.904C519.603 436.968 519.518 437 519.411 437H515.667C515.56 437 515.464 436.968 515.379 436.904C515.315 436.819 515.283 436.723 515.283 436.616V414.984C515.283 414.877 515.315 414.792 515.379 414.728C515.464 414.643 515.56 414.6 515.667 414.6H519.411C519.518 414.6 519.603 414.643 519.667 414.728C519.752 414.792 519.795 414.877 519.795 414.984V423.688C519.795 423.795 519.848 423.848 519.955 423.848H523.155C523.262 423.848 523.315 423.795 523.315 423.688V414.984ZM530.402 437C530.295 437 530.199 436.968 530.114 436.904C530.05 436.819 530.018 436.723 530.018 436.616V420.936C530.018 420.829 530.05 420.744 530.114 420.68C530.199 420.595 530.295 420.552 530.402 420.552H534.146C534.253 420.552 534.338 420.595 534.402 420.68C534.487 420.744 534.53 420.829 534.53 420.936V436.616C534.53 436.723 534.487 436.819 534.402 436.904C534.338 436.968 534.253 437 534.146 437H530.402ZM530.53 418.568C530.381 418.568 530.274 418.525 530.21 418.44C530.146 418.355 530.157 418.248 530.242 418.12L532.13 414.856C532.215 414.685 532.375 414.6 532.61 414.6H535.586C535.799 414.6 535.906 414.675 535.906 414.824C535.906 414.888 535.874 414.973 535.81 415.08L533.346 418.344C533.218 418.493 533.069 418.568 532.898 418.568H530.53ZM543.856 414.984C543.856 414.877 543.888 414.792 543.952 414.728C544.037 414.643 544.133 414.6 544.24 414.6H547.984C548.09 414.6 548.176 414.643 548.24 414.728C548.325 414.792 548.368 414.877 548.368 414.984V436.616C548.368 436.723 548.325 436.819 548.24 436.904C548.176 436.968 548.09 437 547.984 437H544.24C544.133 437 544.037 436.968 543.952 436.904C543.888 436.819 543.856 436.723 543.856 436.616V436.104C543.856 436.04 543.834 436.008 543.792 436.008C543.749 435.987 543.706 435.997 543.664 436.04C542.938 436.851 541.978 437.256 540.784 437.256C539.312 437.256 538.202 436.787 537.456 435.848C536.709 434.888 536.336 433.565 536.336 431.88V425.672C536.336 423.944 536.709 422.621 537.456 421.704C538.224 420.765 539.333 420.296 540.784 420.296C541.253 420.296 541.744 420.392 542.256 420.584C542.768 420.755 543.237 421.075 543.664 421.544C543.706 421.587 543.749 421.608 543.792 421.608C543.834 421.587 543.856 421.544 543.856 421.48V414.984ZM542.352 433.384C542.736 433.384 543.066 433.256 543.344 433C543.621 432.744 543.792 432.403 543.856 431.976V425.576C543.792 425.149 543.621 424.808 543.344 424.552C543.066 424.296 542.736 424.168 542.352 424.168C541.904 424.168 541.541 424.339 541.264 424.68C540.986 425.021 540.848 425.459 540.848 425.992V431.56C540.848 432.093 540.986 432.531 541.264 432.872C541.541 433.213 541.904 433.384 542.352 433.384ZM558.17 420.36C558.746 420.36 559.194 420.467 559.514 420.68C559.684 420.787 559.748 420.947 559.706 421.16L559.098 424.904C559.076 425.139 558.927 425.224 558.65 425.16C558.415 425.075 558.127 425.032 557.786 425.032C557.466 425.032 557.188 425.075 556.954 425.16C556.463 425.245 556.068 425.544 555.77 426.056C555.471 426.547 555.322 427.123 555.322 427.784V436.584C555.322 436.691 555.279 436.787 555.194 436.872C555.13 436.936 555.044 436.968 554.938 436.968H551.194C551.087 436.968 550.991 436.936 550.906 436.872C550.842 436.787 550.81 436.691 550.81 436.584V420.936C550.81 420.829 550.842 420.744 550.906 420.68C550.991 420.595 551.087 420.552 551.194 420.552H554.938C555.044 420.552 555.13 420.595 555.194 420.68C555.279 420.744 555.322 420.829 555.322 420.936V422.184C555.322 422.269 555.332 422.323 555.354 422.344C555.396 422.344 555.439 422.312 555.482 422.248C556.058 420.989 556.954 420.36 558.17 420.36ZM563.457 418.696C562.731 418.696 562.123 418.461 561.633 417.992C561.163 417.501 560.929 416.893 560.929 416.168C560.929 415.421 561.163 414.813 561.633 414.344C562.102 413.875 562.71 413.64 563.457 413.64C564.203 413.64 564.801 413.875 565.249 414.344C565.718 414.813 565.953 415.421 565.953 416.168C565.953 416.893 565.718 417.501 565.249 417.992C564.779 418.461 564.182 418.696 563.457 418.696ZM561.633 437C561.526 437 561.43 436.968 561.345 436.904C561.281 436.819 561.249 436.723 561.249 436.616V420.936C561.249 420.829 561.281 420.744 561.345 420.68C561.43 420.595 561.526 420.552 561.633 420.552H565.377C565.483 420.552 565.569 420.595 565.633 420.68C565.718 420.744 565.761 420.829 565.761 420.936V436.616C565.761 436.723 565.718 436.819 565.633 436.904C565.569 436.968 565.483 437 565.377 437H561.633ZM574.009 437.256C572.131 437.256 570.649 436.776 569.561 435.816C568.494 434.856 567.961 433.544 567.961 431.88V425.672C567.961 424.051 568.494 422.749 569.561 421.768C570.649 420.787 572.131 420.296 574.009 420.296C575.886 420.296 577.358 420.776 578.425 421.736C579.513 422.696 580.057 423.944 580.057 425.48V426.056C580.057 426.163 580.014 426.259 579.929 426.344C579.865 426.408 579.779 426.44 579.673 426.44L575.929 426.6C575.673 426.6 575.545 426.472 575.545 426.216V425.832C575.545 425.363 575.395 424.968 575.097 424.648C574.819 424.328 574.457 424.168 574.009 424.168C573.539 424.168 573.166 424.339 572.889 424.68C572.611 425.021 572.473 425.469 572.473 426.024V431.528C572.473 432.083 572.611 432.531 572.889 432.872C573.166 433.213 573.539 433.384 574.009 433.384C574.457 433.384 574.819 433.224 575.097 432.904C575.395 432.563 575.545 432.168 575.545 431.72V431.304C575.545 431.197 575.577 431.112 575.641 431.048C575.726 430.963 575.822 430.92 575.929 430.92L579.673 430.952C579.779 430.952 579.865 430.995 579.929 431.08C580.014 431.144 580.057 431.229 580.057 431.336V432.072C580.057 433.651 579.513 434.909 578.425 435.848C577.358 436.787 575.886 437.256 574.009 437.256ZM588.012 420.296C589.825 420.296 591.297 420.787 592.428 421.768C593.558 422.749 594.124 424.04 594.124 425.64V436.616C594.124 436.723 594.081 436.819 593.996 436.904C593.932 436.968 593.846 437 593.74 437H589.996C589.889 437 589.793 436.968 589.708 436.904C589.644 436.819 589.612 436.723 589.612 436.616V435.912C589.612 435.848 589.59 435.805 589.548 435.784C589.505 435.763 589.462 435.784 589.42 435.848C588.716 436.744 587.628 437.213 586.156 437.256C584.918 437.256 583.841 436.915 582.924 436.232C582.028 435.549 581.58 434.248 581.58 432.328C581.58 430.344 582.124 428.979 583.212 428.232C584.321 427.485 585.91 427.112 587.98 427.112H589.452C589.558 427.112 589.612 427.059 589.612 426.952V426.152C589.612 425.576 589.452 425.107 589.132 424.744C588.833 424.36 588.449 424.168 587.98 424.168C587.617 424.168 587.308 424.285 587.052 424.52C586.817 424.733 586.668 425.043 586.604 425.448C586.582 425.704 586.444 425.832 586.188 425.832L582.348 425.8C582.092 425.8 581.964 425.672 581.964 425.416C582.07 423.859 582.678 422.621 583.788 421.704C584.897 420.765 586.305 420.296 588.012 420.296ZM587.692 433.768C588.182 433.768 588.62 433.608 589.004 433.288C589.409 432.947 589.612 432.499 589.612 431.944V430.44C589.612 430.333 589.558 430.28 589.452 430.28H588.14C587.564 430.28 587.094 430.451 586.732 430.792C586.39 431.112 586.22 431.56 586.22 432.136C586.22 432.669 586.348 433.075 586.604 433.352C586.881 433.629 587.244 433.768 587.692 433.768Z" fill="black"/>
<path d="M503.178 601C502.943 601 502.794 600.893 502.73 600.68L500.266 591.848C500.223 591.763 500.17 591.72 500.106 591.72H499.018C498.911 591.72 498.858 591.773 498.858 591.88V600.616C498.858 600.723 498.815 600.819 498.73 600.904C498.666 600.968 498.58 601 498.474 601H494.73C494.623 601 494.527 600.968 494.442 600.904C494.378 600.819 494.346 600.723 494.346 600.616V578.984C494.346 578.877 494.378 578.792 494.442 578.728C494.527 578.643 494.623 578.6 494.73 578.6H501.194C502.367 578.6 503.412 578.888 504.33 579.464C505.247 580.019 505.951 580.808 506.442 581.832C506.954 582.856 507.21 584.029 507.21 585.352C507.21 586.611 506.964 587.72 506.474 588.68C506.004 589.64 505.343 590.387 504.49 590.92C504.447 590.941 504.415 590.973 504.394 591.016C504.372 591.037 504.372 591.069 504.394 591.112L507.338 600.552L507.37 600.68C507.37 600.893 507.252 601 507.018 601H503.178ZM499.018 582.472C498.911 582.472 498.858 582.525 498.858 582.632V588.104C498.858 588.211 498.911 588.264 499.018 588.264H500.458C501.119 588.264 501.652 588.008 502.058 587.496C502.484 586.963 502.698 586.259 502.698 585.384C502.698 584.488 502.484 583.784 502.058 583.272C501.652 582.739 501.119 582.472 500.458 582.472H499.018ZM515.168 584.296C516.981 584.296 518.453 584.787 519.584 585.768C520.715 586.749 521.28 588.04 521.28 589.64V600.616C521.28 600.723 521.237 600.819 521.152 600.904C521.088 600.968 521.003 601 520.896 601H517.152C517.045 601 516.949 600.968 516.864 600.904C516.8 600.819 516.768 600.723 516.768 600.616V599.912C516.768 599.848 516.747 599.805 516.704 599.784C516.661 599.763 516.619 599.784 516.576 599.848C515.872 600.744 514.784 601.213 513.312 601.256C512.075 601.256 510.997 600.915 510.08 600.232C509.184 599.549 508.736 598.248 508.736 596.328C508.736 594.344 509.28 592.979 510.368 592.232C511.477 591.485 513.067 591.112 515.136 591.112H516.608C516.715 591.112 516.768 591.059 516.768 590.952V590.152C516.768 589.576 516.608 589.107 516.288 588.744C515.989 588.36 515.605 588.168 515.136 588.168C514.773 588.168 514.464 588.285 514.208 588.52C513.973 588.733 513.824 589.043 513.76 589.448C513.739 589.704 513.6 589.832 513.344 589.832L509.504 589.8C509.248 589.8 509.12 589.672 509.12 589.416C509.227 587.859 509.835 586.621 510.944 585.704C512.053 584.765 513.461 584.296 515.168 584.296ZM514.848 597.768C515.339 597.768 515.776 597.608 516.16 597.288C516.565 596.947 516.768 596.499 516.768 595.944V594.44C516.768 594.333 516.715 594.28 516.608 594.28H515.296C514.72 594.28 514.251 594.451 513.888 594.792C513.547 595.112 513.376 595.56 513.376 596.136C513.376 596.669 513.504 597.075 513.76 597.352C514.037 597.629 514.4 597.768 514.848 597.768ZM530.793 578.984C530.793 578.877 530.825 578.792 530.889 578.728C530.975 578.643 531.071 578.6 531.177 578.6H534.921C535.028 578.6 535.113 578.643 535.177 578.728C535.263 578.792 535.305 578.877 535.305 578.984V600.616C535.305 600.723 535.263 600.819 535.177 600.904C535.113 600.968 535.028 601 534.921 601H531.177C531.071 601 530.975 600.968 530.889 600.904C530.825 600.819 530.793 600.723 530.793 600.616V600.104C530.793 600.04 530.772 600.008 530.729 600.008C530.687 599.987 530.644 599.997 530.601 600.04C529.876 600.851 528.916 601.256 527.721 601.256C526.249 601.256 525.14 600.787 524.393 599.848C523.647 598.888 523.273 597.565 523.273 595.88V589.672C523.273 587.944 523.647 586.621 524.393 585.704C525.161 584.765 526.271 584.296 527.721 584.296C528.191 584.296 528.681 584.392 529.193 584.584C529.705 584.755 530.175 585.075 530.601 585.544C530.644 585.587 530.687 585.608 530.729 585.608C530.772 585.587 530.793 585.544 530.793 585.48V578.984ZM529.289 597.384C529.673 597.384 530.004 597.256 530.281 597C530.559 596.744 530.729 596.403 530.793 595.976V589.576C530.729 589.149 530.559 588.808 530.281 588.552C530.004 588.296 529.673 588.168 529.289 588.168C528.841 588.168 528.479 588.339 528.201 588.68C527.924 589.021 527.785 589.459 527.785 589.992V595.56C527.785 596.093 527.924 596.531 528.201 596.872C528.479 597.213 528.841 597.384 529.289 597.384ZM540.019 582.696C539.294 582.696 538.686 582.461 538.195 581.992C537.726 581.501 537.491 580.893 537.491 580.168C537.491 579.421 537.726 578.813 538.195 578.344C538.665 577.875 539.273 577.64 540.019 577.64C540.766 577.64 541.363 577.875 541.811 578.344C542.281 578.813 542.515 579.421 542.515 580.168C542.515 580.893 542.281 581.501 541.811 581.992C541.342 582.461 540.745 582.696 540.019 582.696ZM538.195 601C538.089 601 537.993 600.968 537.907 600.904C537.843 600.819 537.811 600.723 537.811 600.616V584.936C537.811 584.829 537.843 584.744 537.907 584.68C537.993 584.595 538.089 584.552 538.195 584.552H541.939C542.046 584.552 542.131 584.595 542.195 584.68C542.281 584.744 542.323 584.829 542.323 584.936V600.616C542.323 600.723 542.281 600.819 542.195 600.904C542.131 600.968 542.046 601 541.939 601H538.195ZM550.603 601.256C548.705 601.256 547.211 600.776 546.123 599.816C545.057 598.856 544.523 597.544 544.523 595.88V589.672C544.523 588.051 545.067 586.749 546.155 585.768C547.243 584.787 548.726 584.296 550.603 584.296C552.502 584.296 553.995 584.787 555.083 585.768C556.171 586.749 556.715 588.051 556.715 589.672V595.88C556.715 597.544 556.171 598.856 555.083 599.816C554.017 600.776 552.523 601.256 550.603 601.256ZM550.603 597.352C551.073 597.352 551.457 597.181 551.755 596.84C552.054 596.499 552.203 596.061 552.203 595.528V589.992C552.203 589.459 552.054 589.021 551.755 588.68C551.457 588.339 551.073 588.168 550.603 588.168C550.134 588.168 549.75 588.339 549.451 588.68C549.174 589.021 549.035 589.459 549.035 589.992V595.528C549.035 596.061 549.174 596.499 549.451 596.84C549.75 597.181 550.134 597.352 550.603 597.352ZM564.856 584.296C566.669 584.296 568.141 584.787 569.272 585.768C570.402 586.749 570.968 588.04 570.968 589.64V600.616C570.968 600.723 570.925 600.819 570.84 600.904C570.776 600.968 570.69 601 570.584 601H566.84C566.733 601 566.637 600.968 566.552 600.904C566.488 600.819 566.456 600.723 566.456 600.616V599.912C566.456 599.848 566.434 599.805 566.392 599.784C566.349 599.763 566.306 599.784 566.264 599.848C565.56 600.744 564.472 601.213 563 601.256C561.762 601.256 560.685 600.915 559.768 600.232C558.872 599.549 558.424 598.248 558.424 596.328C558.424 594.344 558.968 592.979 560.056 592.232C561.165 591.485 562.754 591.112 564.824 591.112H566.296C566.402 591.112 566.456 591.059 566.456 590.952V590.152C566.456 589.576 566.296 589.107 565.976 588.744C565.677 588.36 565.293 588.168 564.824 588.168C564.461 588.168 564.152 588.285 563.896 588.52C563.661 588.733 563.512 589.043 563.448 589.448C563.426 589.704 563.288 589.832 563.032 589.832L559.192 589.8C558.936 589.8 558.808 589.672 558.808 589.416C558.914 587.859 559.522 586.621 560.632 585.704C561.741 584.765 563.149 584.296 564.856 584.296ZM564.536 597.768C565.026 597.768 565.464 597.608 565.848 597.288C566.253 596.947 566.456 596.499 566.456 595.944V594.44C566.456 594.333 566.402 594.28 566.296 594.28H564.984C564.408 594.28 563.938 594.451 563.576 594.792C563.234 595.112 563.064 595.56 563.064 596.136C563.064 596.669 563.192 597.075 563.448 597.352C563.725 597.629 564.088 597.768 564.536 597.768ZM580.673 587.336C580.673 587.443 580.63 587.539 580.545 587.624C580.481 587.688 580.395 587.72 580.289 587.72H578.497C578.39 587.72 578.337 587.773 578.337 587.88V595.496C578.337 596.115 578.454 596.541 578.689 596.776C578.923 597.011 579.275 597.117 579.745 597.096H579.969C580.075 597.096 580.161 597.139 580.225 597.224C580.31 597.288 580.353 597.373 580.353 597.48V600.616C580.353 600.723 580.31 600.819 580.225 600.904C580.161 600.968 580.075 601 579.969 601H578.689C577.131 601 575.958 600.744 575.169 600.232C574.379 599.699 573.985 598.696 573.985 597.224V587.88C573.985 587.773 573.931 587.72 573.825 587.72H572.769C572.662 587.72 572.566 587.688 572.481 587.624C572.417 587.539 572.385 587.443 572.385 587.336V584.936C572.385 584.829 572.417 584.744 572.481 584.68C572.566 584.595 572.662 584.552 572.769 584.552H573.825C573.931 584.552 573.985 584.499 573.985 584.392V580.84C573.985 580.733 574.017 580.648 574.081 580.584C574.166 580.499 574.262 580.456 574.369 580.456H577.953C578.059 580.456 578.145 580.499 578.209 580.584C578.294 580.648 578.337 580.733 578.337 580.84V584.392C578.337 584.499 578.39 584.552 578.497 584.552H580.289C580.395 584.552 580.481 584.595 580.545 584.68C580.63 584.744 580.673 584.829 580.673 584.936V587.336ZM584.769 582.696C584.044 582.696 583.436 582.461 582.945 581.992C582.476 581.501 582.241 580.893 582.241 580.168C582.241 579.421 582.476 578.813 582.945 578.344C583.415 577.875 584.023 577.64 584.769 577.64C585.516 577.64 586.113 577.875 586.561 578.344C587.031 578.813 587.265 579.421 587.265 580.168C587.265 580.893 587.031 581.501 586.561 581.992C586.092 582.461 585.495 582.696 584.769 582.696ZM582.945 601C582.839 601 582.743 600.968 582.657 600.904C582.593 600.819 582.561 600.723 582.561 600.616V584.936C582.561 584.829 582.593 584.744 582.657 584.68C582.743 584.595 582.839 584.552 582.945 584.552H586.689C586.796 584.552 586.881 584.595 586.945 584.68C587.031 584.744 587.073 584.829 587.073 584.936V600.616C587.073 600.723 587.031 600.819 586.945 600.904C586.881 600.968 586.796 601 586.689 601H582.945ZM593.113 601C592.879 601 592.729 600.893 592.665 600.68L588.793 584.936V584.808C588.793 584.616 588.911 584.52 589.145 584.52H593.273C593.529 584.52 593.668 584.637 593.689 584.872L595.161 593.672C595.183 593.736 595.215 593.768 595.257 593.768C595.3 593.768 595.332 593.736 595.353 593.672L596.793 584.872C596.815 584.637 596.953 584.52 597.209 584.52L601.337 584.584C601.636 584.584 601.753 584.723 601.689 585L597.849 600.68C597.785 600.893 597.636 601 597.401 601H593.113ZM608.949 584.296C610.763 584.296 612.235 584.787 613.365 585.768C614.496 586.749 615.061 588.04 615.061 589.64V600.616C615.061 600.723 615.019 600.819 614.933 600.904C614.869 600.968 614.784 601 614.677 601H610.933C610.827 601 610.731 600.968 610.645 600.904C610.581 600.819 610.549 600.723 610.549 600.616V599.912C610.549 599.848 610.528 599.805 610.485 599.784C610.443 599.763 610.4 599.784 610.357 599.848C609.653 600.744 608.565 601.213 607.093 601.256C605.856 601.256 604.779 600.915 603.861 600.232C602.965 599.549 602.517 598.248 602.517 596.328C602.517 594.344 603.061 592.979 604.149 592.232C605.259 591.485 606.848 591.112 608.917 591.112H610.389C610.496 591.112 610.549 591.059 610.549 590.952V590.152C610.549 589.576 610.389 589.107 610.069 588.744C609.771 588.36 609.387 588.168 608.917 588.168C608.555 588.168 608.245 588.285 607.989 588.52C607.755 588.733 607.605 589.043 607.541 589.448C607.52 589.704 607.381 589.832 607.125 589.832L603.285 589.8C603.029 589.8 602.901 589.672 602.901 589.416C603.008 587.859 603.616 586.621 604.725 585.704C605.835 584.765 607.243 584.296 608.949 584.296ZM608.629 597.768C609.12 597.768 609.557 597.608 609.941 597.288C610.347 596.947 610.549 596.499 610.549 595.944V594.44C610.549 594.333 610.496 594.28 610.389 594.28H609.077C608.501 594.28 608.032 594.451 607.669 594.792C607.328 595.112 607.157 595.56 607.157 596.136C607.157 596.669 607.285 597.075 607.541 597.352C607.819 597.629 608.181 597.768 608.629 597.768Z" fill="black"/>
<path d="M524.681 683C524.446 683 524.308 682.883 524.265 682.648L519.689 661.016L519.657 660.888C519.657 660.696 519.774 660.6 520.009 660.6H524.137C524.393 660.6 524.532 660.717 524.553 660.952L526.761 675.032C526.782 675.117 526.814 675.16 526.857 675.16C526.9 675.16 526.932 675.117 526.953 675.032L529.097 660.952C529.118 660.717 529.257 660.6 529.513 660.6H533.513C533.79 660.6 533.897 660.739 533.833 661.016L529.225 682.648C529.182 682.883 529.044 683 528.809 683H524.681ZM538.066 664.696C537.341 664.696 536.733 664.461 536.242 663.992C535.773 663.501 535.538 662.893 535.538 662.168C535.538 661.421 535.773 660.813 536.242 660.344C536.711 659.875 537.319 659.64 538.066 659.64C538.813 659.64 539.41 659.875 539.858 660.344C540.327 660.813 540.562 661.421 540.562 662.168C540.562 662.893 540.327 663.501 539.858 663.992C539.389 664.461 538.791 664.696 538.066 664.696ZM536.242 683C536.135 683 536.039 682.968 535.954 682.904C535.89 682.819 535.858 682.723 535.858 682.616V666.936C535.858 666.829 535.89 666.744 535.954 666.68C536.039 666.595 536.135 666.552 536.242 666.552H539.986C540.093 666.552 540.178 666.595 540.242 666.68C540.327 666.744 540.37 666.829 540.37 666.936V682.616C540.37 682.723 540.327 682.819 540.242 682.904C540.178 682.968 540.093 683 539.986 683H536.242ZM548.298 683.224C546.485 683.224 545.034 682.797 543.946 681.944C542.879 681.069 542.346 679.907 542.346 678.456V678.232C542.346 678.125 542.378 678.04 542.442 677.976C542.527 677.891 542.623 677.848 542.73 677.848H546.25C546.357 677.848 546.442 677.891 546.506 677.976C546.591 678.04 546.634 678.125 546.634 678.232V678.328C546.634 678.776 546.794 679.149 547.114 679.448C547.434 679.725 547.829 679.864 548.298 679.864C548.725 679.864 549.055 679.747 549.29 679.512C549.546 679.256 549.674 678.936 549.674 678.552C549.674 678.083 549.471 677.72 549.066 677.464C548.661 677.187 548.202 676.963 547.69 676.792C547.199 676.6 546.858 676.472 546.666 676.408C545.493 675.981 544.501 675.395 543.69 674.648C542.901 673.88 542.506 672.781 542.506 671.352C542.506 669.795 543.018 668.568 544.042 667.672C545.066 666.776 546.431 666.328 548.138 666.328C549.909 666.328 551.306 666.797 552.33 667.736C553.375 668.675 553.898 669.944 553.898 671.544C553.898 671.651 553.855 671.747 553.77 671.832C553.706 671.896 553.621 671.928 553.514 671.928H550.09C549.983 671.928 549.887 671.896 549.802 671.832C549.738 671.747 549.706 671.651 549.706 671.544V671.288C549.706 670.861 549.567 670.52 549.29 670.264C549.034 669.987 548.693 669.848 548.266 669.848C547.818 669.848 547.466 669.997 547.21 670.296C546.954 670.573 546.826 670.904 546.826 671.288C546.826 671.8 547.039 672.205 547.466 672.504C547.914 672.781 548.586 673.091 549.482 673.432C550.399 673.773 551.178 674.125 551.818 674.488C552.479 674.829 553.045 675.331 553.514 675.992C553.983 676.632 554.218 677.443 554.218 678.424C554.218 679.896 553.674 681.069 552.586 681.944C551.519 682.797 550.09 683.224 548.298 683.224ZM563.342 666.936C563.342 666.829 563.374 666.744 563.438 666.68C563.523 666.595 563.619 666.552 563.726 666.552H567.47C567.576 666.552 567.662 666.595 567.726 666.68C567.811 666.744 567.854 666.829 567.854 666.936V682.616C567.854 682.723 567.811 682.819 567.726 682.904C567.662 682.968 567.576 683 567.47 683H563.726C563.619 683 563.523 682.968 563.438 682.904C563.374 682.819 563.342 682.723 563.342 682.616V682.072C563.342 682.008 563.32 681.965 563.278 681.944C563.235 681.923 563.192 681.944 563.15 682.008C562.83 682.456 562.424 682.776 561.934 682.968C561.464 683.139 560.91 683.224 560.27 683.224C558.99 683.224 557.934 682.84 557.102 682.072C556.27 681.283 555.854 680.077 555.854 678.456V666.936C555.854 666.829 555.886 666.744 555.95 666.68C556.035 666.595 556.131 666.552 556.238 666.552H559.982C560.088 666.552 560.174 666.595 560.238 666.68C560.323 666.744 560.366 666.829 560.366 666.936V677.464C560.366 678.083 560.483 678.563 560.718 678.904C560.974 679.224 561.336 679.384 561.806 679.384C562.275 679.384 562.648 679.203 562.926 678.84C563.203 678.477 563.342 677.987 563.342 677.368V666.936ZM576.246 666.296C578.059 666.296 579.531 666.787 580.662 667.768C581.793 668.749 582.358 670.04 582.358 671.64V682.616C582.358 682.723 582.315 682.819 582.23 682.904C582.166 682.968 582.081 683 581.974 683H578.23C578.123 683 578.027 682.968 577.942 682.904C577.878 682.819 577.846 682.723 577.846 682.616V681.912C577.846 681.848 577.825 681.805 577.782 681.784C577.739 681.763 577.697 681.784 577.654 681.848C576.95 682.744 575.862 683.213 574.39 683.256C573.153 683.256 572.075 682.915 571.158 682.232C570.262 681.549 569.814 680.248 569.814 678.328C569.814 676.344 570.358 674.979 571.446 674.232C572.555 673.485 574.145 673.112 576.214 673.112H577.686C577.793 673.112 577.846 673.059 577.846 672.952V672.152C577.846 671.576 577.686 671.107 577.366 670.744C577.067 670.36 576.683 670.168 576.214 670.168C575.851 670.168 575.542 670.285 575.286 670.52C575.051 670.733 574.902 671.043 574.838 671.448C574.817 671.704 574.678 671.832 574.422 671.832L570.582 671.8C570.326 671.8 570.198 671.672 570.198 671.416C570.305 669.859 570.913 668.621 572.022 667.704C573.131 666.765 574.539 666.296 576.246 666.296ZM575.926 679.768C576.417 679.768 576.854 679.608 577.238 679.288C577.643 678.947 577.846 678.499 577.846 677.944V676.44C577.846 676.333 577.793 676.28 577.686 676.28H576.374C575.798 676.28 575.329 676.451 574.966 676.792C574.625 677.112 574.454 677.56 574.454 678.136C574.454 678.669 574.582 679.075 574.838 679.352C575.115 679.629 575.478 679.768 575.926 679.768ZM584.831 683C584.725 683 584.629 682.968 584.543 682.904C584.479 682.819 584.447 682.723 584.447 682.616V660.984C584.447 660.877 584.479 660.792 584.543 660.728C584.629 660.643 584.725 660.6 584.831 660.6H588.575C588.682 660.6 588.767 660.643 588.831 660.728C588.917 660.792 588.959 660.877 588.959 660.984V682.616C588.959 682.723 588.917 682.819 588.831 682.904C588.767 682.968 588.682 683 588.575 683H584.831Z" fill="black"/>
<path d="M206.485 253.016C209.333 253.016 211.621 253.928 213.349 255.752C215.077 257.544 215.941 259.912 215.941 262.856V277.544C215.941 279.784 215.413 281.72 214.357 283.352C213.333 284.984 211.909 286.136 210.085 286.808C209.957 286.84 209.893 286.92 209.893 287.048V291.128C209.893 291.288 209.829 291.416 209.701 291.512C209.605 291.64 209.477 291.704 209.317 291.704H203.701C203.541 291.704 203.397 291.64 203.269 291.512C203.173 291.416 203.125 291.288 203.125 291.128V287.048C203.125 286.92 203.061 286.84 202.933 286.808C201.109 286.136 199.669 284.984 198.613 283.352C197.589 281.72 197.077 279.784 197.077 277.544V262.856C197.077 260.904 197.461 259.192 198.229 257.72C199.029 256.216 200.133 255.064 201.541 254.264C202.981 253.432 204.629 253.016 206.485 253.016ZM203.845 278.264C203.845 279.256 204.085 280.056 204.565 280.664C205.045 281.272 205.685 281.576 206.485 281.576C207.285 281.576 207.925 281.272 208.405 280.664C208.917 280.056 209.173 279.256 209.173 278.264V262.136C209.173 261.144 208.917 260.344 208.405 259.736C207.925 259.128 207.285 258.824 206.485 258.824C205.685 258.824 205.045 259.128 204.565 259.736C204.085 260.344 203.845 261.144 203.845 262.136V278.264ZM230.434 262.904C230.434 262.744 230.482 262.616 230.578 262.52C230.706 262.392 230.85 262.328 231.01 262.328H236.626C236.786 262.328 236.914 262.392 237.01 262.52C237.138 262.616 237.202 262.744 237.202 262.904V286.424C237.202 286.584 237.138 286.728 237.01 286.856C236.914 286.952 236.786 287 236.626 287H231.01C230.85 287 230.706 286.952 230.578 286.856C230.482 286.728 230.434 286.584 230.434 286.424V285.608C230.434 285.512 230.402 285.448 230.338 285.416C230.274 285.384 230.21 285.416 230.146 285.512C229.666 286.184 229.058 286.664 228.322 286.952C227.618 287.208 226.786 287.336 225.826 287.336C223.906 287.336 222.322 286.76 221.074 285.608C219.826 284.424 219.202 282.616 219.202 280.184V262.904C219.202 262.744 219.25 262.616 219.346 262.52C219.474 262.392 219.618 262.328 219.778 262.328H225.394C225.554 262.328 225.682 262.392 225.778 262.52C225.906 262.616 225.97 262.744 225.97 262.904V278.696C225.97 279.624 226.146 280.344 226.498 280.856C226.882 281.336 227.426 281.576 228.13 281.576C228.834 281.576 229.394 281.304 229.81 280.76C230.226 280.216 230.434 279.48 230.434 278.552V262.904ZM249.791 261.944C252.511 261.944 254.719 262.68 256.415 264.152C258.111 265.624 258.959 267.56 258.959 269.96V286.424C258.959 286.584 258.895 286.728 258.767 286.856C258.671 286.952 258.543 287 258.383 287H252.767C252.607 287 252.463 286.952 252.335 286.856C252.239 286.728 252.191 286.584 252.191 286.424V285.368C252.191 285.272 252.159 285.208 252.095 285.176C252.031 285.144 251.967 285.176 251.903 285.272C250.847 286.616 249.215 287.32 247.007 287.384C245.151 287.384 243.535 286.872 242.159 285.848C240.815 284.824 240.143 282.872 240.143 279.992C240.143 277.016 240.959 274.968 242.591 273.848C244.255 272.728 246.639 272.168 249.743 272.168H251.951C252.111 272.168 252.191 272.088 252.191 271.928V270.728C252.191 269.864 251.951 269.16 251.471 268.616C251.023 268.04 250.447 267.752 249.743 267.752C249.199 267.752 248.735 267.928 248.351 268.28C247.999 268.6 247.775 269.064 247.679 269.672C247.647 270.056 247.439 270.248 247.055 270.248L241.295 270.2C240.911 270.2 240.719 270.008 240.719 269.624C240.879 267.288 241.791 265.432 243.455 264.056C245.119 262.648 247.231 261.944 249.791 261.944ZM249.311 282.152C250.047 282.152 250.703 281.912 251.279 281.432C251.887 280.92 252.191 280.248 252.191 279.416V277.16C252.191 277 252.111 276.92 251.951 276.92H249.983C249.119 276.92 248.415 277.176 247.871 277.688C247.359 278.168 247.103 278.84 247.103 279.704C247.103 280.504 247.295 281.112 247.679 281.528C248.095 281.944 248.639 282.152 249.311 282.152ZM262.669 287C262.509 287 262.365 286.952 262.237 286.856C262.141 286.728 262.093 286.584 262.093 286.424V253.976C262.093 253.816 262.141 253.688 262.237 253.592C262.365 253.464 262.509 253.4 262.669 253.4H268.285C268.445 253.4 268.573 253.464 268.669 253.592C268.797 253.688 268.861 253.816 268.861 253.976V286.424C268.861 286.584 268.797 286.728 268.669 286.856C268.573 286.952 268.445 287 268.285 287H262.669ZM292.87 253.976C292.87 253.816 292.918 253.688 293.014 253.592C293.142 253.464 293.286 253.4 293.446 253.4H299.062C299.222 253.4 299.35 253.464 299.446 253.592C299.574 253.688 299.638 253.816 299.638 253.976V286.424C299.638 286.584 299.574 286.728 299.446 286.856C299.35 286.952 299.222 287 299.062 287H293.446C293.286 287 293.142 286.952 293.014 286.856C292.918 286.728 292.87 286.584 292.87 286.424V285.656C292.87 285.56 292.838 285.512 292.774 285.512C292.71 285.48 292.646 285.496 292.582 285.56C291.494 286.776 290.054 287.384 288.262 287.384C286.054 287.384 284.39 286.68 283.27 285.272C282.15 283.832 281.59 281.848 281.59 279.32V270.008C281.59 267.416 282.15 265.432 283.27 264.056C284.422 262.648 286.086 261.944 288.262 261.944C288.966 261.944 289.702 262.088 290.47 262.376C291.238 262.632 291.942 263.112 292.582 263.816C292.646 263.88 292.71 263.912 292.774 263.912C292.838 263.88 292.87 263.816 292.87 263.72V253.976ZM290.614 281.576C291.19 281.576 291.686 281.384 292.102 281C292.518 280.616 292.774 280.104 292.87 279.464V269.864C292.774 269.224 292.518 268.712 292.102 268.328C291.686 267.944 291.19 267.752 290.614 267.752C289.942 267.752 289.398 268.008 288.982 268.52C288.566 269.032 288.358 269.688 288.358 270.488V278.84C288.358 279.64 288.566 280.296 288.982 280.808C289.398 281.32 289.942 281.576 290.614 281.576ZM321.109 276.2C321.109 276.36 321.045 276.504 320.917 276.632C320.821 276.728 320.693 276.776 320.533 276.776H309.973C309.813 276.776 309.733 276.856 309.733 277.016V278.792C309.733 279.592 309.941 280.264 310.357 280.808C310.805 281.32 311.365 281.576 312.037 281.576C312.645 281.576 313.141 281.384 313.525 281C313.909 280.584 314.165 280.072 314.293 279.464C314.389 279.144 314.597 278.984 314.917 278.984L320.437 279.272C320.597 279.272 320.725 279.336 320.821 279.464C320.949 279.56 320.997 279.704 320.965 279.896C320.741 282.36 319.877 284.232 318.373 285.512C316.901 286.76 314.789 287.384 312.037 287.384C309.189 287.384 306.965 286.68 305.365 285.272C303.765 283.832 302.965 281.848 302.965 279.32V270.008C302.965 267.576 303.765 265.624 305.365 264.152C306.997 262.68 309.221 261.944 312.037 261.944C314.853 261.944 317.061 262.68 318.661 264.152C320.293 265.624 321.109 267.576 321.109 270.008V276.2ZM312.037 267.752C311.365 267.752 310.805 268.008 310.357 268.52C309.941 269.032 309.733 269.688 309.733 270.488V272.36C309.733 272.52 309.813 272.6 309.973 272.6H314.101C314.261 272.6 314.341 272.52 314.341 272.36V270.488C314.341 269.688 314.117 269.032 313.669 268.52C313.253 268.008 312.709 267.752 312.037 267.752ZM345.048 266.504C345.048 266.664 344.984 266.808 344.856 266.936C344.76 267.032 344.632 267.08 344.472 267.08H341.784C341.624 267.08 341.544 267.16 341.544 267.32V278.744C341.544 279.672 341.72 280.312 342.072 280.664C342.424 281.016 342.952 281.176 343.656 281.144H343.992C344.152 281.144 344.28 281.208 344.376 281.336C344.504 281.432 344.568 281.56 344.568 281.72V286.424C344.568 286.584 344.504 286.728 344.376 286.856C344.28 286.952 344.152 287 343.992 287H342.072C339.736 287 337.976 286.616 336.792 285.848C335.608 285.048 335.016 283.544 335.016 281.336V267.32C335.016 267.16 334.936 267.08 334.776 267.08H333.192C333.032 267.08 332.888 267.032 332.76 266.936C332.664 266.808 332.616 266.664 332.616 266.504V262.904C332.616 262.744 332.664 262.616 332.76 262.52C332.888 262.392 333.032 262.328 333.192 262.328H334.776C334.936 262.328 335.016 262.248 335.016 262.088V256.76C335.016 256.6 335.064 256.472 335.16 256.376C335.288 256.248 335.432 256.184 335.592 256.184H340.968C341.128 256.184 341.256 256.248 341.352 256.376C341.48 256.472 341.544 256.6 341.544 256.76V262.088C341.544 262.248 341.624 262.328 341.784 262.328H344.472C344.632 262.328 344.76 262.392 344.856 262.52C344.984 262.616 345.048 262.744 345.048 262.904V266.504ZM356.569 287.384C353.721 287.384 351.481 286.664 349.849 285.224C348.249 283.784 347.449 281.816 347.449 279.32V270.008C347.449 267.576 348.265 265.624 349.897 264.152C351.529 262.68 353.753 261.944 356.569 261.944C359.417 261.944 361.657 262.68 363.289 264.152C364.921 265.624 365.737 267.576 365.737 270.008V279.32C365.737 281.816 364.921 283.784 363.289 285.224C361.689 286.664 359.449 287.384 356.569 287.384ZM356.569 281.528C357.273 281.528 357.849 281.272 358.297 280.76C358.745 280.248 358.969 279.592 358.969 278.792V270.488C358.969 269.688 358.745 269.032 358.297 268.52C357.849 268.008 357.273 267.752 356.569 267.752C355.865 267.752 355.289 268.008 354.841 268.52C354.425 269.032 354.217 269.688 354.217 270.488V278.792C354.217 279.592 354.425 280.248 354.841 280.76C355.289 281.272 355.865 281.528 356.569 281.528ZM379.963 253.976C379.963 253.816 380.011 253.688 380.107 253.592C380.235 253.464 380.379 253.4 380.539 253.4H386.155C386.315 253.4 386.443 253.464 386.539 253.592C386.667 253.688 386.731 253.816 386.731 253.976V286.424C386.731 286.584 386.667 286.728 386.539 286.856C386.443 286.952 386.315 287 386.155 287H380.539C380.379 287 380.235 286.952 380.107 286.856C380.011 286.728 379.963 286.584 379.963 286.424V285.656C379.963 285.56 379.931 285.512 379.867 285.512C379.803 285.48 379.739 285.496 379.675 285.56C378.587 286.776 377.147 287.384 375.355 287.384C373.147 287.384 371.483 286.68 370.363 285.272C369.243 283.832 368.683 281.848 368.683 279.32V270.008C368.683 267.416 369.243 265.432 370.363 264.056C371.515 262.648 373.179 261.944 375.355 261.944C376.059 261.944 376.795 262.088 377.563 262.376C378.331 262.632 379.035 263.112 379.675 263.816C379.739 263.88 379.803 263.912 379.867 263.912C379.931 263.88 379.963 263.816 379.963 263.72V253.976ZM377.707 281.576C378.283 281.576 378.779 281.384 379.195 281C379.611 280.616 379.867 280.104 379.963 279.464V269.864C379.867 269.224 379.611 268.712 379.195 268.328C378.779 267.944 378.283 267.752 377.707 267.752C377.035 267.752 376.491 268.008 376.075 268.52C375.659 269.032 375.451 269.688 375.451 270.488V278.84C375.451 279.64 375.659 280.296 376.075 280.808C376.491 281.32 377.035 281.576 377.707 281.576ZM399.322 261.944C402.042 261.944 404.25 262.68 405.946 264.152C407.642 265.624 408.49 267.56 408.49 269.96V286.424C408.49 286.584 408.426 286.728 408.298 286.856C408.202 286.952 408.074 287 407.914 287H402.298C402.138 287 401.994 286.952 401.866 286.856C401.77 286.728 401.722 286.584 401.722 286.424V285.368C401.722 285.272 401.69 285.208 401.626 285.176C401.562 285.144 401.498 285.176 401.434 285.272C400.378 286.616 398.746 287.32 396.538 287.384C394.682 287.384 393.066 286.872 391.69 285.848C390.346 284.824 389.674 282.872 389.674 279.992C389.674 277.016 390.49 274.968 392.122 273.848C393.786 272.728 396.17 272.168 399.274 272.168H401.482C401.642 272.168 401.722 272.088 401.722 271.928V270.728C401.722 269.864 401.482 269.16 401.002 268.616C400.554 268.04 399.978 267.752 399.274 267.752C398.73 267.752 398.266 267.928 397.882 268.28C397.53 268.6 397.306 269.064 397.21 269.672C397.178 270.056 396.97 270.248 396.586 270.248L390.826 270.2C390.442 270.2 390.25 270.008 390.25 269.624C390.41 267.288 391.322 265.432 392.986 264.056C394.65 262.648 396.762 261.944 399.322 261.944ZM398.842 282.152C399.578 282.152 400.234 281.912 400.81 281.432C401.418 280.92 401.722 280.248 401.722 279.416V277.16C401.722 277 401.642 276.92 401.482 276.92H399.514C398.65 276.92 397.946 277.176 397.402 277.688C396.89 278.168 396.634 278.84 396.634 279.704C396.634 280.504 396.826 281.112 397.21 281.528C397.626 281.944 398.17 282.152 398.842 282.152ZM420.072 287.336C417.352 287.336 415.176 286.696 413.544 285.416C411.944 284.104 411.144 282.36 411.144 280.184V279.848C411.144 279.688 411.192 279.56 411.288 279.464C411.416 279.336 411.56 279.272 411.72 279.272H417C417.16 279.272 417.288 279.336 417.384 279.464C417.512 279.56 417.576 279.688 417.576 279.848V279.992C417.576 280.664 417.816 281.224 418.296 281.672C418.776 282.088 419.368 282.296 420.072 282.296C420.712 282.296 421.208 282.12 421.56 281.768C421.944 281.384 422.136 280.904 422.136 280.328C422.136 279.624 421.832 279.08 421.224 278.696C420.616 278.28 419.928 277.944 419.16 277.688C418.424 277.4 417.912 277.208 417.624 277.112C415.864 276.472 414.376 275.592 413.16 274.472C411.976 273.32 411.384 271.672 411.384 269.528C411.384 267.192 412.152 265.352 413.688 264.008C415.224 262.664 417.272 261.992 419.832 261.992C422.488 261.992 424.584 262.696 426.12 264.104C427.688 265.512 428.472 267.416 428.472 269.816C428.472 269.976 428.408 270.12 428.28 270.248C428.184 270.344 428.056 270.392 427.896 270.392H422.76C422.6 270.392 422.456 270.344 422.328 270.248C422.232 270.12 422.184 269.976 422.184 269.816V269.432C422.184 268.792 421.976 268.28 421.56 267.896C421.176 267.48 420.664 267.272 420.024 267.272C419.352 267.272 418.824 267.496 418.44 267.944C418.056 268.36 417.864 268.856 417.864 269.432C417.864 270.2 418.184 270.808 418.824 271.256C419.496 271.672 420.504 272.136 421.848 272.648C423.224 273.16 424.392 273.688 425.352 274.232C426.344 274.744 427.192 275.496 427.896 276.488C428.6 277.448 428.952 278.664 428.952 280.136C428.952 282.344 428.136 284.104 426.504 285.416C424.904 286.696 422.76 287.336 420.072 287.336ZM450.135 261.944C452.855 261.944 455.063 262.68 456.759 264.152C458.455 265.624 459.303 267.56 459.303 269.96V286.424C459.303 286.584 459.239 286.728 459.111 286.856C459.015 286.952 458.887 287 458.727 287H453.111C452.951 287 452.807 286.952 452.679 286.856C452.583 286.728 452.535 286.584 452.535 286.424V285.368C452.535 285.272 452.503 285.208 452.439 285.176C452.375 285.144 452.311 285.176 452.247 285.272C451.191 286.616 449.559 287.32 447.351 287.384C445.495 287.384 443.879 286.872 442.503 285.848C441.159 284.824 440.487 282.872 440.487 279.992C440.487 277.016 441.303 274.968 442.935 273.848C444.599 272.728 446.983 272.168 450.087 272.168H452.295C452.455 272.168 452.535 272.088 452.535 271.928V270.728C452.535 269.864 452.295 269.16 451.815 268.616C451.367 268.04 450.791 267.752 450.087 267.752C449.543 267.752 449.079 267.928 448.695 268.28C448.343 268.6 448.119 269.064 448.023 269.672C447.991 270.056 447.783 270.248 447.399 270.248L441.639 270.2C441.255 270.2 441.063 270.008 441.063 269.624C441.223 267.288 442.135 265.432 443.799 264.056C445.463 262.648 447.575 261.944 450.135 261.944ZM449.655 282.152C450.391 282.152 451.047 281.912 451.623 281.432C452.231 280.92 452.535 280.248 452.535 279.416V277.16C452.535 277 452.455 276.92 452.295 276.92H450.327C449.463 276.92 448.759 277.176 448.215 277.688C447.703 278.168 447.447 278.84 447.447 279.704C447.447 280.504 447.639 281.112 448.023 281.528C448.439 281.944 448.983 282.152 449.655 282.152ZM470.885 287.336C468.165 287.336 465.989 286.696 464.357 285.416C462.757 284.104 461.957 282.36 461.957 280.184V279.848C461.957 279.688 462.005 279.56 462.101 279.464C462.229 279.336 462.373 279.272 462.533 279.272H467.813C467.973 279.272 468.101 279.336 468.197 279.464C468.325 279.56 468.389 279.688 468.389 279.848V279.992C468.389 280.664 468.629 281.224 469.109 281.672C469.589 282.088 470.181 282.296 470.885 282.296C471.525 282.296 472.021 282.12 472.373 281.768C472.757 281.384 472.949 280.904 472.949 280.328C472.949 279.624 472.645 279.08 472.037 278.696C471.429 278.28 470.741 277.944 469.973 277.688C469.237 277.4 468.725 277.208 468.437 277.112C466.677 276.472 465.189 275.592 463.973 274.472C462.789 273.32 462.197 271.672 462.197 269.528C462.197 267.192 462.965 265.352 464.501 264.008C466.037 262.664 468.085 261.992 470.645 261.992C473.301 261.992 475.397 262.696 476.933 264.104C478.501 265.512 479.285 267.416 479.285 269.816C479.285 269.976 479.221 270.12 479.093 270.248C478.997 270.344 478.869 270.392 478.709 270.392H473.573C473.413 270.392 473.269 270.344 473.141 270.248C473.045 270.12 472.997 269.976 472.997 269.816V269.432C472.997 268.792 472.789 268.28 472.373 267.896C471.989 267.48 471.477 267.272 470.837 267.272C470.165 267.272 469.637 267.496 469.253 267.944C468.869 268.36 468.677 268.856 468.677 269.432C468.677 270.2 468.997 270.808 469.637 271.256C470.309 271.672 471.317 272.136 472.661 272.648C474.037 273.16 475.205 273.688 476.165 274.232C477.157 274.744 478.005 275.496 478.709 276.488C479.413 277.448 479.765 278.664 479.765 280.136C479.765 282.344 478.949 284.104 477.317 285.416C475.717 286.696 473.573 287.336 470.885 287.336ZM503.539 261.944C505.747 261.944 507.411 262.664 508.531 264.104C509.683 265.512 510.259 267.464 510.259 269.96V279.32C510.259 281.912 509.683 283.912 508.531 285.32C507.379 286.696 505.715 287.384 503.539 287.384C502.835 287.384 502.099 287.256 501.331 287C500.563 286.712 499.859 286.216 499.219 285.512C499.155 285.416 499.091 285.384 499.027 285.416C498.963 285.448 498.931 285.512 498.931 285.608V295.352C498.931 295.512 498.867 295.64 498.739 295.736C498.643 295.864 498.515 295.928 498.355 295.928H492.739C492.579 295.928 492.435 295.864 492.307 295.736C492.211 295.64 492.163 295.512 492.163 295.352V262.904C492.163 262.744 492.211 262.616 492.307 262.52C492.435 262.392 492.579 262.328 492.739 262.328H498.355C498.515 262.328 498.643 262.392 498.739 262.52C498.867 262.616 498.931 262.744 498.931 262.904V263.672C498.931 263.736 498.963 263.768 499.027 263.768C499.155 263.768 499.283 263.688 499.411 263.528C500.499 262.472 501.875 261.944 503.539 261.944ZM503.491 270.488C503.491 269.656 503.283 268.984 502.867 268.472C502.451 267.96 501.891 267.704 501.187 267.704C500.515 267.704 499.971 267.96 499.555 268.472C499.139 268.984 498.931 269.656 498.931 270.488V278.792C498.931 279.624 499.139 280.296 499.555 280.808C499.971 281.32 500.515 281.576 501.187 281.576C501.891 281.576 502.451 281.32 502.867 280.808C503.283 280.296 503.491 279.624 503.491 278.792V270.488ZM522.319 287.384C519.471 287.384 517.231 286.664 515.599 285.224C513.999 283.784 513.199 281.816 513.199 279.32V270.008C513.199 267.576 514.015 265.624 515.647 264.152C517.279 262.68 519.503 261.944 522.319 261.944C525.167 261.944 527.407 262.68 529.039 264.152C530.671 265.624 531.487 267.576 531.487 270.008V279.32C531.487 281.816 530.671 283.784 529.039 285.224C527.439 286.664 525.199 287.384 522.319 287.384ZM522.319 281.528C523.023 281.528 523.599 281.272 524.047 280.76C524.495 280.248 524.719 279.592 524.719 278.792V270.488C524.719 269.688 524.495 269.032 524.047 268.52C523.599 268.008 523.023 267.752 522.319 267.752C521.615 267.752 521.039 268.008 520.591 268.52C520.175 269.032 519.967 269.688 519.967 270.488V278.792C519.967 279.592 520.175 280.248 520.591 280.76C521.039 281.272 521.615 281.528 522.319 281.528ZM535.153 287C534.993 287 534.849 286.952 534.721 286.856C534.625 286.728 534.577 286.584 534.577 286.424V253.976C534.577 253.816 534.625 253.688 534.721 253.592C534.849 253.464 534.993 253.4 535.153 253.4H540.769C540.929 253.4 541.057 253.464 541.153 253.592C541.281 253.688 541.345 253.816 541.345 253.976V286.424C541.345 286.584 541.281 286.728 541.153 286.856C541.057 286.952 540.929 287 540.769 287H535.153ZM555.841 262.904C555.841 262.744 555.889 262.616 555.985 262.52C556.113 262.392 556.257 262.328 556.417 262.328H562.033C562.193 262.328 562.321 262.392 562.417 262.52C562.545 262.616 562.609 262.744 562.609 262.904V286.424C562.609 286.584 562.545 286.728 562.417 286.856C562.321 286.952 562.193 287 562.033 287H556.417C556.257 287 556.113 286.952 555.985 286.856C555.889 286.728 555.841 286.584 555.841 286.424V285.608C555.841 285.512 555.809 285.448 555.745 285.416C555.681 285.384 555.617 285.416 555.553 285.512C555.073 286.184 554.465 286.664 553.729 286.952C553.025 287.208 552.193 287.336 551.233 287.336C549.313 287.336 547.729 286.76 546.481 285.608C545.233 284.424 544.609 282.616 544.609 280.184V262.904C544.609 262.744 544.657 262.616 544.753 262.52C544.881 262.392 545.025 262.328 545.185 262.328H550.801C550.961 262.328 551.089 262.392 551.185 262.52C551.313 262.616 551.377 262.744 551.377 262.904V278.696C551.377 279.624 551.553 280.344 551.905 280.856C552.289 281.336 552.833 281.576 553.537 281.576C554.241 281.576 554.801 281.304 555.217 280.76C555.633 280.216 555.841 279.48 555.841 278.552V262.904ZM569.677 259.544C568.589 259.544 567.677 259.192 566.941 258.488C566.237 257.752 565.885 256.84 565.885 255.752C565.885 254.632 566.237 253.72 566.941 253.016C567.645 252.312 568.557 251.96 569.677 251.96C570.797 251.96 571.693 252.312 572.365 253.016C573.069 253.72 573.421 254.632 573.421 255.752C573.421 256.84 573.069 257.752 572.365 258.488C571.661 259.192 570.765 259.544 569.677 259.544ZM566.941 287C566.781 287 566.637 286.952 566.509 286.856C566.413 286.728 566.365 286.584 566.365 286.424V262.904C566.365 262.744 566.413 262.616 566.509 262.52C566.637 262.392 566.781 262.328 566.941 262.328H572.557C572.717 262.328 572.845 262.392 572.941 262.52C573.069 262.616 573.133 262.744 573.133 262.904V286.424C573.133 286.584 573.069 286.728 572.941 286.856C572.845 286.952 572.717 287 572.557 287H566.941ZM594.577 270.584C594.577 270.744 594.513 270.888 594.385 271.016C594.289 271.112 594.161 271.16 594.001 271.16L588.385 271.4C588.001 271.4 587.809 271.208 587.809 270.824V270.248C587.809 269.544 587.585 268.952 587.137 268.472C586.721 267.992 586.177 267.752 585.505 267.752C584.801 267.752 584.241 268.008 583.825 268.52C583.409 269.032 583.201 269.704 583.201 270.536V278.792C583.201 279.624 583.409 280.296 583.825 280.808C584.241 281.32 584.801 281.576 585.505 281.576C586.177 281.576 586.721 281.336 587.137 280.856C587.585 280.344 587.809 279.752 587.809 279.08V278.456C587.809 278.296 587.857 278.168 587.953 278.072C588.081 277.944 588.225 277.88 588.385 277.88L594.001 277.928C594.161 277.928 594.289 277.992 594.385 278.12C594.513 278.216 594.577 278.344 594.577 278.504V279.608C594.577 281.592 594.001 283.256 592.849 284.6C591.729 285.912 590.129 286.776 588.049 287.192C587.857 287.256 587.825 287.352 587.953 287.48C589.073 288.792 589.633 290.184 589.633 291.656C589.633 292.104 589.585 292.52 589.489 292.904C589.233 293.992 588.721 294.76 587.953 295.208C587.217 295.656 586.353 295.88 585.361 295.88C584.529 295.88 583.777 295.768 583.105 295.544C582.785 295.448 582.641 295.224 582.673 294.872L582.961 292.664C582.993 292.312 583.217 292.168 583.633 292.232C584.017 292.296 584.353 292.216 584.641 291.992C584.929 291.8 585.137 291.48 585.265 291.032C585.457 290.008 584.817 288.76 583.345 287.288L583.105 287.144C580.993 286.76 579.345 285.896 578.161 284.552C577.009 283.176 576.433 281.432 576.433 279.32V270.008C576.433 267.576 577.233 265.624 578.833 264.152C580.465 262.68 582.689 261.944 585.505 261.944C588.321 261.944 590.529 262.664 592.129 264.104C593.761 265.544 594.577 267.416 594.577 269.72V270.584ZM606.366 287.384C603.518 287.384 601.278 286.664 599.646 285.224C598.046 283.784 597.246 281.816 597.246 279.32V270.008C597.246 267.576 598.062 265.624 599.694 264.152C601.326 262.68 603.55 261.944 606.366 261.944C609.214 261.944 611.454 262.68 613.086 264.152C614.718 265.624 615.534 267.576 615.534 270.008V279.32C615.534 281.816 614.718 283.784 613.086 285.224C611.486 286.664 609.246 287.384 606.366 287.384ZM606.366 281.528C607.07 281.528 607.646 281.272 608.094 280.76C608.542 280.248 608.766 279.592 608.766 278.792V270.488C608.766 269.688 608.542 269.032 608.094 268.52C607.646 268.008 607.07 267.752 606.366 267.752C605.662 267.752 605.086 268.008 604.638 268.52C604.222 269.032 604.014 269.688 604.014 270.488V278.792C604.014 279.592 604.222 280.248 604.638 280.76C605.086 281.272 605.662 281.528 606.366 281.528ZM609.63 258.872C608.958 258.872 608.094 258.584 607.038 258.008C606.75 257.88 606.414 257.704 606.03 257.48C605.678 257.256 605.342 257.144 605.022 257.144C604.318 257.144 603.742 257.496 603.294 258.2C603.07 258.52 602.798 258.584 602.478 258.392L600.462 256.952C600.206 256.76 600.126 256.504 600.222 256.184C600.638 255.064 601.214 254.232 601.95 253.688C602.718 253.144 603.55 252.872 604.446 252.872C605.406 252.872 606.43 253.24 607.518 253.976C607.582 254.04 607.742 254.152 607.998 254.312C608.254 254.472 608.494 254.6 608.718 254.696C608.974 254.792 609.23 254.84 609.486 254.84C610.222 254.84 610.798 254.52 611.214 253.88C611.438 253.496 611.71 253.416 612.03 253.64L613.95 254.984C614.11 255.08 614.19 255.224 614.19 255.416C614.19 255.608 614.11 255.832 613.95 256.088C613.406 257.048 612.734 257.752 611.934 258.2C611.166 258.648 610.398 258.872 609.63 258.872ZM636.624 276.2C636.624 276.36 636.56 276.504 636.432 276.632C636.336 276.728 636.208 276.776 636.048 276.776H625.488C625.328 276.776 625.248 276.856 625.248 277.016V278.792C625.248 279.592 625.456 280.264 625.872 280.808C626.32 281.32 626.88 281.576 627.552 281.576C628.16 281.576 628.656 281.384 629.04 281C629.424 280.584 629.68 280.072 629.808 279.464C629.904 279.144 630.112 278.984 630.432 278.984L635.952 279.272C636.112 279.272 636.24 279.336 636.336 279.464C636.464 279.56 636.512 279.704 636.48 279.896C636.256 282.36 635.392 284.232 633.888 285.512C632.416 286.76 630.304 287.384 627.552 287.384C624.704 287.384 622.48 286.68 620.88 285.272C619.28 283.832 618.48 281.848 618.48 279.32V270.008C618.48 267.576 619.28 265.624 620.88 264.152C622.512 262.68 624.736 261.944 627.552 261.944C630.368 261.944 632.576 262.68 634.176 264.152C635.808 265.624 636.624 267.576 636.624 270.008V276.2ZM627.552 267.752C626.88 267.752 626.32 268.008 625.872 268.52C625.456 269.032 625.248 269.688 625.248 270.488V272.36C625.248 272.52 625.328 272.6 625.488 272.6H629.616C629.776 272.6 629.856 272.52 629.856 272.36V270.488C629.856 269.688 629.632 269.032 629.184 268.52C628.768 268.008 628.224 267.752 627.552 267.752ZM647.932 287.336C645.212 287.336 643.036 286.696 641.404 285.416C639.804 284.104 639.004 282.36 639.004 280.184V279.848C639.004 279.688 639.052 279.56 639.148 279.464C639.276 279.336 639.42 279.272 639.58 279.272H644.86C645.02 279.272 645.148 279.336 645.244 279.464C645.372 279.56 645.436 279.688 645.436 279.848V279.992C645.436 280.664 645.676 281.224 646.156 281.672C646.636 282.088 647.228 282.296 647.932 282.296C648.572 282.296 649.068 282.12 649.42 281.768C649.804 281.384 649.996 280.904 649.996 280.328C649.996 279.624 649.692 279.08 649.084 278.696C648.476 278.28 647.788 277.944 647.02 277.688C646.284 277.4 645.772 277.208 645.484 277.112C643.724 276.472 642.236 275.592 641.02 274.472C639.836 273.32 639.244 271.672 639.244 269.528C639.244 267.192 640.012 265.352 641.548 264.008C643.084 262.664 645.132 261.992 647.692 261.992C650.348 261.992 652.444 262.696 653.98 264.104C655.548 265.512 656.332 267.416 656.332 269.816C656.332 269.976 656.268 270.12 656.14 270.248C656.044 270.344 655.916 270.392 655.756 270.392H650.62C650.46 270.392 650.316 270.344 650.188 270.248C650.092 270.12 650.044 269.976 650.044 269.816V269.432C650.044 268.792 649.836 268.28 649.42 267.896C649.036 267.48 648.524 267.272 647.884 267.272C647.212 267.272 646.684 267.496 646.3 267.944C645.916 268.36 645.724 268.856 645.724 269.432C645.724 270.2 646.044 270.808 646.684 271.256C647.356 271.672 648.364 272.136 649.708 272.648C651.084 273.16 652.252 273.688 653.212 274.232C654.204 274.744 655.052 275.496 655.756 276.488C656.46 277.448 656.812 278.664 656.812 280.136C656.812 282.344 655.996 284.104 654.364 285.416C652.764 286.696 650.62 287.336 647.932 287.336ZM686.874 276.2C686.874 276.36 686.81 276.504 686.682 276.632C686.586 276.728 686.458 276.776 686.298 276.776H675.738C675.578 276.776 675.498 276.856 675.498 277.016V278.792C675.498 279.592 675.706 280.264 676.122 280.808C676.57 281.32 677.13 281.576 677.802 281.576C678.41 281.576 678.906 281.384 679.29 281C679.674 280.584 679.93 280.072 680.058 279.464C680.154 279.144 680.362 278.984 680.682 278.984L686.202 279.272C686.362 279.272 686.49 279.336 686.586 279.464C686.714 279.56 686.762 279.704 686.73 279.896C686.506 282.36 685.642 284.232 684.138 285.512C682.666 286.76 680.554 287.384 677.802 287.384C674.954 287.384 672.73 286.68 671.13 285.272C669.53 283.832 668.73 281.848 668.73 279.32V270.008C668.73 267.576 669.53 265.624 671.13 264.152C672.762 262.68 674.986 261.944 677.802 261.944C680.618 261.944 682.826 262.68 684.426 264.152C686.058 265.624 686.874 267.576 686.874 270.008V276.2ZM677.802 267.752C677.13 267.752 676.57 268.008 676.122 268.52C675.706 269.032 675.498 269.688 675.498 270.488V272.36C675.498 272.52 675.578 272.6 675.738 272.6H679.866C680.026 272.6 680.106 272.52 680.106 272.36V270.488C680.106 269.688 679.882 269.032 679.434 268.52C679.018 268.008 678.474 267.752 677.802 267.752ZM675.114 259.352C674.89 259.352 674.73 259.288 674.634 259.16C674.538 259.032 674.554 258.872 674.682 258.68L677.514 253.784C677.642 253.528 677.882 253.4 678.234 253.4H682.698C683.018 253.4 683.178 253.512 683.178 253.736C683.178 253.832 683.13 253.96 683.034 254.12L679.338 259.016C679.146 259.24 678.922 259.352 678.666 259.352H675.114ZM708.51 261.944C711.23 261.944 713.438 262.68 715.134 264.152C716.83 265.624 717.678 267.56 717.678 269.96V286.424C717.678 286.584 717.614 286.728 717.486 286.856C717.39 286.952 717.262 287 717.102 287H711.486C711.326 287 711.182 286.952 711.054 286.856C710.958 286.728 710.91 286.584 710.91 286.424V285.368C710.91 285.272 710.878 285.208 710.814 285.176C710.75 285.144 710.686 285.176 710.622 285.272C709.566 286.616 707.934 287.32 705.726 287.384C703.87 287.384 702.254 286.872 700.878 285.848C699.534 284.824 698.862 282.872 698.862 279.992C698.862 277.016 699.678 274.968 701.31 273.848C702.974 272.728 705.358 272.168 708.462 272.168H710.67C710.83 272.168 710.91 272.088 710.91 271.928V270.728C710.91 269.864 710.67 269.16 710.19 268.616C709.742 268.04 709.166 267.752 708.462 267.752C707.918 267.752 707.454 267.928 707.07 268.28C706.718 268.6 706.494 269.064 706.398 269.672C706.366 270.056 706.158 270.248 705.774 270.248L700.014 270.2C699.63 270.2 699.438 270.008 699.438 269.624C699.598 267.288 700.51 265.432 702.174 264.056C703.838 262.648 705.95 261.944 708.51 261.944ZM708.03 282.152C708.766 282.152 709.422 281.912 709.998 281.432C710.606 280.92 710.91 280.248 710.91 279.416V277.16C710.91 277 710.83 276.92 710.67 276.92H708.702C707.838 276.92 707.134 277.176 706.59 277.688C706.078 278.168 705.822 278.84 705.822 279.704C705.822 280.504 706.014 281.112 706.398 281.528C706.814 281.944 707.358 282.152 708.03 282.152ZM742.133 261.944C744.341 261.944 746.005 262.664 747.125 264.104C748.277 265.512 748.853 267.464 748.853 269.96V279.32C748.853 281.912 748.277 283.912 747.125 285.32C745.973 286.696 744.309 287.384 742.133 287.384C741.429 287.384 740.693 287.256 739.925 287C739.157 286.712 738.453 286.216 737.813 285.512C737.749 285.416 737.685 285.384 737.621 285.416C737.557 285.448 737.525 285.512 737.525 285.608V295.352C737.525 295.512 737.461 295.64 737.333 295.736C737.237 295.864 737.109 295.928 736.949 295.928H731.333C731.173 295.928 731.029 295.864 730.901 295.736C730.805 295.64 730.757 295.512 730.757 295.352V262.904C730.757 262.744 730.805 262.616 730.901 262.52C731.029 262.392 731.173 262.328 731.333 262.328H736.949C737.109 262.328 737.237 262.392 737.333 262.52C737.461 262.616 737.525 262.744 737.525 262.904V263.672C737.525 263.736 737.557 263.768 737.621 263.768C737.749 263.768 737.877 263.688 738.005 263.528C739.093 262.472 740.469 261.944 742.133 261.944ZM742.085 270.488C742.085 269.656 741.877 268.984 741.461 268.472C741.045 267.96 740.485 267.704 739.781 267.704C739.109 267.704 738.565 267.96 738.149 268.472C737.733 268.984 737.525 269.656 737.525 270.488V278.792C737.525 279.624 737.733 280.296 738.149 280.808C738.565 281.32 739.109 281.576 739.781 281.576C740.485 281.576 741.045 281.32 741.461 280.808C741.877 280.296 742.085 279.624 742.085 278.792V270.488ZM755.537 259.544C754.449 259.544 753.537 259.192 752.801 258.488C752.097 257.752 751.745 256.84 751.745 255.752C751.745 254.632 752.097 253.72 752.801 253.016C753.505 252.312 754.417 251.96 755.537 251.96C756.657 251.96 757.553 252.312 758.225 253.016C758.929 253.72 759.281 254.632 759.281 255.752C759.281 256.84 758.929 257.752 758.225 258.488C757.521 259.192 756.625 259.544 755.537 259.544ZM752.801 287C752.641 287 752.497 286.952 752.369 286.856C752.273 286.728 752.225 286.584 752.225 286.424V262.904C752.225 262.744 752.273 262.616 752.369 262.52C752.497 262.392 752.641 262.328 752.801 262.328H758.417C758.577 262.328 758.705 262.392 758.801 262.52C758.929 262.616 758.993 262.744 758.993 262.904V286.424C758.993 286.584 758.929 286.728 758.801 286.856C758.705 286.952 758.577 287 758.417 287H752.801ZM771.413 287.384C768.565 287.384 766.325 286.664 764.693 285.224C763.093 283.784 762.293 281.816 762.293 279.32V270.008C762.293 267.576 763.109 265.624 764.741 264.152C766.373 262.68 768.597 261.944 771.413 261.944C774.261 261.944 776.501 262.68 778.133 264.152C779.765 265.624 780.581 267.576 780.581 270.008V279.32C780.581 281.816 779.765 283.784 778.133 285.224C776.533 286.664 774.293 287.384 771.413 287.384ZM771.413 281.528C772.117 281.528 772.693 281.272 773.141 280.76C773.589 280.248 773.813 279.592 773.813 278.792V270.488C773.813 269.688 773.589 269.032 773.141 268.52C772.693 268.008 772.117 267.752 771.413 267.752C770.709 267.752 770.133 268.008 769.685 268.52C769.269 269.032 769.061 269.688 769.061 270.488V278.792C769.061 279.592 769.269 280.248 769.685 280.76C770.133 281.272 770.709 281.528 771.413 281.528ZM794.903 262.04C795.767 262.04 796.439 262.2 796.919 262.52C797.175 262.68 797.271 262.92 797.207 263.24L796.295 268.856C796.263 269.208 796.039 269.336 795.623 269.24C795.271 269.112 794.839 269.048 794.327 269.048C793.847 269.048 793.431 269.112 793.079 269.24C792.343 269.368 791.751 269.816 791.303 270.584C790.855 271.32 790.631 272.184 790.631 273.176V286.376C790.631 286.536 790.567 286.68 790.439 286.808C790.343 286.904 790.215 286.952 790.055 286.952H784.439C784.279 286.952 784.135 286.904 784.007 286.808C783.911 286.68 783.863 286.536 783.863 286.376V262.904C783.863 262.744 783.911 262.616 784.007 262.52C784.135 262.392 784.279 262.328 784.439 262.328H790.055C790.215 262.328 790.343 262.392 790.439 262.52C790.567 262.616 790.631 262.744 790.631 262.904V264.776C790.631 264.904 790.647 264.984 790.679 265.016C790.743 265.016 790.807 264.968 790.871 264.872C791.735 262.984 793.079 262.04 794.903 262.04ZM804.658 276.344C804.498 276.344 804.354 276.296 804.226 276.2C804.13 276.072 804.082 275.928 804.082 275.768V274.232C804.082 272.632 804.402 271.352 805.042 270.392C805.714 269.4 806.674 268.36 807.922 267.272C808.946 266.376 809.698 265.608 810.178 264.968C810.658 264.296 810.898 263.48 810.898 262.52C810.898 261.496 810.642 260.68 810.13 260.072C809.65 259.432 809.01 259.112 808.21 259.112C807.282 259.112 806.546 259.448 806.002 260.12C805.458 260.76 805.186 261.624 805.186 262.712V263.48C805.186 263.832 804.994 264.008 804.61 264.008L798.994 263.768C798.834 263.768 798.69 263.72 798.562 263.624C798.466 263.496 798.418 263.352 798.418 263.192V262.712C798.418 260.792 798.834 259.096 799.666 257.624C800.498 256.12 801.666 254.968 803.17 254.168C804.674 253.336 806.402 252.92 808.354 252.92C811.202 252.92 813.474 253.784 815.17 255.512C816.866 257.208 817.714 259.464 817.714 262.28C817.714 263.688 817.506 264.904 817.09 265.928C816.706 266.92 816.226 267.736 815.65 268.376C815.106 269.016 814.386 269.72 813.49 270.488C812.562 271.288 811.874 271.976 811.426 272.552C811.01 273.128 810.802 273.832 810.802 274.664V275.768C810.802 275.928 810.738 276.072 810.61 276.2C810.514 276.296 810.386 276.344 810.226 276.344H804.658ZM807.442 287.096C806.354 287.096 805.458 286.744 804.754 286.04C804.05 285.336 803.698 284.424 803.698 283.304C803.698 282.184 804.05 281.288 804.754 280.616C805.458 279.912 806.354 279.56 807.442 279.56C808.562 279.56 809.474 279.912 810.178 280.616C810.882 281.32 811.234 282.216 811.234 283.304C811.234 284.392 810.882 285.304 810.178 286.04C809.474 286.744 808.562 287.096 807.442 287.096Z" fill="white"/>
<defs>
<filter id="filter0_d_57_639" x="0" y="0" width="1016" height="746" filterUnits="userSpaceOnUse" color-interpolation-filters="sRGB">
<feFlood flood-opacity="0" result="BackgroundImageFix"/>
<feColorMatrix in="SourceAlpha" type="matrix" values="0 0 0 0 0 0 0 0 0 0 0 0 0 0 0 0 0 0 127 0" result="hardAlpha"/>
<feOffset dy="4"/>
<feGaussianBlur stdDeviation="2"/>
<feComposite in2="hardAlpha" operator="out"/>
<feColorMatrix type="matrix" values="0 0 0 0 0 0 0 0 0 0 0 0 0 0 0 0 0 0 0.25 0"/>
<feBlend mode="normal" in2="BackgroundImageFix" result="effect1_dropShadow_57_639"/>
<feBlend mode="normal" in="SourceGraphic" in2="effect1_dropShadow_57_639" result="shape"/>
</filter>
</defs>
</svg>
