<svg xmlns="http://www.w3.org/2000/svg" xmlns:xlink="http://www.w3.org/1999/xlink" width="500" zoomAndPan="magnify" viewBox="0 0 375 374.999991" height="500" preserveAspectRatio="xMidYMid meet" version="1.0"><defs><clipPath id="e739c4c592"><path d="M 2.011719 0 L 374.761719 0 L 374.761719 372.75 L 2.011719 372.75 Z M 2.011719 0 " clip-rule="nonzero"/></clipPath></defs><g clip-path="url(#e739c4c592)"><path fill="#59e78b" d="M 374.761719 186.375 C 374.761719 189.425781 374.6875 192.472656 374.535156 195.519531 C 374.386719 198.566406 374.164062 201.609375 373.863281 204.644531 C 373.5625 207.679688 373.191406 210.703125 372.742188 213.722656 C 372.296875 216.738281 371.773438 219.742188 371.179688 222.734375 C 370.585938 225.726562 369.917969 228.703125 369.175781 231.660156 C 368.433594 234.621094 367.621094 237.558594 366.734375 240.476562 C 365.851562 243.394531 364.894531 246.289062 363.867188 249.164062 C 362.839844 252.035156 361.742188 254.878906 360.574219 257.699219 C 359.40625 260.515625 358.171875 263.304688 356.867188 266.0625 C 355.5625 268.816406 354.191406 271.542969 352.753906 274.230469 C 351.316406 276.921875 349.8125 279.574219 348.246094 282.191406 C 346.675781 284.808594 345.046875 287.382812 343.351562 289.917969 C 341.65625 292.457031 339.902344 294.949219 338.082031 297.398438 C 336.265625 299.847656 334.390625 302.253906 332.457031 304.609375 C 330.519531 306.96875 328.527344 309.277344 326.480469 311.535156 C 324.433594 313.796875 322.328125 316.003906 320.171875 318.160156 C 318.015625 320.320312 315.808594 322.421875 313.546875 324.46875 C 311.289062 326.519531 308.980469 328.511719 306.621094 330.445312 C 304.261719 332.378906 301.859375 334.253906 299.410156 336.074219 C 296.960938 337.890625 294.464844 339.644531 291.929688 341.339844 C 289.394531 343.035156 286.816406 344.667969 284.203125 346.234375 C 281.585938 347.800781 278.933594 349.304688 276.242188 350.742188 C 273.550781 352.179688 270.828125 353.550781 268.070312 354.855469 C 265.3125 356.160156 262.527344 357.394531 259.707031 358.5625 C 256.890625 359.730469 254.046875 360.828125 251.171875 361.855469 C 248.300781 362.882812 245.40625 363.839844 242.488281 364.726562 C 239.570312 365.609375 236.628906 366.421875 233.671875 367.164062 C 230.710938 367.90625 227.738281 368.574219 224.746094 369.167969 C 221.753906 369.765625 218.75 370.285156 215.734375 370.734375 C 212.714844 371.179688 209.6875 371.554688 206.652344 371.851562 C 203.617188 372.152344 200.578125 372.375 197.53125 372.527344 C 194.484375 372.675781 191.4375 372.75 188.386719 372.75 C 185.335938 372.75 182.289062 372.675781 179.242188 372.527344 C 176.195312 372.375 173.152344 372.152344 170.117188 371.851562 C 167.082031 371.554688 164.054688 371.179688 161.039062 370.734375 C 158.023438 370.285156 155.015625 369.765625 152.027344 369.167969 C 149.035156 368.574219 146.058594 367.90625 143.101562 367.164062 C 140.140625 366.421875 137.203125 365.609375 134.285156 364.726562 C 131.363281 363.839844 128.46875 362.882812 125.597656 361.855469 C 122.726562 360.828125 119.882812 359.730469 117.0625 358.5625 C 114.246094 357.394531 111.457031 356.160156 108.699219 354.855469 C 105.941406 353.550781 103.21875 352.179688 100.527344 350.742188 C 97.839844 349.304688 95.1875 347.800781 92.570312 346.234375 C 89.953125 344.667969 87.378906 343.035156 84.839844 341.339844 C 82.304688 339.644531 79.8125 337.890625 77.363281 336.074219 C 74.914062 334.253906 72.507812 332.378906 70.152344 330.445312 C 67.792969 328.511719 65.484375 326.519531 63.222656 324.46875 C 60.964844 322.421875 58.753906 320.320312 56.597656 318.160156 C 54.441406 316.003906 52.339844 313.796875 50.289062 311.535156 C 48.242188 309.277344 46.25 306.96875 44.316406 304.609375 C 42.382812 302.253906 40.503906 299.847656 38.6875 297.398438 C 36.871094 294.949219 35.113281 292.457031 33.421875 289.917969 C 31.726562 287.382812 30.09375 284.808594 28.527344 282.191406 C 26.957031 279.574219 25.457031 276.921875 24.019531 274.230469 C 22.578125 271.542969 21.207031 268.816406 19.90625 266.0625 C 18.601562 263.304688 17.363281 260.515625 16.199219 257.699219 C 15.03125 254.878906 13.933594 252.035156 12.90625 249.164062 C 11.878906 246.289062 10.921875 243.394531 10.035156 240.476562 C 9.152344 237.558594 8.335938 234.621094 7.597656 231.660156 C 6.855469 228.703125 6.1875 225.726562 5.59375 222.734375 C 4.996094 219.742188 4.476562 216.738281 4.027344 213.722656 C 3.582031 210.703125 3.207031 207.679688 2.90625 204.644531 C 2.609375 201.609375 2.386719 198.566406 2.234375 195.519531 C 2.085938 192.472656 2.011719 189.425781 2.011719 186.375 C 2.011719 183.324219 2.085938 180.277344 2.234375 177.230469 C 2.386719 174.183594 2.609375 171.140625 2.90625 168.105469 C 3.207031 165.070312 3.582031 162.046875 4.027344 159.027344 C 4.476562 156.011719 4.996094 153.007812 5.59375 150.015625 C 6.1875 147.023438 6.855469 144.046875 7.597656 141.089844 C 8.335938 138.128906 9.152344 135.191406 10.035156 132.273438 C 10.921875 129.355469 11.878906 126.460938 12.90625 123.585938 C 13.933594 120.714844 15.03125 117.871094 16.199219 115.050781 C 17.363281 112.234375 18.601562 109.445312 19.90625 106.6875 C 21.207031 103.933594 22.578125 101.207031 24.019531 98.519531 C 25.457031 95.828125 26.957031 93.175781 28.527344 90.558594 C 30.09375 87.941406 31.726562 85.367188 33.421875 82.832031 C 35.113281 80.292969 36.871094 77.800781 38.6875 75.351562 C 40.503906 72.902344 42.382812 70.496094 44.316406 68.140625 C 46.25 65.78125 48.242188 63.472656 50.289062 61.214844 C 52.339844 58.953125 54.441406 56.746094 56.597656 54.589844 C 58.753906 52.429688 60.964844 50.328125 63.222656 48.28125 C 65.484375 46.230469 67.792969 44.238281 70.152344 42.304688 C 72.507812 40.371094 74.914062 38.496094 77.363281 36.675781 C 79.8125 34.859375 82.304688 33.105469 84.839844 31.410156 C 87.378906 29.714844 89.953125 28.082031 92.570312 26.515625 C 95.1875 24.949219 97.839844 23.445312 100.527344 22.007812 C 103.21875 20.570312 105.941406 19.199219 108.699219 17.894531 C 111.457031 16.589844 114.246094 15.355469 117.0625 14.1875 C 119.882812 13.019531 122.726562 11.921875 125.597656 10.894531 C 128.46875 9.867188 131.363281 8.910156 134.285156 8.023438 C 137.203125 7.140625 140.140625 6.328125 143.101562 5.585938 C 146.058594 4.84375 149.035156 4.175781 152.027344 3.582031 C 155.015625 2.984375 158.023438 2.464844 161.039062 2.015625 C 164.054688 1.570312 167.082031 1.195312 170.117188 0.898438 C 173.152344 0.597656 176.195312 0.375 179.242188 0.222656 C 182.289062 0.0742188 185.335938 0 188.386719 0 C 191.4375 0 194.484375 0.0742188 197.53125 0.222656 C 200.578125 0.375 203.617188 0.597656 206.652344 0.898438 C 209.6875 1.195312 212.714844 1.570312 215.734375 2.015625 C 218.75 2.464844 221.753906 2.984375 224.746094 3.582031 C 227.738281 4.175781 230.710938 4.84375 233.671875 5.585938 C 236.628906 6.328125 239.570312 7.140625 242.488281 8.023438 C 245.40625 8.910156 248.300781 9.867188 251.171875 10.894531 C 254.046875 11.921875 256.890625 13.019531 259.707031 14.1875 C 262.527344 15.355469 265.3125 16.589844 268.070312 17.894531 C 270.828125 19.199219 273.550781 20.570312 276.242188 22.007812 C 278.933594 23.445312 281.585938 24.949219 284.203125 26.515625 C 286.816406 28.082031 289.394531 29.714844 291.929688 31.410156 C 294.464844 33.105469 296.960938 34.859375 299.410156 36.675781 C 301.859375 38.496094 304.261719 40.371094 306.621094 42.304688 C 308.980469 44.238281 311.289062 46.230469 313.546875 48.28125 C 315.808594 50.328125 318.015625 52.429688 320.171875 54.589844 C 322.328125 56.746094 324.433594 58.953125 326.480469 61.214844 C 328.527344 63.472656 330.519531 65.78125 332.457031 68.140625 C 334.390625 70.496094 336.265625 72.902344 338.082031 75.351562 C 339.902344 77.800781 341.65625 80.292969 343.351562 82.832031 C 345.046875 85.367188 346.675781 87.941406 348.246094 90.558594 C 349.8125 93.175781 351.316406 95.828125 352.753906 98.519531 C 354.191406 101.207031 355.5625 103.933594 356.867188 106.6875 C 358.171875 109.445312 359.40625 112.234375 360.574219 115.050781 C 361.742188 117.871094 362.839844 120.714844 363.867188 123.585938 C 364.894531 126.460938 365.851562 129.355469 366.734375 132.273438 C 367.621094 135.191406 368.433594 138.128906 369.175781 141.089844 C 369.917969 144.046875 370.585938 147.023438 371.179688 150.015625 C 371.773438 153.007812 372.296875 156.011719 372.742188 159.027344 C 373.191406 162.046875 373.5625 165.070312 373.863281 168.105469 C 374.164062 171.140625 374.386719 174.183594 374.535156 177.230469 C 374.6875 180.277344 374.761719 183.324219 374.761719 186.375 Z M 374.761719 186.375 " fill-opacity="1" fill-rule="nonzero"/></g><path stroke-linecap="round" transform="matrix(7.455, 0, 0, 7.455, 2.010728, 0.000000000000021316)" fill="none" stroke-linejoin="round" d="M 25.000133 39.583333 L 25.000133 10.416667 " stroke="#000000" stroke-width="5" stroke-opacity="1" stroke-miterlimit="4"/><path stroke-linecap="round" transform="matrix(7.455, 0, 0, 7.455, 2.010728, 0.000000000000021316)" fill="none" stroke-linejoin="round" d="M 10.4168 25 L 25.000133 10.416667 L 39.583466 25 " stroke="#000000" stroke-width="5" stroke-opacity="1" stroke-miterlimit="4"/></svg>