<svg width="350" height="350" viewBox="0 0 350 350" fill="none" xmlns="http://www.w3.org/2000/svg">
<path d="M311.35 88.1599C312.448 89.4359 313.48 90.7594 314.449 92.1375C315.416 93.512 316.316 94.9339 317.144 96.3958C317.971 97.8615 318.726 99.3635 319.408 100.902C320.09 102.441 320.695 104.008 321.223 105.605C321.748 107.202 322.197 108.824 322.565 110.465C322.937 112.106 323.221 113.761 323.429 115.431C323.637 117.101 323.761 118.778 323.801 120.462C323.845 122.143 323.801 123.823 323.681 125.501C323.557 127.178 323.353 128.844 323.065 130.503C322.777 132.161 322.412 133.798 321.964 135.421C321.515 137.043 320.99 138.636 320.385 140.208C319.78 141.776 319.102 143.314 318.347 144.816C317.592 146.318 316.765 147.78 315.868 149.202C314.967 150.62 314.001 151.995 312.969 153.322C311.934 154.649 310.84 155.918 309.681 157.135C308.521 158.357 307.307 159.513 306.035 160.614C304.762 161.711 303.439 162.743 302.068 163.713C300.694 164.679 299.275 165.579 297.813 166.407C296.352 167.234 294.853 167.989 293.318 168.671C291.783 169.353 290.216 169.958 288.622 170.483C287.025 171.011 285.407 171.46 283.77 171.824C282.129 172.193 280.474 172.481 278.808 172.685C277.142 172.893 275.468 173.013 273.787 173.053C272.107 173.093 270.43 173.053 268.753 172.929C267.079 172.805 265.413 172.597 263.754 172.309C262.099 172.021 260.462 171.653 258.843 171.201C257.224 170.753 255.631 170.224 254.06 169.619C252.492 169.014 250.957 168.332 249.459 167.573C247.957 166.815 246.495 165.988 245.077 165.087C243.655 164.186 242.284 163.217 240.96 162.181C239.633 161.146 238.361 160.048 237.147 158.889C235.929 157.726 234.77 156.508 233.672 155.236C232.575 153.96 231.54 152.636 230.573 151.258C229.604 149.884 228.707 148.462 227.879 147C227.048 145.534 226.293 144.032 225.611 142.494C224.93 140.955 224.328 139.388 223.799 137.791C223.271 136.194 222.822 134.571 222.454 132.931C222.086 131.29 221.798 129.635 221.594 127.965C221.386 126.295 221.262 124.618 221.222 122.938C221.178 121.253 221.218 119.572 221.342 117.895C221.466 116.218 221.67 114.552 221.958 112.893C222.243 111.234 222.611 109.597 223.059 107.975C223.504 106.353 224.033 104.759 224.634 103.188C225.24 101.62 225.921 100.082 226.676 98.5797C227.431 97.0776 228.258 95.6156 229.155 94.1938C230.052 92.7755 231.018 91.401 232.054 90.074C233.085 88.7505 234.183 87.4781 235.342 86.2604C236.498 85.0427 237.716 83.8833 238.984 82.7859C240.257 81.6849 241.58 80.6531 242.955 79.6833C244.329 78.7172 245.744 77.8167 247.206 76.9891C248.668 76.1615 250.166 75.4068 251.705 74.725C253.24 74.0432 254.804 73.438 256.4 72.913C257.997 72.3844 259.612 71.9396 261.253 71.5714C262.894 71.2031 264.545 70.9151 266.215 70.7109C267.881 70.5068 269.555 70.3828 271.235 70.3427C272.916 70.3026 274.593 70.3427 276.267 70.4667C277.944 70.5906 279.61 70.7984 281.265 71.0865C282.92 71.3745 284.557 71.7427 286.18 72.1948C287.798 72.6432 289.392 73.1719 290.959 73.7771C292.527 74.3823 294.062 75.0641 295.564 75.8224C297.066 76.5807 298.524 77.4083 299.946 78.3089C301.365 79.2094 302.739 80.1792 304.062 81.2146C305.386 82.25 306.658 83.3474 307.876 84.5068C309.094 85.6698 310.249 86.8875 311.35 88.1599Z" fill="#808285"/>
<path d="M266.467 21.824C266.926 22.3562 267.356 22.9068 267.761 23.4828C268.166 24.0552 268.541 24.6495 268.887 25.262C269.23 25.8708 269.547 26.4979 269.832 27.1432C270.116 27.7849 270.368 28.4375 270.59 29.1047C270.809 29.7719 270.995 30.45 271.151 31.1354C271.305 31.8208 271.425 32.5099 271.509 33.2099C271.596 33.9062 271.647 34.6062 271.666 35.3062C271.684 36.0099 271.666 36.7099 271.615 37.4135C271.563 38.1135 271.476 38.8099 271.359 39.499C271.239 40.1917 271.086 40.8771 270.9 41.5552C270.71 42.2297 270.492 42.8969 270.24 43.5531C269.988 44.2094 269.704 44.8474 269.387 45.4745C269.073 46.1052 268.727 46.7141 268.351 47.3083C267.976 47.899 267.575 48.475 267.141 49.0292C266.711 49.5797 266.255 50.112 265.77 50.6187C265.285 51.1292 264.779 51.6141 264.25 52.0698C263.718 52.5292 263.163 52.9594 262.591 53.3641C262.019 53.7687 261.424 54.1443 260.816 54.4906C260.207 54.837 259.58 55.1505 258.938 55.4349C258.296 55.7193 257.644 55.9745 256.976 56.1932C256.313 56.412 255.635 56.5979 254.953 56.7547C254.268 56.9078 253.579 57.0281 252.882 57.112C252.186 57.1995 251.486 57.2505 250.786 57.2651C250.082 57.2833 249.382 57.2651 248.682 57.2141C247.982 57.163 247.286 57.0755 246.597 56.9552C245.904 56.8349 245.222 56.6818 244.544 56.4922C243.87 56.3062 243.203 56.0839 242.55 55.8323C241.894 55.5771 241.252 55.2927 240.625 54.9792C240.001 54.662 239.389 54.3156 238.798 53.9401C238.204 53.5646 237.632 53.1599 237.078 52.726C236.523 52.2958 235.995 51.8365 235.484 51.3516C234.978 50.8667 234.493 50.3599 234.037 49.8276C233.578 49.2953 233.147 48.7411 232.743 48.1651C232.338 47.5927 231.962 46.9984 231.616 46.3859C231.27 45.7771 230.956 45.15 230.672 44.5083C230.387 43.863 230.136 43.2104 229.913 42.5432C229.695 41.876 229.505 41.1979 229.352 40.5125C229.199 39.8271 229.079 39.138 228.991 38.4417C228.907 37.7417 228.856 37.0417 228.838 36.3417C228.82 35.638 228.838 34.938 228.889 34.238C228.94 33.538 229.024 32.8417 229.144 32.149C229.265 31.4562 229.418 30.7708 229.604 30.0964C229.793 29.4182 230.012 28.751 230.263 28.0948C230.515 27.4422 230.799 26.8005 231.113 26.1734C231.43 25.5464 231.776 24.9339 232.148 24.3432C232.524 23.749 232.929 23.1766 233.359 22.6224C233.793 22.0682 234.248 21.5359 234.733 21.0292C235.215 20.5187 235.725 20.0375 236.254 19.5781C236.786 19.1187 237.336 18.6885 237.912 18.2839C238.485 17.8792 239.075 17.5036 239.688 17.1573C240.297 16.8109 240.924 16.4974 241.566 16.213C242.207 15.9286 242.86 15.6771 243.523 15.4547C244.191 15.2359 244.865 15.05 245.55 14.8969C246.236 14.7401 246.925 14.6234 247.621 14.5359C248.318 14.4521 249.018 14.401 249.718 14.3828C250.421 14.3646 251.121 14.3828 251.821 14.4339C252.521 14.4885 253.214 14.5724 253.907 14.6927C254.599 14.813 255.281 14.9698 255.959 15.1557C256.634 15.3453 257.301 15.5641 257.954 15.8156C258.61 16.0708 259.248 16.3552 259.875 16.6724C260.502 16.9859 261.111 17.3323 261.705 17.7078C262.299 18.087 262.872 18.488 263.426 18.9219C263.976 19.3557 264.509 19.8115 265.016 20.2964C265.526 20.7812 266.007 21.2917 266.467 21.824Z" fill="#808285"/>
<path d="M327.935 182.521C327.946 160.665 316.181 140.496 297.154 129.755C300.172 97.9052 276.814 69.6391 244.974 66.6203C241.34 66.2776 237.679 66.2776 234.041 66.6203C217.594 37.4828 180.647 27.1979 151.521 43.6552C141.918 49.0766 133.981 57.0172 128.559 66.6203C96.7203 63.6016 68.4651 86.9714 65.4464 118.818C65.1037 122.456 65.1037 126.117 65.4464 129.755C36.3198 146.209 26.0386 183.167 42.4886 212.308C47.9099 221.911 55.8469 229.852 65.4464 235.277C62.4276 267.123 85.7901 295.389 117.626 298.408C121.26 298.754 124.921 298.754 128.559 298.408C145.006 327.545 181.956 337.83 211.083 321.377C220.682 315.952 228.623 308.011 234.044 298.408C265.88 301.43 294.135 278.057 297.154 246.21C297.5 242.576 297.5 238.911 297.154 235.277C316.178 224.536 327.943 204.374 327.935 182.521Z" fill="#58595B"/>
<path d="M176.954 88.2802C173.644 84.4411 169.885 81.2255 165.827 78.6187C179.459 99.7974 175.809 128.319 156.231 145.25C138.626 160.475 113.63 161.58 94.9922 149.589C96.2865 151.601 97.7229 153.548 99.3307 155.411C117.863 176.889 150.259 179.269 171.697 160.734C193.131 142.195 195.486 109.758 176.954 88.2802Z" fill="#808285"/>
<path d="M291.867 182.514C291.867 184.326 291.823 186.138 291.736 187.946C291.645 189.755 291.514 191.563 291.335 193.364C291.16 195.169 290.938 196.966 290.671 198.76C290.405 200.55 290.095 202.336 289.742 204.112C289.392 205.887 288.994 207.656 288.553 209.413C288.116 211.17 287.631 212.917 287.106 214.648C286.581 216.384 286.012 218.105 285.403 219.811C284.794 221.517 284.142 223.205 283.449 224.879C282.76 226.552 282.023 228.207 281.251 229.848C280.478 231.485 279.665 233.104 278.811 234.701C277.958 236.297 277.065 237.872 276.135 239.429C275.206 240.982 274.236 242.514 273.233 244.019C272.227 245.525 271.184 247.005 270.109 248.46C269.03 249.915 267.918 251.344 266.769 252.744C265.621 254.144 264.44 255.515 263.222 256.86C262.008 258.202 260.761 259.514 259.481 260.794C258.202 262.073 256.889 263.324 255.551 264.542C254.209 265.756 252.839 266.941 251.439 268.089C250.042 269.238 248.617 270.353 247.162 271.432C245.707 272.511 244.231 273.554 242.725 274.56C241.219 275.567 239.692 276.536 238.139 277.47C236.585 278.399 235.014 279.293 233.417 280.146C231.82 280.999 230.205 281.816 228.568 282.589C226.931 283.365 225.28 284.098 223.606 284.791C221.936 285.483 220.248 286.136 218.542 286.748C216.84 287.357 215.122 287.926 213.391 288.451C211.659 288.976 209.916 289.461 208.159 289.902C206.405 290.34 204.637 290.737 202.865 291.091C201.09 291.444 199.307 291.754 197.517 292.02C195.727 292.286 193.929 292.509 192.128 292.684C190.327 292.863 188.526 292.997 186.718 293.085C184.909 293.172 183.101 293.22 181.293 293.22C179.481 293.22 177.672 293.172 175.864 293.085C174.059 292.997 172.255 292.863 170.454 292.684C168.653 292.509 166.855 292.286 165.065 292.02C163.275 291.754 161.492 291.444 159.72 291.091C157.945 290.737 156.18 290.34 154.423 289.902C152.669 289.461 150.923 288.976 149.191 288.451C147.459 287.926 145.742 287.357 144.04 286.748C142.333 286.136 140.649 285.483 138.976 284.791C137.302 284.098 135.651 283.365 134.014 282.589C132.377 281.816 130.761 280.999 129.165 280.146C127.571 279.293 125.996 278.399 124.443 277.47C122.89 276.536 121.363 275.567 119.857 274.56C118.355 273.554 116.875 272.511 115.42 271.432C113.969 270.353 112.54 269.238 111.143 268.089C109.743 266.941 108.372 265.756 107.031 264.542C105.693 263.324 104.38 262.073 103.101 260.794C101.821 259.514 100.574 258.202 99.3599 256.86C98.1422 255.515 96.961 254.144 95.8125 252.744C94.6677 251.344 93.5521 249.915 92.4766 248.46C91.3974 247.005 90.3547 245.525 89.3485 244.019C88.3458 242.514 87.3761 240.982 86.4464 239.429C85.5167 237.872 84.6235 236.297 83.7703 234.701C82.9172 233.104 82.1042 231.485 81.3313 229.848C80.5584 228.207 79.8255 226.552 79.1328 224.879C78.4401 223.205 77.7875 221.517 77.1787 219.811C76.5698 218.105 76.0011 216.384 75.4761 214.648C74.9511 212.917 74.4698 211.17 74.0287 209.413C73.5875 207.656 73.1938 205.887 72.8401 204.112C72.4865 202.336 72.1766 200.55 71.9104 198.76C71.6443 196.966 71.4255 195.169 71.2469 193.364C71.0682 191.563 70.937 189.755 70.8495 187.946C70.7583 186.138 70.7146 184.326 70.7146 182.514C70.7146 180.702 70.7583 178.894 70.8495 177.082C70.937 175.273 71.0682 173.465 71.2469 171.664C71.4255 169.859 71.6443 168.062 71.9104 166.272C72.1766 164.478 72.4865 162.695 72.8401 160.916C73.1938 159.141 73.5875 157.372 74.0287 155.615C74.4698 153.858 74.9511 152.111 75.4761 150.38C76.0011 148.644 76.5698 146.927 77.1787 145.221C77.7875 143.515 78.4401 141.823 79.1328 140.149C79.8255 138.476 80.5584 136.821 81.3313 135.184C82.1042 133.543 82.9172 131.928 83.7703 130.328C84.6235 128.731 85.5167 127.156 86.4464 125.603C87.3761 124.046 88.3458 122.518 89.3485 121.013C90.3547 119.503 91.3974 118.023 92.4766 116.568C93.5521 115.114 94.6677 113.684 95.8125 112.284C96.961 110.884 98.1422 109.514 99.3599 108.172C100.574 106.827 101.821 105.518 103.101 104.234C104.38 102.955 105.693 101.704 107.031 100.49C108.372 99.2724 109.743 98.0875 111.143 96.9391C112.54 95.7906 113.969 94.675 115.42 93.5958C116.875 92.5167 118.355 91.474 119.857 90.4677C121.363 89.4615 122.89 88.4917 124.443 87.562C125.996 86.6286 127.571 85.7354 129.165 84.8823C130.761 84.0292 132.377 83.2161 134.014 82.4396C135.651 81.6667 137.302 80.9302 138.976 80.2375C140.649 79.5448 142.333 78.8922 144.04 78.2833C145.742 77.6708 147.459 77.1021 149.191 76.5771C150.923 76.0521 152.669 75.5672 154.423 75.1297C156.18 74.6885 157.945 74.2911 159.72 73.9375C161.492 73.5839 163.275 73.274 165.065 73.0078C166.855 72.7417 168.653 72.5229 170.454 72.3443C172.255 72.1656 174.059 72.0344 175.864 71.9432C177.672 71.8557 179.481 71.812 181.293 71.812C183.101 71.812 184.909 71.8557 186.718 71.9432C188.526 72.0344 190.327 72.1656 192.128 72.3443C193.929 72.5229 195.727 72.7417 197.517 73.0078C199.307 73.274 201.09 73.5839 202.865 73.9375C204.637 74.2911 206.405 74.6885 208.159 75.1297C209.916 75.5672 211.659 76.0521 213.391 76.5771C215.122 77.1021 216.84 77.6708 218.542 78.2833C220.248 78.8922 221.936 79.5448 223.606 80.2375C225.28 80.9302 226.931 81.6667 228.568 82.4396C230.205 83.2161 231.82 84.0292 233.417 84.8823C235.014 85.7354 236.585 86.6286 238.139 87.562C239.692 88.4917 241.219 89.4615 242.725 90.4677C244.231 91.474 245.707 92.5167 247.162 93.5958C248.617 94.675 250.042 95.7906 251.439 96.9391C252.839 98.0875 254.209 99.2724 255.551 100.49C256.889 101.704 258.202 102.955 259.481 104.234C260.761 105.518 262.008 106.827 263.222 108.172C264.44 109.514 265.621 110.884 266.769 112.284C267.918 113.684 269.03 115.114 270.109 116.568C271.184 118.023 272.227 119.503 273.233 121.013C274.236 122.518 275.206 124.049 276.135 125.603C277.065 127.156 277.958 128.731 278.811 130.328C279.665 131.928 280.478 133.543 281.251 135.184C282.023 136.821 282.76 138.476 283.449 140.149C284.142 141.823 284.794 143.515 285.403 145.221C286.012 146.927 286.581 148.644 287.106 150.38C287.631 152.111 288.116 153.858 288.553 155.615C288.994 157.372 289.392 159.141 289.742 160.916C290.095 162.695 290.405 164.478 290.671 166.272C290.938 168.062 291.16 169.859 291.335 171.664C291.514 173.465 291.645 175.273 291.736 177.082C291.823 178.894 291.867 180.702 291.867 182.514Z" fill="#377DE2"/>
<path d="M253.148 98.3682C269.69 117.72 279.679 142.847 279.679 170.311C279.679 231.452 230.172 281.014 169.101 281.014C141.67 281.014 116.572 271.013 97.2454 254.454C117.523 278.181 147.656 293.216 181.293 293.216C242.364 293.216 291.871 243.651 291.871 182.514C291.867 148.838 276.85 118.676 253.148 98.3682Z" fill="#2266D3"/>
<path d="M182.303 118.449L186.459 108.048C186.791 107.213 187.472 106.568 188.318 106.28L204.163 100.88C204.885 100.632 205.49 100.126 205.858 99.4583L217.747 77.9698C206.332 73.9813 194.064 71.812 181.289 71.812C177.264 71.812 173.29 72.0271 169.374 72.4464L166.042 100.133C165.984 100.629 166.046 101.128 166.221 101.595L172.601 118.398C173.053 119.591 174.194 120.382 175.47 120.382H179.452C180.709 120.382 181.836 119.616 182.303 118.449Z" fill="#91B56B"/>
<path d="M288.353 190.44C286.905 189.39 286.457 187.436 287.303 185.861L287.416 185.653C288.272 184.053 290.19 183.364 291.86 184.027C291.864 183.524 291.871 183.017 291.871 182.514C291.871 147.933 276.033 117.057 251.223 96.7531L240.687 108.5C240.104 109.153 239.779 110.002 239.779 110.881V125.84C239.779 127.808 238.186 129.402 236.221 129.402H233.771C232.466 129.402 231.266 128.687 230.643 127.539L226.993 120.794C226.268 119.456 224.777 118.727 223.278 118.974L217.922 119.868C216.205 120.156 214.947 121.64 214.947 123.382V125.322C214.947 126.467 215.498 127.542 216.424 128.209L221.269 131.717C222.374 132.515 222.924 133.871 222.691 135.217L221.597 141.513C221.393 142.698 220.602 143.701 219.494 144.174L210.784 147.915C209.475 148.477 208.629 149.764 208.629 151.189V151.605C208.629 153.57 210.219 155.167 212.187 155.167H223.541C224.405 155.167 225.236 154.853 225.885 154.284L231.157 149.669C231.769 149.133 232.546 148.819 233.355 148.79L241.602 148.458C242.725 148.415 243.804 148.903 244.511 149.774L249.995 156.556C250.669 157.391 251.686 157.876 252.758 157.876H255.511C256.422 157.876 257.297 157.526 257.961 156.895L264.826 150.369C265.548 149.68 266.525 149.326 267.52 149.395L277.258 150.07C278.385 150.146 279.409 150.755 280.015 151.71L283.066 156.512C284.266 158.393 283.456 160.902 281.385 161.733L279.599 162.447C278.946 162.71 278.232 162.772 277.546 162.626L270.776 161.197C270.277 161.091 269.766 161.095 269.27 161.204L267.991 161.489C265.3 162.09 264.279 165.39 266.164 167.406L267.841 169.196C268.377 169.768 268.709 170.497 268.789 171.278L270.408 187.502C270.452 187.935 270.572 188.355 270.765 188.741L278.068 203.361C278.669 204.568 279.902 205.33 281.251 205.33H289.516C290.383 201.181 291.018 196.952 291.408 192.646L288.353 190.44Z" fill="#91B56B"/>
<path d="M291.86 181.176C291.678 149.669 277.156 118.734 253.156 98.3755C265.548 112.875 274.261 130.619 277.853 150.161C278.739 150.376 279.519 150.927 280.018 151.71L283.07 156.512C284.266 158.393 283.46 160.905 281.389 161.733C281.309 161.78 279.42 162.513 279.409 162.517C280.284 174.77 279.03 187.534 275.913 199.052L278.068 203.365C278.673 204.571 279.905 205.333 281.251 205.333H289.516C290.391 201.148 291.025 196.911 291.411 192.649L288.353 190.44C284.966 187.994 287.988 182.489 291.856 184.027C291.871 183.079 291.871 182.128 291.86 181.176Z" fill="#76A34F"/>
<path d="M128.333 265.388L135.023 261.669C135.126 261.614 135.22 261.552 135.315 261.486L147.361 253.043C147.675 252.824 147.952 252.551 148.17 252.237L151.448 247.592C151.816 247.071 152.327 246.666 152.914 246.429L162.021 242.729C162.929 242.36 163.629 241.609 163.935 240.676L166.764 232.014C166.946 231.452 167.278 230.953 167.716 230.559L173.873 225.079C175.314 223.796 175.368 221.561 173.99 220.208L168.015 214.36C167.395 213.752 166.56 213.409 165.689 213.409H161.295C159.819 213.409 158.525 212.439 158.105 211.024L155.834 203.357C155.579 202.49 154.981 201.76 154.179 201.345L144.12 196.124C144.065 196.095 144.01 196.066 143.956 196.033L131.122 188.42C129.886 187.688 128.322 187.83 127.24 188.774L126.117 189.755C124.983 190.743 123.328 190.852 122.081 190.014L118.8 187.815C118.194 187.41 117.739 186.816 117.502 186.127L113.148 173.399C112.689 172.051 111.424 171.146 109.998 171.146H105.86C103.768 171.146 102.193 169.236 102.59 167.18L103.837 160.745C104.14 159.177 105.51 158.047 107.104 158.047H124.199C125.304 158.047 141.586 144.47 145.655 141.065C146.253 140.561 147 140.295 147.78 140.295H160.971C162.812 140.295 164.3 138.804 164.3 136.963V127.097C164.3 126.605 164.194 126.12 163.982 125.676L157.518 111.974C157.259 111.428 156.858 110.961 156.355 110.622L144.568 102.758C142.359 101.281 139.395 102.867 139.395 105.529V108.657C139.395 109.685 138.917 110.662 138.104 111.293L132.081 115.952C130.915 116.856 129.289 116.882 128.093 116.014L119.135 109.517C118.333 108.938 117.83 108.03 117.764 107.042L117.13 97.5042C117.064 96.5052 117.451 95.5245 118.187 94.8427L121.319 91.9297C122.296 91.0182 123.725 90.7813 124.943 91.3281L131.4 94.2266C133.339 95.0979 135.585 93.9495 136.019 91.8641L136.93 87.4708C137.153 86.4099 136.843 85.3052 136.103 84.5141L134.097 82.3667C106.323 95.5099 84.8933 119.89 75.6656 149.651L80.0917 158.878C80.2266 159.166 80.4052 159.432 80.6167 159.666L98.7037 179.787C99.0901 180.217 99.5787 180.534 100.126 180.72L107.038 183.024C107.764 183.265 108.38 183.75 108.792 184.395L113.728 192.161C113.954 192.515 114.242 192.821 114.578 193.069L116.845 194.717C117.968 195.533 118.464 196.963 118.096 198.301L114.873 209.92C114.629 210.795 114.753 211.732 115.219 212.512L123.444 226.366C123.667 226.738 123.813 227.146 123.875 227.573L124.906 234.453C124.997 235.058 124.917 235.678 124.68 236.243L111.202 268.136C114.483 270.834 117.925 273.343 121.505 275.654L127.123 266.547C127.418 266.066 127.838 265.665 128.333 265.388Z" fill="#91B56B"/>
<path d="M264.254 229.341L281.141 220.602C282.322 219.993 283.066 218.772 283.066 217.441V216.172C283.066 214.488 281.889 213.033 280.241 212.683L275.472 211.681C274.83 211.546 274.236 211.232 273.762 210.784L267.247 204.626C266.674 204.083 266.299 203.365 266.175 202.584L263.196 183.506C263.058 182.602 262.573 181.785 261.847 181.227L253.327 174.679C252.707 174.205 251.945 173.943 251.161 173.943H242.178C241.194 173.943 240.249 173.534 239.575 172.809L229.498 161.988C228.827 161.263 227.883 160.854 226.895 160.854H211.116C210.634 160.854 210.157 160.953 209.712 161.142L202.059 164.427C201.312 164.748 200.696 165.313 200.317 166.031L190.192 185.139C189.561 186.324 189.653 187.76 190.422 188.858L199.843 202.278C200.51 203.226 201.593 203.791 202.756 203.791H217.16C218.761 203.791 220.161 204.859 220.591 206.402L226.33 227.088C226.53 227.81 226.497 228.576 226.239 229.276L223.646 236.327C223.533 236.629 223.464 236.946 223.439 237.267L221.743 258.048C221.696 258.628 221.791 259.208 222.017 259.74L224.674 265.945C225.302 267.411 226.822 268.279 228.401 268.074L238.168 266.813C239.163 266.685 240.056 266.146 240.629 265.322L248.974 253.389C249.131 253.167 249.313 252.963 249.517 252.78L257.09 245.995C257.545 245.587 257.888 245.066 258.085 244.482L262.518 231.368C262.814 230.49 263.433 229.768 264.254 229.341Z" fill="#91B56B"/>
<path d="M264.254 229.341L281.141 220.602C282.322 219.993 283.066 218.772 283.066 217.441V216.172C283.066 214.488 281.889 213.033 280.241 212.683L275.472 211.681C274.83 211.546 274.236 211.232 273.762 210.784L272.511 209.603C263.47 233.435 246.447 253.334 224.707 266.022C225.353 267.44 226.851 268.275 228.401 268.075L238.168 266.813C239.163 266.685 240.056 266.146 240.629 265.322L248.974 253.389C249.131 253.167 249.313 252.963 249.517 252.78L257.09 245.995C257.545 245.587 257.888 245.066 258.085 244.482L262.518 231.368C262.814 230.49 263.433 229.768 264.254 229.341Z" fill="#76A34F"/>
<path d="M115.613 270.769C116.55 271.709 117.44 272.69 118.282 273.718C119.12 274.743 119.912 275.807 120.648 276.912C121.384 278.017 122.066 279.154 122.69 280.324C123.317 281.495 123.882 282.694 124.389 283.919C124.895 285.148 125.344 286.395 125.727 287.667C126.113 288.936 126.434 290.223 126.693 291.524C126.952 292.826 127.145 294.139 127.276 295.458C127.407 296.782 127.473 298.105 127.473 299.432C127.473 300.759 127.407 302.083 127.276 303.406C127.148 304.726 126.952 306.039 126.693 307.34C126.434 308.642 126.113 309.929 125.727 311.197C125.344 312.47 124.899 313.717 124.389 314.945C123.882 316.17 123.317 317.37 122.69 318.54C122.066 319.71 121.384 320.848 120.648 321.953C119.912 323.054 119.124 324.122 118.282 325.146C117.44 326.171 116.55 327.155 115.613 328.092C114.676 329.033 113.695 329.922 112.671 330.765C111.646 331.607 110.582 332.398 109.477 333.134C108.376 333.871 107.239 334.553 106.072 335.18C104.902 335.807 103.702 336.372 102.477 336.882C101.252 337.389 100.005 337.834 98.7365 338.22C97.4678 338.607 96.1844 338.928 94.8829 339.186C93.5813 339.445 92.2724 339.642 90.9527 339.77C89.6329 339.901 88.3094 339.967 86.986 339.967C85.6589 339.967 84.3355 339.901 83.0157 339.77C81.6959 339.642 80.387 339.445 79.0855 339.186C77.7839 338.928 76.5006 338.607 75.2318 338.22C73.9631 337.838 72.7162 337.389 71.4912 336.882C70.2662 336.372 69.0704 335.807 67.9001 335.18C66.7297 334.556 65.5922 333.874 64.4912 333.134C63.3902 332.398 62.3256 331.607 61.3011 330.765C60.273 329.922 59.2922 329.033 58.3553 328.096C57.4183 327.155 56.5287 326.174 55.6865 325.146C54.848 324.122 54.0568 323.057 53.3204 321.953C52.5839 320.848 51.9021 319.71 51.2787 318.54C50.6516 317.37 50.0865 316.17 49.5797 314.945C49.073 313.717 48.6245 312.47 48.2417 311.201C47.8553 309.929 47.5344 308.642 47.2756 307.34C47.0167 306.039 46.8235 304.726 46.6922 303.406C46.561 302.086 46.4954 300.759 46.4954 299.432C46.4954 298.105 46.561 296.782 46.6922 295.462C46.8198 294.139 47.0167 292.826 47.2756 291.524C47.5344 290.223 47.8553 288.936 48.2417 287.667C48.6245 286.395 49.0693 285.148 49.5797 283.923C50.0865 282.694 50.6516 281.495 51.2787 280.324C51.9021 279.154 52.5839 278.017 53.3204 276.916C54.0568 275.811 54.8443 274.746 55.6865 273.718C56.5287 272.694 57.4183 271.709 58.3553 270.772C59.2922 269.832 60.273 268.942 61.2974 268.1C62.3219 267.258 63.3865 266.467 64.4912 265.73C65.5922 264.994 66.7297 264.312 67.8964 263.685C69.0667 263.058 70.2662 262.493 71.4912 261.986C72.7162 261.476 73.9631 261.031 75.2318 260.644C76.5006 260.258 77.7839 259.937 79.0855 259.678C80.387 259.419 81.6959 259.222 83.0157 259.095C84.3355 258.964 85.6589 258.898 86.9823 258.898C88.3094 258.898 89.6329 258.964 90.9527 259.095C92.2724 259.222 93.5813 259.419 94.8829 259.678C96.1844 259.937 97.4678 260.258 98.7365 260.644C100.005 261.031 101.252 261.476 102.477 261.982C103.702 262.493 104.898 263.058 106.068 263.685C107.239 264.312 108.376 264.994 109.477 265.73C110.578 266.467 111.643 267.258 112.667 268.1C113.695 268.942 114.676 269.832 115.613 270.769Z" fill="#939598"/>
<path d="M153.479 260.411C154.474 260.925 155.444 261.486 156.384 262.092C157.325 262.701 158.233 263.353 159.111 264.053C159.99 264.75 160.829 265.49 161.634 266.27C162.44 267.05 163.202 267.867 163.928 268.723C164.653 269.58 165.335 270.47 165.969 271.392C166.607 272.315 167.198 273.266 167.741 274.247C168.284 275.228 168.78 276.234 169.225 277.262C169.67 278.29 170.064 279.34 170.406 280.408C170.749 281.477 171.037 282.559 171.274 283.657C171.511 284.751 171.69 285.859 171.817 286.971C171.945 288.086 172.018 289.206 172.036 290.325C172.054 291.448 172.018 292.567 171.923 293.686C171.832 294.802 171.686 295.914 171.485 297.019C171.285 298.12 171.03 299.214 170.72 300.289C170.414 301.368 170.053 302.429 169.641 303.472C169.229 304.515 168.766 305.535 168.252 306.534C167.741 307.53 167.18 308.5 166.571 309.444C165.966 310.384 165.313 311.296 164.617 312.175C163.917 313.053 163.18 313.895 162.4 314.701C161.62 315.507 160.803 316.272 159.95 316.998C159.093 317.72 158.207 318.402 157.285 319.04C156.363 319.678 155.411 320.268 154.434 320.815C153.453 321.358 152.451 321.854 151.422 322.299C150.391 322.744 149.344 323.138 148.28 323.48C147.211 323.823 146.129 324.115 145.035 324.352C143.938 324.585 142.836 324.767 141.721 324.895C140.609 325.022 139.493 325.095 138.37 325.114C137.251 325.132 136.132 325.095 135.016 325.001C133.901 324.909 132.789 324.764 131.688 324.563C130.586 324.359 129.496 324.104 128.417 323.797C127.342 323.488 126.281 323.127 125.242 322.715C124.199 322.303 123.178 321.84 122.183 321.326C121.188 320.811 120.218 320.25 119.277 319.645C118.336 319.036 117.425 318.383 116.55 317.683C115.671 316.987 114.829 316.247 114.027 315.467C113.221 314.686 112.456 313.87 111.734 313.013C111.008 312.156 110.327 311.267 109.689 310.344C109.054 309.422 108.464 308.47 107.917 307.49C107.373 306.509 106.881 305.503 106.436 304.475C105.992 303.446 105.598 302.396 105.255 301.328C104.913 300.26 104.624 299.177 104.388 298.08C104.151 296.986 103.968 295.878 103.841 294.766C103.713 293.65 103.64 292.531 103.626 291.411C103.607 290.289 103.644 289.169 103.735 288.05C103.83 286.934 103.976 285.822 104.176 284.718C104.377 283.617 104.632 282.523 104.938 281.447C105.248 280.368 105.609 279.307 106.021 278.265C106.433 277.222 106.896 276.201 107.406 275.202C107.92 274.207 108.482 273.237 109.087 272.293C109.696 271.352 110.348 270.441 111.045 269.562C111.741 268.683 112.481 267.841 113.261 267.035C114.038 266.23 114.858 265.464 115.711 264.739C116.565 264.017 117.454 263.335 118.377 262.697C119.299 262.059 120.247 261.468 121.228 260.921C122.208 260.378 123.211 259.882 124.239 259.438C125.267 258.993 126.317 258.599 127.382 258.256C128.45 257.914 129.529 257.622 130.627 257.389C131.72 257.152 132.825 256.969 133.937 256.842C135.053 256.714 136.168 256.641 137.288 256.623C138.41 256.605 139.526 256.641 140.645 256.736C141.761 256.827 142.869 256.973 143.974 257.173C145.075 257.378 146.165 257.633 147.241 257.939C148.32 258.249 149.377 258.61 150.42 259.022C151.463 259.434 152.48 259.897 153.479 260.411Z" fill="#808285"/>
<path d="M319.426 242.605C320.137 244.081 320.775 245.587 321.336 247.126C321.902 248.664 322.386 250.228 322.795 251.814C323.207 253.4 323.535 255.001 323.79 256.623C324.042 258.242 324.213 259.868 324.304 261.505C324.399 263.138 324.41 264.775 324.344 266.412C324.275 268.049 324.126 269.679 323.899 271.301C323.67 272.923 323.364 274.531 322.977 276.124C322.591 277.714 322.131 279.285 321.588 280.831C321.048 282.377 320.436 283.894 319.747 285.381C319.058 286.869 318.299 288.316 317.468 289.727C316.637 291.142 315.74 292.509 314.774 293.832C313.808 295.152 312.783 296.428 311.693 297.649C310.603 298.871 309.455 300.037 308.252 301.146C307.045 302.254 305.791 303.304 304.482 304.289C303.177 305.277 301.824 306.195 300.428 307.048C299.031 307.902 297.595 308.682 296.118 309.393C294.645 310.104 293.14 310.742 291.605 311.307C290.066 311.868 288.506 312.357 286.92 312.765C285.337 313.177 283.737 313.509 282.118 313.76C280.503 314.012 278.877 314.187 277.244 314.278C275.61 314.369 273.973 314.384 272.34 314.315C270.703 314.245 269.077 314.099 267.455 313.87C265.836 313.644 264.232 313.334 262.639 312.947C261.049 312.561 259.481 312.098 257.935 311.558C256.393 311.019 254.877 310.403 253.393 309.714C251.909 309.024 250.461 308.262 249.051 307.431C247.64 306.6 246.276 305.703 244.953 304.737C243.629 303.771 242.36 302.743 241.139 301.649C239.918 300.559 238.755 299.41 237.646 298.204C236.538 297.001 235.492 295.743 234.507 294.434C233.523 293.125 232.604 291.772 231.751 290.372C230.898 288.972 230.118 287.536 229.407 286.059C228.696 284.583 228.061 283.077 227.496 281.539C226.935 280 226.446 278.436 226.038 276.85C225.63 275.264 225.298 273.664 225.046 272.045C224.795 270.426 224.62 268.796 224.529 267.163C224.437 265.526 224.423 263.889 224.492 262.252C224.561 260.615 224.707 258.985 224.937 257.363C225.163 255.741 225.469 254.133 225.856 252.54C226.242 250.95 226.705 249.379 227.245 247.833C227.784 246.287 228.401 244.77 229.086 243.283C229.775 241.795 230.537 240.348 231.365 238.937C232.196 237.526 233.096 236.159 234.059 234.835C235.025 233.512 236.053 232.24 237.143 231.015C238.233 229.793 239.378 228.627 240.585 227.518C241.788 226.41 243.042 225.36 244.351 224.376C245.66 223.391 247.009 222.469 248.409 221.619C249.805 220.766 251.242 219.982 252.715 219.271C254.187 218.56 255.693 217.922 257.232 217.357C258.767 216.796 260.327 216.307 261.913 215.899C263.499 215.487 265.099 215.155 266.715 214.904C268.333 214.652 269.956 214.481 271.593 214.386C273.226 214.295 274.859 214.28 276.496 214.349C278.13 214.419 279.759 214.565 281.378 214.794C283.001 215.024 284.605 215.33 286.194 215.717C287.784 216.103 289.352 216.566 290.897 217.106C292.443 217.645 293.956 218.261 295.444 218.951C296.928 219.64 298.375 220.402 299.786 221.233C301.193 222.064 302.56 222.961 303.88 223.927C305.204 224.893 306.476 225.925 307.697 227.015C308.915 228.105 310.082 229.254 311.19 230.46C312.298 231.667 313.345 232.921 314.329 234.23C315.314 235.539 316.232 236.895 317.082 238.292C317.935 239.692 318.715 241.128 319.426 242.605Z" fill="#939598"/>
<path d="M323.364 254.217C320.516 240.392 312.229 229.086 301.197 222.075C304.332 227.037 306.647 232.641 307.902 238.733C313.472 265.792 296.078 292.25 269.052 297.832C255.828 300.559 242.754 297.784 232.192 291.072C242.991 308.153 263.572 317.636 284.513 313.312C311.544 307.734 328.934 281.276 323.364 254.217Z" fill="#808285"/>
<path d="M323.364 254.217C320.921 242.353 314.468 232.342 305.714 225.309C310.501 231.288 313.983 238.456 315.631 246.473C321.205 273.536 303.811 299.99 276.781 305.572C261.603 308.704 246.615 304.584 235.404 295.582C246.772 309.776 265.493 317.239 284.514 313.312C311.544 307.734 328.934 281.276 323.364 254.217Z" fill="#58595B"/>
<path d="M312.561 209.176C312.889 209.858 313.181 210.551 313.44 211.258C313.698 211.965 313.924 212.683 314.11 213.413C314.3 214.142 314.453 214.878 314.57 215.626C314.683 216.369 314.763 217.117 314.807 217.868C314.847 218.622 314.854 219.373 314.821 220.128C314.792 220.879 314.723 221.63 314.617 222.374C314.515 223.121 314.373 223.861 314.194 224.594C314.019 225.323 313.804 226.045 313.556 226.756C313.308 227.471 313.028 228.167 312.71 228.849C312.393 229.534 312.043 230.202 311.66 230.851C311.278 231.499 310.866 232.127 310.421 232.735C309.98 233.344 309.506 233.931 309.006 234.493C308.503 235.054 307.974 235.59 307.424 236.101C306.87 236.611 306.29 237.092 305.689 237.544C305.087 238 304.467 238.423 303.826 238.813C303.18 239.207 302.52 239.568 301.842 239.892C301.164 240.22 300.471 240.512 299.768 240.774C299.06 241.033 298.342 241.256 297.613 241.445C296.884 241.631 296.147 241.784 295.404 241.901C294.66 242.018 293.913 242.098 293.161 242.138C292.41 242.182 291.659 242.189 290.908 242.156C290.154 242.123 289.406 242.058 288.663 241.952C287.915 241.846 287.179 241.704 286.446 241.529C285.713 241.351 284.995 241.139 284.284 240.888C283.573 240.64 282.877 240.359 282.195 240.042C281.509 239.724 280.846 239.374 280.197 238.992C279.548 238.609 278.921 238.197 278.312 237.752C277.703 237.307 277.12 236.833 276.558 236.33C275.997 235.831 275.461 235.302 274.951 234.748C274.444 234.194 273.963 233.614 273.507 233.013C273.055 232.411 272.632 231.788 272.242 231.146C271.848 230.501 271.491 229.841 271.163 229.163C270.834 228.484 270.543 227.792 270.284 227.084C270.025 226.377 269.803 225.655 269.613 224.926C269.427 224.197 269.274 223.46 269.157 222.717C269.041 221.973 268.96 221.222 268.92 220.471C268.877 219.72 268.869 218.965 268.902 218.214C268.935 217.459 269.001 216.712 269.106 215.965C269.212 215.217 269.354 214.481 269.529 213.748C269.708 213.015 269.919 212.293 270.167 211.582C270.415 210.871 270.7 210.171 271.017 209.49C271.334 208.808 271.68 208.141 272.063 207.492C272.446 206.843 272.858 206.212 273.303 205.603C273.747 204.994 274.218 204.411 274.721 203.849C275.22 203.284 275.749 202.748 276.303 202.238C276.857 201.728 277.433 201.246 278.035 200.794C278.636 200.342 279.26 199.919 279.902 199.526C280.543 199.135 281.203 198.774 281.881 198.446C282.559 198.118 283.252 197.827 283.959 197.568C284.667 197.309 285.385 197.083 286.11 196.897C286.84 196.707 287.576 196.554 288.32 196.438C289.064 196.321 289.811 196.244 290.562 196.201C291.313 196.157 292.068 196.153 292.819 196.182C293.57 196.215 294.317 196.284 295.065 196.386C295.808 196.492 296.548 196.634 297.278 196.813C298.01 196.988 298.732 197.203 299.443 197.451C300.154 197.699 300.851 197.983 301.532 198.301C302.214 198.618 302.881 198.968 303.53 199.347C304.176 199.73 304.806 200.145 305.411 200.59C306.02 201.035 306.607 201.505 307.169 202.008C307.727 202.511 308.263 203.036 308.773 203.591C309.283 204.148 309.765 204.724 310.217 205.326C310.669 205.928 311.092 206.551 311.485 207.196C311.876 207.838 312.236 208.498 312.561 209.176Z" fill="#808285"/>
<path d="M144.845 45.0844C145.943 46.3568 146.974 47.6839 147.944 49.0583C148.91 50.4365 149.811 51.8583 150.638 53.3203C151.466 54.7859 152.221 56.288 152.903 57.8266C153.584 59.3651 154.19 60.9328 154.715 62.5297C155.243 64.1266 155.692 65.749 156.06 67.3896C156.428 69.0302 156.712 70.6891 156.92 72.3589C157.124 74.0286 157.248 75.7021 157.292 77.3865C157.332 79.0672 157.292 80.7479 157.168 82.425C157.044 84.1021 156.84 85.7719 156.552 87.4271C156.264 89.0859 155.899 90.7266 155.451 92.3453C155.003 93.9677 154.478 95.5609 153.872 97.1323C153.267 98.7 152.585 100.239 151.831 101.741C151.076 103.243 150.248 104.705 149.352 106.123C148.451 107.545 147.485 108.919 146.453 110.243C145.418 111.57 144.324 112.842 143.165 114.06C142.005 115.278 140.791 116.437 139.519 117.534C138.246 118.632 136.923 119.664 135.548 120.633C134.174 121.599 132.756 122.5 131.294 123.328C129.835 124.155 128.333 124.91 126.798 125.592C125.263 126.27 123.696 126.875 122.103 127.404C120.506 127.929 118.887 128.377 117.25 128.742C115.609 129.11 113.954 129.398 112.288 129.602C110.622 129.806 108.948 129.93 107.268 129.97C105.587 130.01 103.91 129.967 102.233 129.843C100.556 129.719 98.8932 129.511 97.2343 129.223C95.5791 128.935 93.9421 128.563 92.3234 128.115C90.7046 127.666 89.1114 127.137 87.5437 126.532C85.976 125.923 84.4411 125.242 82.939 124.483C81.4369 123.729 79.9786 122.897 78.5567 121.997C77.1385 121.096 75.764 120.127 74.4406 119.091C73.1171 118.056 71.8447 116.958 70.627 115.795C69.4093 114.636 68.2536 113.418 67.1562 112.142C66.0588 110.87 65.0234 109.543 64.0572 108.168C63.0911 106.79 62.1906 105.368 61.363 103.906C60.5354 102.441 59.7807 100.939 59.0989 99.4C58.4171 97.8615 57.8119 96.2937 57.2869 94.6969C56.7583 93.1 56.3098 91.4776 55.9416 89.837C55.5734 88.1964 55.2854 86.5375 55.0812 84.8677C54.8734 83.1979 54.7494 81.5245 54.7093 79.8401C54.6692 78.1594 54.7093 76.4786 54.8333 74.8016C54.9572 73.1245 55.1614 71.4547 55.4494 69.7995C55.7338 68.1406 56.102 66.5 56.5505 64.8813C56.9989 63.2589 57.5239 61.6656 58.1291 60.0943C58.7343 58.5266 59.4124 56.988 60.1708 55.4859C60.9255 53.9839 61.7531 52.5219 62.6499 51.1036C63.5505 49.6818 64.5166 48.3073 65.5484 46.9839C66.5838 45.6568 67.6775 44.3844 68.8369 43.1667C69.9963 41.949 71.2104 40.7896 72.4828 39.6922C73.7552 38.5948 75.0786 37.563 76.4531 36.5932C77.8239 35.6271 79.2421 34.7266 80.7041 33.899C82.1661 33.0714 83.6682 32.3167 85.2031 31.6349C86.738 30.9568 88.3057 30.3516 89.8989 29.8229C91.4958 29.2979 93.1145 28.8495 94.7515 28.4849C96.3921 28.1167 98.0437 27.8286 99.7135 27.6245C101.38 27.4203 103.053 27.2964 104.734 27.2562C106.415 27.2161 108.092 27.2599 109.769 27.3839C111.442 27.5078 113.108 27.7156 114.763 28.0036C116.422 28.2917 118.059 28.6635 119.678 29.112C121.297 29.5604 122.89 30.0891 124.458 30.6979C126.025 31.3031 127.56 31.9849 129.062 32.7432C130.565 33.4979 132.023 34.3292 133.445 35.2297C134.863 36.1302 136.234 37.1 137.561 38.1354C138.884 39.1708 140.157 40.2682 141.374 41.4312C142.592 42.5906 143.748 43.8083 144.845 45.0844Z" fill="#808285"/>
<path d="M99.8375 80.8865C100.935 82.1589 101.97 83.4859 102.937 84.8604C103.906 86.2385 104.803 87.6568 105.631 89.1224C106.462 90.5844 107.217 92.0865 107.898 93.625C108.58 95.1635 109.182 96.7313 109.71 98.3281C110.239 99.9286 110.688 101.547 111.056 103.188C111.424 104.832 111.712 106.488 111.916 108.157C112.124 109.827 112.248 111.504 112.288 113.185C112.332 114.866 112.292 116.546 112.168 118.223C112.044 119.901 111.84 121.57 111.552 123.229C111.267 124.884 110.899 126.525 110.451 128.147C110.006 129.766 109.477 131.363 108.876 132.931C108.27 134.502 107.589 136.037 106.834 137.539C106.079 139.041 105.252 140.503 104.355 141.925C103.458 143.347 102.492 144.721 101.456 146.045C100.425 147.372 99.3271 148.644 98.1677 149.862C97.012 151.08 95.798 152.239 94.5256 153.336C93.2532 154.434 91.9297 155.469 90.5552 156.435C89.1808 157.405 87.7662 158.302 86.3042 159.13C84.8422 159.961 83.3438 160.716 81.8052 161.397C80.2703 162.076 78.7063 162.681 77.1094 163.209C75.5125 163.734 73.8974 164.183 72.2568 164.551C70.6162 164.919 68.9646 165.204 67.2948 165.411C65.6287 165.616 63.9552 165.74 62.2745 165.78C60.5938 165.82 58.9167 165.776 57.2433 165.652C55.5662 165.528 53.9 165.32 52.2448 165.032C50.5896 164.744 48.9526 164.376 47.3302 163.928C45.7115 163.476 44.1183 162.951 42.5506 162.342C40.9828 161.736 39.448 161.055 37.9459 160.296C36.4438 159.542 34.9855 158.71 33.5636 157.81C32.1453 156.909 30.7709 155.943 29.4474 154.908C28.124 153.872 26.8516 152.771 25.6339 151.612C24.4162 150.453 23.2604 149.235 22.1594 147.959C21.062 146.686 20.0302 145.359 19.0604 143.985C18.0943 142.607 17.1938 141.189 16.3662 139.723C15.5386 138.257 14.7839 136.759 14.1021 135.22C13.4203 133.682 12.8151 132.114 12.2865 130.514C11.7615 128.917 11.3131 127.298 10.9448 125.657C10.5729 124.013 10.2886 122.358 10.0808 120.688C9.87295 119.018 9.74899 117.341 9.70889 115.66C9.66878 113.98 9.70889 112.299 9.8292 110.622C9.95316 108.941 10.1573 107.275 10.4453 105.616C10.7334 103.961 11.0979 102.32 11.5464 100.698C11.9948 99.0792 12.5198 97.4823 13.125 95.9146C13.7302 94.3432 14.4084 92.8083 15.1631 91.3063C15.9177 89.8042 16.7453 88.3422 17.6422 86.9203C18.5427 85.4984 19.5089 84.124 20.5407 82.8005C21.5761 81.4734 22.6698 80.201 23.8292 78.9833C24.9886 77.7656 26.2026 76.6063 27.475 75.5089C28.7474 74.4115 30.0709 73.376 31.4417 72.4099C32.8162 71.4401 34.2344 70.5432 35.6964 69.712C37.1584 68.8844 38.6568 68.1297 40.1917 67.4479C41.7266 66.7661 43.2943 66.1646 44.8875 65.6359C46.4844 65.1109 48.1032 64.6625 49.7401 64.2943C51.3808 63.926 53.036 63.6417 54.7021 63.4339C56.3683 63.2297 58.0417 63.1057 59.7224 63.0656C61.4032 63.0255 63.0802 63.0693 64.7573 63.1932C66.4308 63.3172 68.0969 63.5214 69.7558 63.813C71.411 64.101 73.048 64.4693 74.6667 64.9177C76.2855 65.3661 77.8787 65.8948 79.45 66.5C81.0177 67.1089 82.5526 67.7906 84.0511 68.5453C85.5532 69.3036 87.0151 70.1313 88.4334 71.0318C89.8552 71.9359 91.2261 72.9021 92.5495 73.9375C93.8766 74.9729 95.149 76.0703 96.3667 77.2333C97.5808 78.3927 98.7401 79.6104 99.8375 80.8865Z" fill="#808285"/>
<path d="M61.0714 159.6C59.3542 159.6 57.9797 158.207 57.9797 156.505C57.9797 154.787 59.3542 153.409 61.0714 153.409H61.086C62.7886 153.409 64.1631 154.802 64.1631 156.505C64.1631 158.193 62.7886 159.585 61.086 159.585C61.086 159.6 61.0714 159.6 61.0714 159.6ZM48.8688 157.788C48.5771 157.788 48.2636 157.744 47.9719 157.649C39.7761 155.174 32.4771 150.434 26.8771 143.934C19.7787 135.727 15.8667 125.245 15.8667 114.439C15.8667 113.261 15.9141 112.149 16.0089 111.096C16.8729 99.0646 22.3636 88.0906 31.4891 80.2083C38.85 73.8464 47.8479 70.0984 57.5131 69.3729L61.6912 69.0448L62.9417 65.0344C65.4464 57.0464 70.1313 49.9115 76.4896 44.4135C84.6709 37.337 95.1235 33.4359 105.933 33.4359C119.077 33.4359 131.545 39.149 140.124 49.1057C140.667 49.7255 140.93 50.5276 140.864 51.3516C140.82 52.1719 140.434 52.9302 139.814 53.4698C138.56 54.538 136.522 54.3849 135.454 53.1453C128.031 44.5521 117.283 39.6302 105.933 39.6302C96.6219 39.6302 87.5912 42.988 80.5219 49.1057C75.0349 53.8417 70.999 60.0031 68.8479 66.8937L66.9594 72.9021C66.5912 74.1234 65.5229 74.9766 64.2542 75.0677L57.9761 75.549C49.6381 76.1833 41.8761 79.4208 35.536 84.9005C27.6792 91.6964 22.9323 101.172 22.1594 111.577C22.0974 112.489 22.0537 113.447 22.0537 114.439C22.0683 123.885 25.3459 132.694 31.5474 139.891C36.3891 145.48 42.6636 149.585 49.7511 151.721C49.7511 151.721 49.7657 151.721 49.7657 151.736C51.4063 152.232 52.3177 153.949 51.8401 155.59C51.4354 156.906 50.2469 157.788 48.8688 157.788Z" fill="#939598"/>
</svg>
