<svg width="344" height="348" viewBox="0 0 344 348" fill="none" xmlns="http://www.w3.org/2000/svg">
<g clip-path="url(#clip0_181_984)">
<mask id="mask0_181_984" style="mask-type:luminance" maskUnits="userSpaceOnUse" x="8" y="7" width="328" height="334">
<path d="M8.16992 7.9025H335.658V340.576H8.16992V7.9025Z" fill="white"/>
</mask>
<g mask="url(#mask0_181_984)">
<path d="M335.658 173.873C335.658 284.015 231.555 363.41 127.115 333.413C58.5659 313.737 8.16992 249.853 8.16992 173.873C8.16992 82.3165 81.5064 8.0475 171.914 8.0475C262.318 8.0475 335.658 82.3165 335.658 173.873Z" fill="#9EE6FF"/>
</g>
<path d="M286.878 222.111C290.182 237.144 290.25 249.922 287.147 250.672C283.976 251.354 278.78 239.739 275.476 224.71C272.168 209.677 272.1 196.899 275.207 196.149C278.375 195.398 283.571 207.013 286.878 222.111Z" fill="#4FE88D"/>
<path d="M291.264 223.275C284.717 237.213 281.818 249.647 284.717 251.013C287.62 252.449 295.31 242.27 301.788 228.332C308.331 214.39 311.234 201.956 308.331 200.589C305.433 199.223 297.807 209.337 291.264 223.275Z" fill="#35D175"/>
<path d="M49.0522 227.784C52.3596 242.813 52.4277 255.592 49.3245 256.342C46.1532 257.027 40.9574 245.413 37.65 230.38C34.3462 215.347 34.2781 202.572 37.3812 201.818C40.4844 201.137 45.7483 212.751 49.0522 227.784Z" fill="#4FE88D"/>
<path d="M53.4383 229.013C46.8951 242.951 43.9926 255.389 46.8951 256.755C49.7976 258.187 57.4875 248.008 63.9625 234.07C70.5093 220.132 73.4082 207.694 70.5093 206.328C67.6068 204.961 59.985 215.075 53.4383 229.013Z" fill="#35D175"/>
<path d="M219.88 274.724L149.851 257.299C145.397 256.208 142.767 251.492 144.05 247.051L169.685 159.866C170.158 158.228 171.846 157.202 173.53 157.611L183.653 160.142C185.405 160.551 186.419 162.327 186.014 164.104L180.345 187.539C179.74 190.135 181.291 192.799 183.854 193.484L219.071 202.297C221.636 202.913 224.266 201.34 224.944 198.744L230.609 175.309C231.014 173.532 232.77 172.506 234.522 172.916L244.641 175.446C246.329 175.856 247.339 177.563 247.003 179.271L229.663 268.504C228.789 272.948 224.334 275.884 219.88 274.724Z" fill="white"/>
<path d="M144.519 245.616L144.115 247.051C142.835 251.492 145.465 256.208 149.92 257.299L219.881 274.793C224.335 275.884 228.857 273.013 229.731 268.439L230.003 267.003L144.519 245.616Z" fill="#E5F5F9"/>
<path d="M245.856 184.944L247.003 179.137C247.34 177.426 246.261 175.787 244.641 175.309L234.522 172.782C232.77 172.372 231.014 173.395 230.609 175.171L229.262 180.775L245.856 184.944Z" fill="#E5F5F9"/>
<path d="M184.663 169.639L186.014 164.035C186.419 162.259 185.405 160.482 183.653 160.073L173.53 157.546C171.846 157.133 170.158 158.09 169.685 159.801L168.001 165.47L184.663 169.639Z" fill="#E5F5F9"/>
<path d="M323.109 237.691C318.723 248.418 313.19 258.531 306.78 267.96C306.307 268.71 305.837 269.392 305.296 270.146C297.671 280.941 288.835 290.779 278.984 299.389H64.9084C45.0747 282.101 30.1644 260.717 20.7188 237.691C23.1447 236.937 25.7103 236.528 28.2724 236.528H28.3405C35.2241 236.528 41.4985 239.192 46.2858 244.18C52.0908 250.263 62.074 250.056 67.7428 244.318C77.8622 233.932 93.9191 234.139 103.77 244.318C109.507 250.125 119.422 250.125 125.09 244.318C135.21 233.932 151.267 234.139 161.117 244.318C166.851 250.125 176.837 250.125 182.438 244.318C192.084 234.411 208.951 234.411 218.465 244.318C224.198 250.125 234.185 250.125 239.854 244.318C250.041 233.794 266.166 234.273 275.881 244.318C281.614 250.125 291.533 250.125 297.266 244.318C302.125 239.261 308.468 236.528 315.348 236.528H315.416C318.114 236.528 320.68 236.872 323.109 237.691Z" fill="#43A1FF"/>
<path d="M250.378 224.435L254.087 230.72L246.87 235.096L243.158 228.81C242.685 228.056 242.957 227.03 243.699 226.621L248.218 223.887C248.959 223.409 249.905 223.684 250.378 224.435Z" fill="#24272B"/>
<path d="M311.098 238.239C311.976 239.399 311.639 241.037 310.424 241.791L284.112 257.643C276.354 262.356 266.299 259.76 261.644 251.832C263.938 255.798 264.479 260.308 263.465 264.408C262.454 268.504 259.824 272.263 255.975 274.587L219.476 296.587C218.264 297.337 216.645 296.793 216.104 295.495C214.62 291.805 214.416 287.843 215.294 284.084C216.441 279.575 219.275 275.475 223.525 272.879L242.079 261.74C251.726 255.932 245.451 245.206 245.519 245.616C242.552 240.628 243.767 234.001 248.554 230.72C251.256 228.81 254.492 228.332 257.463 229.082C260.161 229.763 262.59 231.54 264.142 234.139V234.208C267.245 239.536 274.057 241.313 279.321 238.101L286.473 233.794C294.704 228.741 305.228 230.858 311.098 238.239Z" fill="#FFBC50"/>
<path d="M311.098 238.239C311.976 239.399 311.639 241.037 310.424 241.791L284.112 257.643C276.286 262.356 266.231 259.691 261.644 251.832C263.938 255.798 264.479 260.308 263.4 264.407C262.386 268.504 259.756 272.263 255.911 274.586L219.411 296.587C218.196 297.337 216.577 296.793 216.036 295.495C215.631 294.607 215.362 293.719 215.158 292.762C217.114 293.172 215.631 292.965 253.55 270.487C257.394 268.163 260.025 264.473 261.039 260.308C262.049 256.208 261.576 251.629 259.283 247.736C263.938 255.66 273.992 258.187 281.75 253.543C308.805 236.937 308.873 238.032 309.141 236.118C309.815 236.803 310.492 237.485 311.098 238.239Z" fill="#FFB32C"/>
<path d="M243.767 274.586C244.641 276.091 244.172 278.07 242.685 278.958L241.337 279.777C239.854 280.666 237.897 280.191 237.019 278.686C236.142 277.182 236.615 275.203 238.098 274.315L239.449 273.492C241.001 272.538 242.889 273.013 243.767 274.586Z" fill="#F49F16"/>
<path d="M253.481 262.697C254.628 264.611 254.019 267.137 252.062 268.232L250.378 269.258C248.49 270.418 245.992 269.805 244.914 267.822C243.767 265.908 244.441 263.382 246.329 262.287L248.017 261.265C249.837 260.101 252.335 260.786 253.481 262.697Z" fill="#F49F16"/>
<path d="M128.735 247.667L102.827 299.117C100.262 304.239 93.9872 306.291 88.9275 303.692L59.0389 288.253C53.9793 285.654 51.9547 279.303 54.5204 274.177L80.4279 222.727C84.9464 213.777 94.3921 214.459 94.1234 214.528C99.8567 214.734 105.253 211.522 107.819 206.328L114.43 193.278L132.307 202.503L125.696 215.553C123.066 220.744 123.672 227.03 127.18 231.609C130.756 236.256 131.365 242.473 128.735 247.667Z" fill="#FC545D"/>
<path d="M132.375 202.503L127.857 211.522L119.153 207.013C116.928 205.849 114.226 206.737 113.079 208.992C110.449 214.187 105.121 217.33 99.5199 217.192C93.7184 217.058 88.3184 220.132 85.6201 225.392L59.7126 276.841C57.1505 281.967 59.107 288.318 64.2348 290.917L59.0389 288.253C53.9793 285.654 51.9547 279.299 54.5204 274.177L80.4279 222.727C83.058 217.536 88.3864 214.325 94.1234 214.528C99.8567 214.734 105.253 211.522 107.819 206.328L114.43 193.278L132.375 202.503Z" fill="#F14448"/>
<mask id="mask1_181_984" style="mask-type:luminance" maskUnits="userSpaceOnUse" x="-11" y="20" width="414" height="428">
<path d="M402.05 20.1156H-10.75V447.572H402.05V20.1156Z" fill="black" fill-opacity="0.298"/>
</mask>
<g mask="url(#mask1_181_984)">
<mask id="mask2_181_984" style="mask-type:luminance" maskUnits="userSpaceOnUse" x="125" y="307" width="25" height="43">
<path d="M149.325 307.462H125.474V349.257H149.325V307.462Z" fill="white"/>
</mask>
<g mask="url(#mask2_181_984)">
<path d="M147.594 311.628L145.028 316.871C144.491 317.922 143.276 318.341 142.262 317.781C141.252 317.22 140.847 315.962 141.388 314.912L143.95 309.669C144.491 308.619 145.706 308.2 146.716 308.76C147.662 309.32 148.067 310.578 147.594 311.628Z" fill="white"/>
<mask id="mask3_181_984" style="mask-type:luminance" maskUnits="userSpaceOnUse" x="126" y="319" width="16" height="30">
<path d="M126.026 319.81H141.986V348.307H126.026V319.81Z" fill="white"/>
</mask>
<g mask="url(#mask3_181_984)">
<path d="M141.656 323.654L130.118 347.087C129.581 348.133 128.366 348.556 127.352 347.996C126.341 347.435 125.936 346.177 126.477 345.127L138.012 321.699C138.553 320.649 139.768 320.23 140.778 320.79C141.793 321.28 142.194 322.608 141.656 323.654Z" fill="white"/>
</g>
</g>
</g>
<path d="M136.693 199.839L133.117 206.944C132.512 208.173 130.96 208.72 129.745 208.039L110.854 198.266C109.639 197.653 109.166 196.08 109.775 194.851L113.352 187.746C113.957 186.514 115.441 185.97 116.723 186.651L135.615 196.421C136.83 197.106 137.303 198.607 136.693 199.839Z" fill="#24272B"/>
<path d="M133.321 206.466L133.117 206.944C132.512 208.173 130.96 208.72 129.745 208.039L110.854 198.266C109.639 197.653 109.166 196.08 109.775 194.851L113.352 187.746C113.957 186.514 115.441 185.97 116.723 186.651L117.196 186.923L113.889 193.553C113.283 194.782 113.756 196.355 114.971 196.968L133.321 206.466Z" fill="#13181E"/>
<path d="M305.297 270.146C285.459 298.229 257.395 319.613 225.008 330.818H118.884C88.1178 320.16 59.3078 299.661 38.5281 270.077C41.3625 271.375 43.9927 273.22 46.286 275.544C52.091 281.623 62.0742 281.489 67.743 275.681C77.8623 265.227 93.9873 265.568 103.77 275.681C109.507 281.489 119.422 281.489 125.091 275.681C135.21 265.227 151.335 265.568 161.118 275.681C166.851 281.489 176.838 281.489 182.438 275.681C192.085 265.774 208.951 265.774 218.465 275.681C224.199 281.489 234.185 281.489 239.854 275.681C244.641 270.693 250.984 267.96 257.867 267.96C264.747 267.96 271.09 270.693 275.881 275.681C281.614 281.489 291.533 281.489 297.266 275.681C299.764 273.289 302.394 271.444 305.297 270.146Z" fill="#2C8CFF"/>
<path d="M272.91 304.446C214.011 351.248 130.555 351.795 70.8462 304.446C75.1641 301.234 80.2919 299.458 85.6884 299.458C92.5719 299.458 98.9109 302.26 103.77 307.179C109.507 312.986 119.49 312.986 125.091 307.179C135.142 296.862 151.199 296.927 161.118 307.179C166.851 312.986 176.838 312.986 182.438 307.179C192.085 297.272 208.951 297.272 218.465 307.179C224.066 312.848 233.848 312.986 239.582 307.451C243.563 303.626 248.354 300.618 253.818 299.798C260.903 298.704 267.582 300.415 272.91 304.446Z" fill="#43A1FF"/>
<path d="M262.253 66.6021C262.253 74.733 253.818 79.8588 246.87 76.3751C240.728 83.9586 229.262 83.8209 223.324 76.0996C216.24 80.0618 207.4 74.8708 207.4 66.5333C207.4 58.1305 216.372 53.0047 223.457 57.1046C229.394 49.59 240.66 49.4522 246.734 56.8327C253.75 53.3491 262.253 58.4712 262.253 66.6021Z" fill="white"/>
<path d="M246.87 76.4404C240.728 84.0275 229.193 83.8898 223.324 76.1685C216.308 80.1306 207.4 75.0085 207.4 66.671C207.4 65.7829 207.536 64.8259 207.736 64.0066C209.492 70.8398 217.114 74.2545 223.324 70.8398C229.262 78.561 240.728 78.6951 246.87 71.1116C252.872 74.1204 260.229 70.702 261.913 64.0066C264.274 73.0945 254.764 80.3373 246.87 76.4404Z" fill="#E5F5F9"/>
<path d="M120.637 91.4732C120.637 104.045 109.102 113.133 98.1046 111.016C88.7235 109.58 81.5747 101.38 81.5747 91.4732C81.5747 80.5402 90.3431 71.659 101.14 71.659C108.966 71.659 115.781 76.3751 118.816 83.1394C119.963 85.666 120.637 88.4681 120.637 91.4732Z" fill="#FFBC50"/>
<path d="M120.636 91.4732C120.636 104.045 109.102 113.133 98.1045 111.016C90.6153 99.673 98.5739 84.0964 112.337 84.0964C113.825 84.0964 115.308 84.2994 116.792 84.709C117.465 84.1616 118.074 83.6179 118.816 83.2046C119.963 85.666 120.636 88.4681 120.636 91.4732Z" fill="#FFB32C"/>
<path d="M160.512 101.38C160.512 110.262 151.335 115.866 143.709 112.042C137.03 120.306 124.481 120.169 118.006 111.766C116.318 112.723 114.43 113.201 112.337 113.201C105.862 113.201 100.598 107.873 100.598 101.311C100.598 94.7539 105.862 89.4251 112.337 89.4251C114.43 89.4251 116.387 89.9689 118.142 90.9947C124.686 82.795 136.898 82.6609 143.577 90.7229C151.199 86.826 160.512 92.4302 160.512 101.38Z" fill="white"/>
<path d="M160.512 101.38C160.512 110.331 151.199 115.797 143.71 112.042C136.966 120.307 124.417 120.169 118.006 111.766C116.319 112.723 114.362 113.202 112.338 113.202C104.784 113.202 99.047 106.028 100.935 98.4441C102.218 103.566 106.873 107.394 112.338 107.394C114.362 107.394 116.319 106.847 118.006 105.959C124.481 114.362 137.03 114.499 143.71 106.231C150.256 109.511 158.351 105.752 160.171 98.513C160.376 99.4011 160.512 100.355 160.512 101.38Z" fill="#E5F5F9"/>
</g>
<defs>
<clipPath id="clip0_181_984">
<rect width="344" height="348" fill="white"/>
</clipPath>
</defs>
</svg>
