<svg width="51" height="60" viewBox="0 0 51 60" fill="none" xmlns="http://www.w3.org/2000/svg">
<path d="M25.5 0C11.4495 0 0 13.271 0 29.5568C0 45.8426 11.4495 59.1136 25.5 59.1136C39.5505 59.1136 51 45.8426 51 29.5568C51 13.271 39.5505 0 25.5 0ZM36.5925 40.1086C36.2355 40.818 35.598 41.2022 34.935 41.2022C34.6035 41.2022 34.272 41.1135 33.966 40.8771L26.061 35.4091C24.0975 34.0495 22.644 31.0642 22.644 28.4337V16.3154C22.644 15.1035 23.511 14.0986 24.5565 14.0986C25.602 14.0986 26.469 15.1035 26.469 16.3154V28.4337C26.469 29.4977 27.234 31.0642 28.0245 31.5962L35.9295 37.0643C36.8475 37.6849 37.1535 39.0446 36.5925 40.1086Z" fill="#292D32"/>
</svg>
