<svg width="192" height="193" viewBox="0 0 192 193" fill="none" xmlns="http://www.w3.org/2000/svg">
<g clip-path="url(#clip0_450_936)">
<path d="M192.032 96.5242C192.032 98.1024 191.994 99.6806 191.916 101.259C191.84 102.837 191.724 104.411 191.57 105.983C191.416 107.555 191.224 109.121 190.994 110.684C190.762 112.246 190.494 113.802 190.188 115.352C189.88 116.9 189.536 118.442 189.154 119.974C188.774 121.506 188.354 123.028 187.898 124.537C187.442 126.049 186.95 127.549 186.42 129.037C185.89 130.522 185.326 131.996 184.724 133.456C184.122 134.915 183.486 136.359 182.814 137.786C182.142 139.213 181.436 140.625 180.696 142.018C179.954 143.411 179.18 144.784 178.372 146.139C177.566 147.494 176.724 148.827 175.852 150.14C174.978 151.455 174.074 152.746 173.138 154.014C172.202 155.283 171.236 156.527 170.24 157.747C169.242 158.97 168.216 160.164 167.162 161.334C166.106 162.506 165.022 163.648 163.912 164.766C162.8 165.882 161.664 166.971 160.498 168.033C159.334 169.092 158.146 170.124 156.93 171.127C155.716 172.128 154.478 173.099 153.216 174.04C151.954 174.981 150.67 175.889 149.362 176.768C148.056 177.645 146.73 178.491 145.382 179.301C144.034 180.113 142.668 180.891 141.282 181.637C139.896 182.381 138.492 183.091 137.072 183.766C135.652 184.442 134.216 185.081 132.764 185.686C131.312 186.291 129.846 186.858 128.368 187.391C126.888 187.924 125.396 188.418 123.894 188.877C122.39 189.335 120.876 189.757 119.352 190.139C117.828 190.523 116.294 190.869 114.754 191.179C113.212 191.486 111.664 191.756 110.11 191.989C108.556 192.22 106.998 192.413 105.434 192.568C103.87 192.723 102.304 192.839 100.734 192.916C99.1637 192.994 97.5937 193.032 96.0237 193.032C94.4517 193.032 92.8817 192.994 91.3117 192.916C89.7417 192.839 88.1757 192.723 86.6117 192.568C85.0477 192.413 83.4897 192.22 81.9357 191.989C80.3817 191.756 78.8337 191.486 77.2917 191.179C75.7517 190.869 74.2177 190.523 72.6937 190.139C71.1697 189.757 69.6557 189.335 68.1537 188.877C66.6497 188.418 65.1577 187.924 63.6777 187.391C62.1997 186.858 60.7337 186.291 59.2817 185.686C57.8297 185.081 56.3937 184.442 54.9737 183.766C53.5537 183.091 52.1497 182.381 50.7637 181.637C49.3777 180.891 48.0117 180.113 46.6637 179.301C45.3157 178.491 43.9897 177.645 42.6837 176.768C41.3757 175.889 40.0917 174.981 38.8297 174.04C37.5677 173.099 36.3297 172.128 35.1157 171.127C33.8997 170.124 32.7117 169.092 31.5477 168.033C30.3817 166.971 29.2457 165.882 28.1337 164.766C27.0237 163.648 25.9397 162.506 24.8837 161.334C23.8297 160.164 22.8037 158.97 21.8057 157.747C20.8097 156.527 19.8437 155.283 18.9077 154.014C17.9717 152.746 17.0677 151.455 16.1937 150.14C15.3217 148.827 14.4797 147.494 13.6737 146.139C12.8657 144.784 12.0917 143.411 11.3497 142.018C10.6097 140.625 9.90367 139.213 9.23167 137.786C8.55967 136.359 7.92367 134.915 7.32167 133.456C6.71967 131.996 6.15567 130.522 5.62567 129.037C5.09567 127.549 4.60367 126.049 4.14767 124.539C3.69167 123.028 3.27167 121.506 2.89167 119.974C2.50967 118.442 2.16567 116.9 1.85767 115.352C1.55167 113.802 1.28367 112.246 1.05167 110.684C0.821672 109.121 0.629672 107.555 0.475672 105.983C0.321672 104.411 0.205672 102.837 0.129672 101.259C0.0516716 99.6806 0.0136719 98.1024 0.0136719 96.5242C0.0136719 94.944 0.0516716 93.3659 0.129672 91.7877C0.205672 90.2095 0.321672 88.6353 0.475672 87.0632C0.629672 85.4911 0.821672 83.9249 1.05167 82.3628C1.28367 80.8007 1.55167 79.2447 1.85767 77.6946C2.16567 76.1466 2.50967 74.6046 2.89167 73.0727C3.27167 71.5408 3.69167 70.0189 4.14767 68.5091C4.60367 66.9972 5.09567 65.4975 5.62567 64.0097C6.15567 62.524 6.71967 61.0504 7.32167 59.5908C7.92367 58.1313 8.55967 56.6878 9.23167 55.2604C9.90367 53.833 10.6097 52.4217 11.3497 51.0285C12.0917 49.6353 12.8657 48.2621 13.6737 46.9071C14.4797 45.5521 15.3217 44.2192 16.1937 42.9064C17.0677 41.5916 17.9717 40.3009 18.9077 39.0323C19.8437 37.7638 20.8097 36.5193 21.8057 35.299C22.8037 34.0766 23.8297 32.8825 24.8837 31.7124C25.9397 30.5403 27.0237 29.3984 28.1337 28.2806C29.2457 27.1648 30.3817 26.0752 31.5477 25.0137C32.7117 23.9542 33.8997 22.9229 35.1157 21.9197C36.3297 20.9185 37.5677 19.9474 38.8297 19.0066C40.0917 18.0657 41.3757 17.157 42.6837 16.2784C43.9897 15.4019 45.3157 14.5555 46.6637 13.7453C48.0117 12.9331 49.3777 12.1551 50.7637 11.4092C52.1497 10.6653 53.5537 9.95567 54.9737 9.28017C56.3937 8.60467 57.8297 7.96536 59.2817 7.36022C60.7337 6.75509 62.1997 6.18815 63.6777 5.65539C65.1577 5.12263 66.6497 4.62807 68.1517 4.16969C69.6557 3.71132 71.1697 3.28913 72.6937 2.90715C74.2177 2.52316 75.7517 2.17737 77.2917 1.86776C78.8337 1.56017 80.3817 1.29077 81.9357 1.05757C83.4897 0.826369 85.0477 0.633369 86.6117 0.478567C88.1757 0.323764 89.7417 0.20716 91.3117 0.130764C92.8817 0.0523578 94.4517 0.0141602 96.0237 0.0141602C97.5937 0.0141602 99.1637 0.0523578 100.734 0.130764C102.304 0.20716 103.87 0.323764 105.434 0.478567C106.998 0.633369 108.556 0.826369 110.11 1.05757C111.664 1.29077 113.212 1.56017 114.754 1.86776C116.294 2.17737 117.828 2.52316 119.352 2.90715C120.876 3.28913 122.39 3.71132 123.892 4.16969C125.396 4.62807 126.888 5.12263 128.368 5.65539C129.846 6.18815 131.312 6.75509 132.764 7.36022C134.216 7.96536 135.652 8.60467 137.072 9.28017C138.492 9.95567 139.896 10.6653 141.282 11.4092C142.668 12.1551 144.034 12.9331 145.382 13.7453C146.73 14.5555 148.056 15.4019 149.362 16.2784C150.67 17.157 151.954 18.0657 153.216 19.0066C154.478 19.9474 155.716 20.9185 156.93 21.9197C158.146 22.9229 159.334 23.9542 160.498 25.0137C161.664 26.0752 162.8 27.1648 163.912 28.2806C165.022 29.3984 166.106 30.5403 167.162 31.7124C168.216 32.8825 169.242 34.0766 170.24 35.299C171.236 36.5193 172.202 37.7638 173.138 39.0323C174.074 40.3009 174.978 41.5916 175.852 42.9064C176.724 44.2192 177.566 45.5521 178.372 46.9071C179.18 48.2621 179.954 49.6353 180.696 51.0285C181.436 52.4217 182.142 53.833 182.814 55.2604C183.486 56.6878 184.122 58.1313 184.724 59.5908C185.326 61.0504 185.89 62.524 186.42 64.0097C186.95 65.4975 187.442 66.9972 187.898 68.507C188.354 70.0189 188.774 71.5408 189.154 73.0727C189.536 74.6046 189.88 76.1466 190.188 77.6946C190.494 79.2447 190.762 80.8007 190.994 82.3628C191.224 83.9249 191.416 85.4911 191.57 87.0632C191.724 88.6353 191.84 90.2095 191.916 91.7877C191.994 93.3659 192.032 94.944 192.032 96.5242Z" fill="#FFB32C"/>
<path d="M145.886 173.64C144.772 174.764 126.758 192.449 97.2836 193.018C96.8656 193.018 96.4416 193.018 96.0236 193.018H94.2096C63.8736 192.361 46.1016 173.405 46.1016 173.405C48.8276 170.526 51.8656 168.035 55.2196 165.932L55.4996 165.751C57.4416 164.541 59.4496 163.451 61.5216 162.484L61.6776 162.41L62.2296 162.154C66.5056 160.24 70.9296 158.777 75.5016 157.764C77.4496 157.325 78.9636 157.066 79.8656 156.907C84.0636 156.173 83.1296 150.852 83.1296 150.852C83.1296 147.732 83.1296 144.613 83.1296 141.495L108.502 141.129C108.502 141.385 108.452 144.24 108.448 144.433C108.442 144.628 108.48 145.96 108.48 151.421C108.48 154.276 107.996 155.807 112.7 156.907C113.87 157.183 115.002 157.468 116.098 157.764C127.146 160.731 134.598 164.706 139.302 167.944C141.644 169.671 143.838 171.569 145.886 173.64Z" fill="#FFCCAB"/>
<path d="M108.506 151.403C108.506 145.942 108.47 144.585 108.474 144.414C108.48 144.244 108.52 141.365 108.526 141.111L83.1582 141.477V146.433C85.2702 148.783 91.9042 154.105 108.692 154.386C108.42 153.586 108.506 152.615 108.506 151.403Z" fill="#993E00" fill-opacity="0.098"/>
<path d="M148.196 83.1048C145.788 80.841 142.838 80.7124 140.394 81.2069C139.472 63.1614 130.372 44.2173 95.954 44.2173H95.732C61.31 44.2173 52.206 63.1896 51.294 81.2351C48.836 80.7305 45.866 80.8471 43.446 83.1229C38.382 87.8574 40.274 109.678 54.676 108.008C54.742 108.239 54.806 108.47 54.87 108.687C59.244 124.111 75.952 147.187 95.732 147.187H95.954C115.748 147.187 132.444 124.111 136.816 108.687L137.006 108.012C151.368 109.614 153.228 87.8293 148.196 83.1048Z" fill="#FFCCAB"/>
<path d="M96.0244 100.314C96.0244 100.314 93.8644 105.195 92.7684 108.078C91.6724 110.961 95.8444 113.283 95.8444 113.283C95.8444 113.283 99.0344 106.43 96.0244 100.314Z" fill="#993E00" fill-opacity="0.098"/>
<path d="M82.96 122.121C82.96 122.121 99.568 123.508 108.442 119.646C108.442 119.646 105.436 132.676 96.86 133.421C88.284 134.165 83.898 124.648 82.96 122.121Z" fill="#D82A33"/>
<path d="M96.142 124.8C104.018 124.24 105.054 122.977 105.35 122.121C105.504 121.626 105.622 121.123 105.708 120.613C99.084 122.523 90.15 122.462 85.708 122.277C85.92 123.011 86.226 123.703 86.628 124.35C87.124 124.911 88.272 125.355 96.142 124.8Z" fill="white"/>
<path d="M87.4561 129.451C89.7121 131.847 92.8241 133.767 96.8601 133.421C100.084 133.138 102.518 131.107 104.304 128.715C96.1701 122.853 89.2341 127.919 87.4561 129.451Z" fill="white" fill-opacity="0.4"/>
<path d="M98.4399 193.004H98.5639C103.032 192.892 107.47 192.465 111.878 191.727C116.286 190.988 120.62 189.944 124.882 188.593C129.144 187.242 133.292 185.6 137.324 183.664C141.358 181.728 145.236 179.518 148.96 177.035C146.086 173.596 142.85 170.542 139.252 167.874C135.816 165.345 132.146 163.224 128.242 161.515C124.338 159.804 120.294 158.544 116.112 157.735C116.112 157.735 114.27 173.7 96.0099 173.7C77.7479 173.7 75.4879 157.735 75.4879 157.735C70.7059 158.751 66.1039 160.301 61.6779 162.387C58.0359 164.11 54.5859 166.161 51.3279 168.535C48.0699 170.912 45.0599 173.573 42.2979 176.519C46.0639 179.08 49.9899 181.362 54.0799 183.36C58.1699 185.36 62.3779 187.057 66.7079 188.453C71.0399 189.846 75.4459 190.925 79.9299 191.687C84.4119 192.449 88.9279 192.885 93.4719 193H94.5259C95.0279 193 95.5359 193 96.0419 193H97.5319L98.4399 193.004Z" fill="#62E872"/>
<path d="M98.4399 193.004H98.5639C103.032 192.892 107.47 192.465 111.878 191.727C116.286 190.988 120.62 189.944 124.882 188.593C129.144 187.242 133.292 185.6 137.324 183.664C141.358 181.728 145.236 179.518 148.96 177.035C146.086 173.596 142.85 170.542 139.252 167.874C135.816 165.345 132.146 163.224 128.242 161.515C124.338 159.804 120.294 158.544 116.112 157.735C116.112 157.735 114.27 173.7 96.0099 173.7C77.7479 173.7 75.4879 157.735 75.4879 157.735C70.7059 158.751 66.1039 160.301 61.6779 162.387C58.0359 164.11 54.5859 166.161 51.3279 168.535C48.0699 170.912 45.0599 173.573 42.2979 176.519C46.0639 179.08 49.9899 181.362 54.0799 183.36C58.1699 185.36 62.3779 187.057 66.7079 188.453C71.0399 189.846 75.4459 190.925 79.9299 191.687C84.4119 192.449 88.9279 192.885 93.4719 193H94.5259C95.0279 193 95.5359 193 96.0419 193H97.5319L98.4399 193.004Z" fill="#072343"/>
<path d="M80.7896 93.1688C80.7916 93.388 80.7696 93.6071 80.7276 93.8242C80.6856 94.0394 80.6216 94.2484 80.5376 94.4535C80.4536 94.6566 80.3516 94.8496 80.2296 95.0345C80.1096 95.2175 79.9716 95.3863 79.8156 95.5432C79.6616 95.698 79.4916 95.8387 79.3096 95.9613C79.1276 96.084 78.9356 96.1865 78.7336 96.2709C78.5316 96.3554 78.3216 96.4197 78.1076 96.4619C77.8916 96.5061 77.6756 96.5283 77.4556 96.5283C77.2376 96.5283 77.0196 96.5061 76.8056 96.4639C76.5896 96.4217 76.3816 96.3574 76.1776 96.2729C75.9756 96.1885 75.7836 96.086 75.6016 95.9633C75.4196 95.8407 75.2496 95.702 75.0956 95.5472C74.9396 95.3904 74.8016 95.2215 74.6796 95.0385C74.5576 94.8556 74.4556 94.6626 74.3716 94.4595C74.2876 94.2545 74.2236 94.0454 74.1796 93.8303C74.1376 93.6132 74.1156 93.396 74.1156 93.1749C74.1156 92.9537 74.1376 92.7366 74.1796 92.5195C74.2216 92.3044 74.2856 92.0933 74.3696 91.8902C74.4536 91.6872 74.5556 91.4942 74.6776 91.3092C74.7996 91.1263 74.9376 90.9574 75.0936 90.8006C75.2476 90.6458 75.4156 90.5071 75.5996 90.3844C75.7816 90.2618 75.9736 90.1593 76.1756 90.0748C76.3776 89.9904 76.5876 89.926 76.8016 89.8838C77.0176 89.8396 77.2336 89.8175 77.4536 89.8175C77.6716 89.8175 77.8896 89.8396 78.1036 89.8818C78.3196 89.924 78.5276 89.9884 78.7296 90.0728C78.9316 90.1552 79.1256 90.2598 79.3076 90.3824C79.4896 90.503 79.6576 90.6418 79.8136 90.7986C79.9676 90.9534 80.1056 91.1222 80.2276 91.3052C80.3496 91.4881 80.4516 91.6811 80.5356 91.8862C80.6196 92.0893 80.6836 92.2983 80.7256 92.5135C80.7696 92.7306 80.7896 92.9477 80.7896 93.1688ZM113.64 89.8175C113.42 89.8175 113.204 89.8396 112.988 89.8838C112.774 89.926 112.564 89.9904 112.362 90.0748C112.16 90.1593 111.968 90.2618 111.784 90.3844C111.602 90.5071 111.434 90.6458 111.28 90.8006C111.124 90.9574 110.986 91.1263 110.864 91.3092C110.742 91.4942 110.64 91.6872 110.556 91.8902C110.472 92.0933 110.408 92.3044 110.366 92.5195C110.324 92.7366 110.302 92.9537 110.302 93.1749C110.302 93.396 110.324 93.6132 110.366 93.8303C110.41 94.0454 110.472 94.2545 110.556 94.4595C110.64 94.6626 110.744 94.8556 110.866 95.0385C110.988 95.2215 111.126 95.3904 111.282 95.5472C111.436 95.702 111.606 95.8407 111.788 95.9633C111.97 96.086 112.162 96.1885 112.364 96.2729C112.568 96.3574 112.776 96.4217 112.992 96.4639C113.206 96.5061 113.424 96.5283 113.642 96.5283C113.862 96.5283 114.078 96.5061 114.294 96.4619C114.508 96.4197 114.718 96.3554 114.92 96.2709C115.122 96.1865 115.314 96.084 115.496 95.9613C115.678 95.8387 115.848 95.698 116.002 95.5432C116.156 95.3863 116.296 95.2175 116.416 95.0345C116.538 94.8496 116.64 94.6566 116.724 94.4535C116.808 94.2484 116.872 94.0394 116.914 93.8242C116.956 93.6071 116.978 93.388 116.976 93.1688C116.976 92.9477 116.956 92.7306 116.912 92.5135C116.87 92.2983 116.806 92.0893 116.722 91.8862C116.638 91.6811 116.536 91.4881 116.414 91.3052C116.292 91.1222 116.154 90.9534 116 90.7986C115.844 90.6418 115.676 90.503 115.494 90.3824C115.312 90.2598 115.118 90.1552 114.916 90.0728C114.714 89.9884 114.506 89.924 114.29 89.8818C114.076 89.8396 113.858 89.8175 113.64 89.8175ZM104.144 80.4892C103.988 80.7666 103.928 81.0621 103.964 81.3778C104.004 81.6049 104.09 81.812 104.224 81.999C104.356 82.1859 104.524 82.3347 104.724 82.4473C104.936 82.5639 105.162 82.6302 105.404 82.6463C105.644 82.6644 105.878 82.6282 106.104 82.5398C106.104 82.5398 114.39 80.3364 118.46 79.9725C122.528 79.6066 127.398 81.8683 127.398 81.8683C125.558 79.2367 121.682 77.3428 118.652 77.0976C115.624 76.8523 105.57 79.3613 105.57 79.3613C104.938 79.5382 104.462 79.9142 104.144 80.4892ZM85.5496 79.2367C85.5496 79.2367 75.5116 76.7277 72.4716 76.9729C69.4336 77.2182 65.5356 79.116 63.7256 81.7437C63.7256 81.7437 68.5976 79.4819 72.6696 79.8518C76.7436 80.2218 85.0216 82.4192 85.0216 82.4192C85.4956 82.5961 85.9556 82.5659 86.4016 82.3267C86.8176 82.0874 87.0716 81.7316 87.1616 81.2571C87.1936 80.9415 87.1316 80.646 86.9776 80.3705C86.6576 79.7935 86.1816 79.4156 85.5496 79.2367Z" fill="#353535"/>
<path d="M147.902 56.9932C147.874 56.8163 147.846 56.6273 147.804 56.4001C145.866 45.2162 138.542 37.3514 133.23 32.8763C133.876 32.1103 134.606 31.4388 135.422 30.8578C136.47 30.1361 137.602 29.5872 138.816 29.2133C140.03 28.8373 141.272 28.6524 142.544 28.6564C138.87 27.6934 135.158 27.5084 131.408 28.1055C129.398 28.4332 127.452 28.9841 125.566 29.7581C125.006 28.0573 124.276 26.4349 123.378 24.8889C122.48 23.3429 121.432 21.9054 120.236 20.5785C119.04 19.2517 117.722 18.0635 116.278 17.0121C114.836 15.9626 113.302 15.072 111.674 14.3442C113.702 16.0109 115.284 18.0293 116.42 20.4016C117.056 21.7305 117.516 23.1177 117.8 24.5652C113.272 21.632 105.156 17.3377 94.6418 16.9357C71.1158 16.0109 48.9358 34.6072 44.0938 55.0914C42.8458 60.3607 42.6538 68.913 44.3378 77.6583C45.2178 82.23 46.5158 86.1443 48.3698 91.7292C50.6258 98.5164 52.8318 104.047 54.4698 107.925C53.5938 103.136 53.5318 98.3374 54.2818 93.5285C55.2018 87.5415 56.0998 81.9244 60.4858 78.6615C66.0338 74.5401 74.4018 76.2289 75.6118 76.5003C78.8338 77.2421 81.9918 78.8746 87.0658 78.3941C90.1578 78.0986 91.2858 77.2743 91.8978 76.5928C93.9738 74.2808 93.1638 70.3846 92.8838 69.0376C92.0738 65.1274 90.1578 64.2388 90.3798 60.9397C90.4338 60.0893 90.5318 58.6257 91.4518 57.4275C92.9298 55.5035 95.6218 55.4291 102.91 55.7206C110.09 56.0081 113.764 56.183 117.676 56.7982C123.886 57.8074 127.016 58.3543 128.328 60.3064C129.64 62.2585 128.48 63.2436 128.862 70.658C129.198 77.1899 130.244 79.4496 130.746 80.4628C131.794 82.4632 133.206 84.16 134.98 85.5512C135.992 86.1 136.788 86.87 137.37 87.8652C137.98 89.0272 138.218 90.2616 138.082 91.5664C137.76 96.9442 137.922 102.358 137.25 107.698C137.25 107.698 143.386 95.6214 146.576 81.5022C148.112 74.6587 149.36 66.603 147.902 56.9932Z" fill="#353535"/>
</g>
<defs>
<clipPath id="clip0_450_936">
<rect width="192" height="193" fill="white"/>
</clipPath>
</defs>
</svg>
