<svg width="361" height="361" viewBox="0 0 361 361" fill="none" xmlns="http://www.w3.org/2000/svg">
<circle cx="180.5" cy="180.5" r="180.5" fill="#9EE6FF"/>
<g clip-path="url(#clip0_377_931)">
<path d="M311.331 228.318H51.4431C45.1916 228.318 40.9784 221.91 43.5474 216.244C44.3841 214.406 45.5042 212.804 47.0052 211.839C52.6901 208.196 75.2377 204.002 75.2377 204.002C75.2377 204.002 77.5625 189.115 93.0153 185.685C108.465 182.258 110.839 178.601 115.586 170.702C120.333 162.803 140.507 147.489 152.375 151.609C164.24 155.728 171.953 134.946 171.953 134.946C171.953 134.946 163.647 124.484 174.327 115.054C185.006 105.62 198.059 112.106 198.059 112.106C198.059 112.106 214.457 104.446 223.466 109.161C232.475 113.872 235.825 123.972 237.414 126.882C239.003 129.791 255.615 128.759 261.548 139.295C267.483 149.835 263.329 157.243 268.668 162.676C274.011 168.11 289.438 169.728 295.371 187.782C301.303 205.836 303.084 208.907 309.612 212.972C311.029 213.856 312.533 214.529 314.021 215.156C320.937 218.082 318.849 228.318 311.331 228.318Z" fill="#7F453D"/>
<path d="M149.685 218.014C142.021 218.014 132.468 217.289 123.257 216.564C122.436 216.499 121.619 216.435 120.805 216.37C124.12 207.454 130.719 197.62 143.854 194.393C148.523 193.245 153.143 192.798 157.623 192.798C165.503 192.798 172.959 194.18 179.513 195.558C186.068 196.94 191.723 198.322 196.005 198.322C198.531 198.322 200.583 197.84 202.051 196.594C203.217 195.607 204.669 194.656 206.356 193.814L206.395 198.908L207.765 199.092L210.146 212.393L212.324 212.03C211.301 212.445 210.325 212.713 209.432 212.823C209.055 212.868 208.547 212.891 207.928 212.891C205.662 212.891 201.892 212.616 197.47 212.341C194.146 212.134 190.453 211.927 186.761 211.836L186.947 211.137L187.477 209.14C187.526 208.953 187.559 208.765 187.575 208.577C187.712 206.995 186.69 205.493 185.091 205.079L178.064 203.244C177.752 203.163 177.433 203.121 177.117 203.121C176.368 203.121 175.635 203.345 175.007 203.769L174.222 204.302L172.217 203.778C172.22 203.73 172.22 203.678 172.22 203.626C172.22 202.506 171.458 201.519 170.358 201.231L164.438 199.685C164.409 199.678 164.38 199.672 164.354 199.662C164.158 199.62 163.966 199.594 163.774 199.584C163.728 199.581 163.683 199.581 163.637 199.581C162.244 199.581 160.967 200.51 160.596 201.914L159.369 201.594C159.196 201.549 159.027 201.526 158.857 201.526C158.102 201.526 157.402 201.953 157.06 202.629C157.002 202.749 156.953 202.879 156.914 203.015L156.845 203.277L156.269 205.458C155.986 206.526 156.627 207.616 157.702 207.895L158.929 208.218C158.49 209.888 159.492 211.593 161.172 212.034L167.089 213.58C167.225 213.616 167.362 213.639 167.499 213.652C166.255 214.124 165.239 214.71 164.516 215.425C162.56 217.357 156.976 218.014 149.685 218.014ZM123.631 215.046C125.533 216.017 127.714 216.509 129.918 216.509C135.349 216.509 140.911 213.509 142.737 207.26C140.565 206.477 138.596 206.147 136.818 206.147C127.613 206.147 123.647 215.008 123.631 215.046ZM169.351 213.066C169.602 212.849 169.814 212.58 169.97 212.267L171.338 212.626C170.641 212.755 169.977 212.901 169.351 213.066ZM216.57 209.658L216.501 208.852L213.822 207.001L216.53 206.477L216.928 205.341L213.812 202.801L217.95 202.264L218.282 201.429L218.627 200.568L220.467 200.82L222.072 195.264L223.365 195.442L223.567 193.979L222.105 193.782C222.128 192.724 221.939 191.704 221.564 190.766C224.319 190.908 227.2 191.413 230.14 192.387C228.467 193.523 227.184 194.853 226.572 196.594C224.602 202.17 220.613 206.785 216.57 209.658Z" fill="#5C2E29"/>
<path d="M47.2364 227.243C43.6418 225.256 41.7175 220.836 43.3553 216.707C41.7566 220.836 43.6516 225.256 47.2364 227.243Z" fill="#A5A7A6"/>
<path d="M311.331 228.318H274.529C265.478 221.849 255.752 214.127 248.615 205.607C242.663 198.507 236.281 194.423 230.141 192.387C237.177 187.611 251.129 186.281 251.383 172.627C251.643 158.874 244.718 154.492 233.52 148.25C233.524 148.221 233.53 148.191 233.533 148.162C233.654 147.518 233.188 146.916 232.53 146.845C230.948 146.67 228.555 146.111 228.965 144.311C229.222 143.175 229.939 142.784 230.74 142.784C231.104 142.784 231.489 142.865 231.85 142.994C231.964 143.033 232.078 143.053 232.192 143.053C232.765 143.053 233.273 142.561 233.237 141.949C233.188 141.137 233.292 140.499 233.751 139.884C234.136 139.373 233.875 138.642 233.257 138.467C232.426 138.227 231.677 137.862 231.117 137.538C230.948 137.438 230.759 137.393 230.574 137.393C230.202 137.393 229.844 137.58 229.649 137.92C229.284 138.567 228.688 139.273 227.813 139.273C227.604 139.273 227.386 139.234 227.145 139.147C225.797 138.642 226.204 137.312 226.953 136.399C227.318 135.956 227.135 135.279 226.588 135.095C225.797 134.823 224.999 133.923 224.387 133.027C224.189 132.739 223.879 132.597 223.567 132.597C223.257 132.597 222.948 132.739 222.75 133.027C222.46 133.454 222.124 133.881 221.769 134.241C213.376 117.06 198.063 112.106 198.063 112.106C198.229 112.028 207.726 107.627 216.192 107.627C216.759 107.627 217.322 107.646 217.879 107.688C219.266 107.795 220.604 108.041 221.844 108.465C222.408 108.659 222.948 108.889 223.466 109.161C225.983 110.478 228.06 112.212 229.776 114.096C234.211 118.953 236.272 124.785 237.414 126.882C239.003 129.791 255.615 128.755 261.548 139.295C265.992 147.188 264.781 153.324 266.132 158.191L263.964 158.502L265.637 170.093L266.787 178.067C264.419 178.407 262.769 180.588 263.111 182.944L263.758 187.42L264.218 190.598L265.559 199.905L267.089 210.487C267.255 211.652 268.265 212.496 269.417 212.496C269.531 212.496 269.642 212.487 269.756 212.47L271.898 212.166L271.244 215.279C270.977 216.545 271.739 217.797 272.986 218.15L279.403 219.978C279.628 220.043 279.856 220.072 280.084 220.072C280.914 220.072 281.709 219.658 282.171 218.936L282.643 218.205C283.425 216.985 282.988 215.367 281.699 214.697L278.935 213.267C278.335 212.956 277.889 212.415 277.704 211.768L277.58 211.357L279.889 211.027C280.748 210.904 281.429 210.338 281.735 209.594C281.891 209.221 281.95 208.804 281.884 208.377L280.335 197.63C281.39 199.95 283.74 201.494 286.365 201.494C286.557 201.494 286.755 201.484 286.948 201.468C289.699 201.228 292.014 199.316 292.756 196.672C293.697 193.303 291.825 189.789 288.491 188.669L285.105 187.536C284.613 187.371 284.121 187.293 283.643 187.293C281.634 187.293 279.863 188.653 279.309 190.53L277.909 180.834C277.74 179.656 277.105 178.656 276.213 177.996C275.483 177.452 274.578 177.139 273.621 177.139C273.416 177.139 273.211 177.151 272.999 177.184L271.85 169.207L271.185 164.624C274.002 166.395 277.854 168 281.751 170.466C287.032 173.809 292.395 178.731 295.371 187.782C301.303 205.836 303.084 208.907 309.612 212.972C311.029 213.856 312.533 214.529 314.021 215.156C316.919 216.383 318.234 218.891 318.234 221.392C318.234 224.862 315.701 228.318 311.331 228.318ZM250.783 134.965C248.778 134.965 247.15 136.584 247.15 138.577C247.15 140.57 248.778 142.185 250.783 142.185C252.792 142.185 254.417 140.57 254.417 138.577C254.417 136.584 252.792 134.965 250.783 134.965ZM117.865 228.318H51.4431C49.8965 228.318 48.4672 227.923 47.2364 227.243C43.6516 225.256 41.7566 220.836 43.3553 216.707C43.3976 216.6 43.4432 216.493 43.4888 216.389C43.5116 216.338 43.5344 216.286 43.5572 216.234C46.1001 217.354 49.1574 218.059 52.5176 218.457C53.0223 219.224 53.8916 219.752 54.9075 219.752C55.0117 219.752 55.1191 219.745 55.2266 219.732L57.4797 219.493C58.1374 219.422 58.7463 219.205 59.2737 218.875C59.6612 218.878 60.0486 218.881 60.4426 218.881C72.2585 218.881 85.5038 216.551 93.0381 215.451C94.2005 216.697 95.9522 217.784 98.531 217.784C100.042 217.784 101.836 217.412 103.962 216.483C103.962 216.483 103.959 216.48 103.955 216.48C103.9 216.438 103.353 216.037 102.764 215.189C107.944 215.37 114.235 215.855 120.808 216.37C119.112 220.923 118.278 225.24 117.865 228.318Z" fill="#5C2E29"/>
<path d="M274.529 228.318H117.865C118.278 225.24 119.112 220.926 120.808 216.37C121.619 216.435 122.436 216.499 123.26 216.564C132.468 217.289 142.021 218.011 149.685 218.011C156.979 218.011 162.56 217.357 164.516 215.422C165.242 214.71 166.255 214.124 167.499 213.652C167.577 213.655 167.652 213.661 167.727 213.661C168.326 213.661 168.902 213.445 169.352 213.063C169.977 212.901 170.641 212.755 171.338 212.626L171.976 212.794L172.396 213.642C172.874 214.606 173.754 215.318 174.799 215.593L181.825 217.425C182.112 217.499 182.395 217.535 182.678 217.535C184.163 217.535 185.517 216.548 185.915 215.056L186.338 213.448L186.696 212.098L186.764 211.836C190.453 211.927 194.149 212.134 197.473 212.341C201.892 212.616 205.662 212.891 207.928 212.891C208.55 212.891 209.058 212.868 209.433 212.823C210.328 212.713 211.305 212.441 212.327 212.03L213.724 211.801L216.706 211.305L216.57 209.658C220.614 206.785 224.602 202.17 226.572 196.591C227.184 194.853 228.47 193.523 230.141 192.387C236.285 194.423 242.663 198.507 248.615 205.607C255.752 214.127 265.474 221.849 274.529 228.318Z" fill="#3D1F1C"/>
<path d="M236.418 221.354L245.317 214.671L243.539 197.083L240.869 197.575L236.021 205.435L238.297 208.581L236.021 210.742L231.375 212.312V213.788L234.341 216.143L232.364 219.878L236.418 221.354Z" fill="#6EBDE3"/>
<path d="M248.387 209.856L249.572 213.59L254.319 215.26L258.077 211.723L255.902 206.419L258.077 202.587L255.801 200.426L252.636 195.905L250.067 197.675L248.387 209.856Z" fill="#6EBDE3"/>
<path d="M246.01 219.289L249.276 218.011L254.417 222.334L249.074 226.166L244.428 225.085L246.01 219.289Z" fill="#6EBDE3"/>
<path d="M120.251 181.957C120.251 179.731 121.134 177.711 122.566 176.216C120.756 175.734 119.421 174.097 119.421 172.145C119.421 171.511 119.564 170.912 119.818 170.375C118.913 170.123 117.962 169.977 116.976 169.977C111.19 169.977 106.501 174.637 106.501 180.384C106.501 186.132 111.19 190.792 116.976 190.792C119.437 190.792 121.697 189.941 123.485 188.526C121.521 187.002 120.251 184.627 120.251 181.957Z" fill="#BF2136"/>
<path d="M110.995 179.572C109.562 179.572 108.4 178.417 108.4 176.993C108.4 175.569 109.562 174.414 110.995 174.414C112.427 174.414 113.593 175.569 113.593 176.993C113.593 178.417 112.427 179.572 110.995 179.572Z" fill="#D52842"/>
<path d="M100.68 202.51C100.605 202.519 100.527 202.519 100.452 202.5C100.152 202.422 99.97 202.121 100.048 201.824L100.774 199.008C100.849 198.71 101.152 198.533 101.455 198.607C101.754 198.685 101.937 198.989 101.858 199.287L101.132 202.099C101.077 202.319 100.891 202.474 100.68 202.51Z" fill="#5C2E29"/>
<path d="M92.9957 213.694L90.9835 211.791C90.9835 211.791 95.2326 211.383 95.9293 207.681C96.6229 203.979 94.0702 202.338 94.0702 202.338L100.553 201.717L105.824 204.561C105.824 204.561 101.022 205.095 101.243 210.244C101.396 214.703 103.962 216.483 103.962 216.483L97.6908 216.386L92.9957 213.694Z" fill="#DEB85C"/>
<path d="M90.9835 211.791C90.9835 211.791 93.3018 221.143 103.962 216.483C100.52 215.836 99.5597 213.202 99.5597 213.202C99.5597 213.202 96.0759 215.703 93.9432 211.856C92.8264 212.661 90.9835 211.791 90.9835 211.791Z" fill="#91A321"/>
<path d="M94.0702 202.338C94.0702 202.338 101.207 196.898 105.824 204.561C103.828 203.565 101.992 204.93 101.992 204.93C101.992 204.93 101.015 202.859 97.1927 204.063C96.0563 202.497 94.0702 202.338 94.0702 202.338Z" fill="#91A321"/>
<path d="M105.824 204.561C105.753 204.448 105.684 204.335 105.613 204.225C105.684 204.335 105.756 204.448 105.824 204.561Z" fill="#5C2E29"/>
<path d="M103.962 216.483C100.52 215.836 99.5598 213.202 99.5598 213.202C99.5598 213.202 99.436 213.292 99.2179 213.412L101.451 204.315C101.845 204.623 101.992 204.93 101.992 204.93C101.992 204.93 102.979 204.199 104.291 204.199C104.769 204.199 105.29 204.296 105.824 204.561C105.824 204.561 104.281 204.733 102.982 205.82C101.992 206.652 101.145 208.014 101.243 210.244C101.263 210.784 101.315 211.286 101.396 211.749C101.666 213.299 102.233 214.425 102.764 215.189C103.353 216.037 103.9 216.438 103.955 216.48C103.959 216.48 103.962 216.483 103.962 216.483Z" fill="#D6A441"/>
<path d="M98.5504 217.774C98.4169 217.774 98.2834 217.771 98.1499 217.765L99.2179 213.412C99.436 213.292 99.5597 213.202 99.5597 213.202C99.5597 213.202 100.52 215.836 103.962 216.483C101.839 217.409 100.058 217.774 98.5504 217.774Z" fill="#738323"/>
<path d="M101.992 204.93C101.992 204.93 101.846 204.623 101.452 204.315L102.243 201.083C103.408 201.636 104.564 202.604 105.603 204.209V204.212C105.606 204.215 105.609 204.218 105.613 204.225C105.684 204.335 105.753 204.448 105.824 204.561C105.29 204.296 104.769 204.199 104.291 204.199C102.979 204.199 101.992 204.93 101.992 204.93Z" fill="#738323"/>
<path d="M182.457 162.285C182.457 162.285 197.444 151.492 209.647 166.039C200.788 174.417 187.774 170.53 182.457 162.285Z" fill="#91A321"/>
<path d="M188.627 201.243C187.93 201.165 187.237 201.045 186.556 200.887C185.107 198.874 183.362 196.479 182.02 194.651L175.596 193.754C175.408 193.495 175.222 193.23 175.049 192.961C175.043 192.952 175.036 192.942 175.03 192.936C175.033 192.932 175.378 192.69 175.987 192.327L179.002 192.748L179.028 192.725C182.284 191.097 184.625 189.939 186.325 189.114C186.647 189.098 186.97 189.088 187.298 189.088C188.015 189.088 188.747 189.13 189.493 189.22C187.575 190.13 184.326 191.732 181.561 193.104L185.814 193.696C189.105 192.049 191.45 190.894 193.13 190.078C193.732 190.292 194.338 190.541 194.943 190.832C193.094 191.725 190.603 192.955 188.386 194.055L198.235 195.427C198.639 195.486 198.919 195.855 198.864 196.259C198.812 196.625 198.496 196.89 198.131 196.89C198.098 196.89 198.063 196.887 198.03 196.88L192.739 196.146C194.038 197.919 195.08 199.353 195.92 200.515C195.419 200.683 194.911 200.819 194.4 200.935C193.153 199.21 191.795 197.35 190.704 195.861L184.055 194.932C186.198 197.861 187.644 199.861 188.627 201.243Z" fill="#738323"/>
<path d="M123.631 215.046C123.631 215.046 129.264 202.393 142.741 207.26C140.172 216.04 130.231 218.409 123.631 215.046Z" fill="#E8A81B"/>
<path d="M134.151 215.881C132.445 215.118 130.397 214.218 128.828 213.532L124.312 215.364C124.081 215.263 123.853 215.16 123.631 215.046C123.634 215.04 123.765 214.752 124.019 214.292L126.142 213.432L126.151 213.406C127.646 211.124 128.727 209.49 129.518 208.312C130.163 207.895 130.859 207.516 131.618 207.192C130.716 208.503 129.212 210.768 127.942 212.7L130.931 211.487C132.445 209.176 133.526 207.545 134.311 206.383C134.783 206.293 135.271 206.228 135.779 206.189C134.913 207.467 133.761 209.202 132.741 210.752L139.667 207.94C139.735 207.914 139.807 207.901 139.875 207.901C140.097 207.901 140.302 208.027 140.393 208.244C140.507 208.526 140.37 208.846 140.087 208.963L136.365 210.471C137.889 211.137 139.11 211.678 140.1 212.118C139.836 212.415 139.559 212.697 139.273 212.962C137.804 212.309 136.212 211.61 134.933 211.053L130.26 212.953C132.767 214.046 134.47 214.807 135.636 215.334C135.151 215.545 134.656 215.729 134.151 215.881Z" fill="#E58E1A"/>
<path d="M233.253 138.467C232.426 138.231 231.677 137.862 231.117 137.538C230.606 137.24 229.939 137.409 229.649 137.923C229.2 138.723 228.392 139.609 227.145 139.147C225.797 138.645 226.204 137.312 226.95 136.402C227.318 135.956 227.135 135.279 226.588 135.095C225.797 134.823 224.999 133.923 224.387 133.03C223.99 132.454 223.143 132.454 222.749 133.03C222.137 133.923 221.336 134.823 220.548 135.095C220.001 135.279 219.819 135.956 220.184 136.402C220.929 137.312 221.34 138.645 219.992 139.147C218.745 139.609 217.937 138.723 217.485 137.923C217.195 137.409 216.531 137.24 216.016 137.538C215.456 137.862 214.71 138.231 213.88 138.467C213.262 138.645 213.001 139.373 213.385 139.888C213.844 140.502 213.945 141.137 213.9 141.949C213.857 142.68 214.59 143.24 215.283 142.994C216.446 142.583 217.794 142.654 218.172 144.311C218.582 146.111 216.185 146.67 214.603 146.845C213.949 146.92 213.48 147.518 213.6 148.162C213.756 148.991 213.88 150.149 213.708 151.382C213.639 151.894 214.03 152.347 214.548 152.382C215.603 152.453 216.661 152.858 217.517 153.288C218.129 153.596 218.862 153.149 218.836 152.466C218.803 151.651 219.096 150.822 220.262 150.512C222.854 149.822 223.169 153.016 223.169 153.016L222.984 156.162L223.567 156.291L224.149 156.162L223.967 153.016C223.967 153.016 224.283 149.822 226.871 150.512C228.037 150.822 228.33 151.651 228.298 152.466C228.272 153.149 229.007 153.596 229.62 153.288C230.476 152.858 231.531 152.453 232.586 152.382C233.103 152.347 233.497 151.894 233.426 151.382C233.256 150.149 233.377 148.991 233.533 148.162C233.654 147.518 233.188 146.92 232.53 146.845C230.948 146.67 228.552 146.111 228.965 144.311C229.343 142.654 230.691 142.583 231.85 142.994C232.543 143.24 233.279 142.68 233.237 141.949C233.188 141.137 233.289 140.502 233.751 139.888C234.136 139.373 233.875 138.645 233.253 138.467Z" fill="#F2592B"/>
<path d="M223.967 153.017C223.967 153.017 223.996 152.699 224.12 152.288C224 152.699 223.967 153.017 223.967 153.017Z" fill="#5C2E29"/>
<path d="M223.567 156.291L223.371 156.249L223.013 156.168V155.673L223.17 153.017C223.17 153.017 223.137 152.699 223.013 152.288V149.402C222.515 148.774 221.913 148.415 221.17 148.331C221.043 148.314 220.916 148.308 220.789 148.308C218.559 148.308 216.098 150.418 216.071 150.441C215.971 150.531 215.84 150.576 215.71 150.576C215.554 150.576 215.401 150.512 215.293 150.386C215.091 150.156 215.114 149.81 215.345 149.609C215.456 149.515 217.722 147.58 220.151 147.259L219.516 145.137C219.428 144.845 219.598 144.541 219.887 144.454C219.943 144.438 219.995 144.431 220.05 144.431C220.285 144.431 220.506 144.586 220.578 144.826L221.301 147.237C221.939 147.311 222.505 147.544 223.013 147.9V146.619C222.736 146.007 220.783 142.075 215.554 140.557C215.261 140.473 215.095 140.169 215.179 139.878C215.248 139.635 215.472 139.48 215.71 139.48C215.762 139.48 215.814 139.486 215.866 139.502C219.666 140.606 221.861 142.839 223.013 144.447V135.373C223.013 135.069 223.264 134.823 223.567 134.823C223.873 134.823 224.12 135.069 224.12 135.373V144.447C225.273 142.839 227.471 140.606 231.267 139.502C231.322 139.486 231.375 139.48 231.427 139.48C231.664 139.48 231.886 139.635 231.954 139.878C232.042 140.169 231.873 140.473 231.58 140.557C226.331 142.085 224.397 146.004 224.12 146.615V147.9C224.628 147.544 225.195 147.311 225.833 147.237L226.556 144.826C226.627 144.586 226.846 144.431 227.086 144.431C227.139 144.431 227.191 144.438 227.246 144.454C227.536 144.541 227.705 144.845 227.617 145.137L226.986 147.256C229.408 147.58 231.677 149.515 231.788 149.609C232.019 149.81 232.042 150.156 231.84 150.386C231.733 150.512 231.58 150.576 231.423 150.576C231.293 150.576 231.166 150.531 231.059 150.441C231.036 150.418 228.565 148.308 226.338 148.308C226.214 148.308 226.087 148.314 225.963 148.331C225.221 148.415 224.618 148.774 224.12 149.402V152.288C223.997 152.699 223.967 153.017 223.967 153.017L224.117 155.609L224.12 155.68V156.168L223.886 156.22L223.567 156.291Z" fill="#F04127"/>
<path d="M170.358 201.231L164.442 199.685C162.758 199.248 161.039 200.244 160.596 201.914L159.763 205.066L158.929 208.215C158.49 209.885 159.492 211.593 161.173 212.034L167.092 213.577C168.241 213.881 169.449 213.331 169.97 212.267L171.976 212.794L172.396 213.642C172.874 214.606 173.75 215.318 174.799 215.593L181.825 217.425C183.613 217.894 185.443 216.833 185.911 215.056L186.338 213.448L186.696 212.098L187.051 210.746L187.478 209.137C187.946 207.361 186.878 205.545 185.091 205.076L178.064 203.244C177.019 202.969 175.903 203.16 175.007 203.769L174.222 204.302L172.217 203.778C172.288 202.597 171.51 201.532 170.358 201.231Z" fill="#6EBDE3"/>
<path d="M156.917 203.015L156.269 205.458C155.989 206.522 156.627 207.616 157.702 207.895L158.929 208.215L160.596 201.914L159.369 201.591C158.294 201.312 157.197 201.95 156.917 203.015Z" fill="#F2592B"/>
<path d="M186.95 211.137L187.051 210.746L187.478 209.137L186.95 211.137Z" fill="#3D1F1C"/>
<path d="M186.95 211.137L173.353 207.587L174.222 204.302L172.217 203.778L171.347 207.063L160.02 204.105L160.596 201.914C160.967 200.51 162.244 199.581 163.637 199.581C163.683 199.581 163.728 199.581 163.777 199.584C163.966 199.594 164.158 199.62 164.354 199.662C164.383 199.672 164.409 199.678 164.442 199.685L170.358 201.231C171.461 201.516 172.22 202.506 172.22 203.626C172.22 203.678 172.22 203.726 172.217 203.778L174.222 204.302L175.007 203.769C175.636 203.345 176.371 203.121 177.117 203.121C177.433 203.121 177.752 203.16 178.064 203.244L185.091 205.076C186.69 205.493 187.712 206.995 187.575 208.577C187.559 208.765 187.526 208.95 187.477 209.137L187.051 210.746L186.95 211.137Z" fill="#58A6DC"/>
<path d="M160.02 204.105L156.845 203.277L156.917 203.015C156.953 202.879 157.002 202.749 157.063 202.626C157.402 201.953 158.102 201.526 158.858 201.526C159.027 201.526 159.196 201.549 159.369 201.591L160.596 201.914L160.02 204.105Z" fill="#F04127"/>
<path d="M171.976 212.794L169.97 212.267L171.347 207.063L173.353 207.587L171.976 212.794Z" fill="#58A6DC"/>
<path d="M126.242 219.797L124.237 219.273L125.106 215.988L127.112 216.512L126.242 219.797Z" fill="#4988CF"/>
<path d="M188.086 126.38L172.66 142.428L166.577 136.658L182.007 120.61L188.086 126.38Z" fill="#D3C3C7"/>
<path d="M186.006 128.542L182.304 125.027L183.219 124.073L186.921 127.59L186.67 127.852L186.006 128.542Z" fill="#E0D4D6"/>
<path d="M184.847 129.749L186.006 128.542L179.927 122.772L178.765 123.979L184.847 129.749Z" fill="#B79FA6"/>
<path d="M180.174 132.749C179.966 132.749 179.758 132.674 179.595 132.519L177.244 130.286L178.403 129.082L180.754 131.312C181.089 131.629 181.102 132.157 180.78 132.49C180.617 132.665 180.396 132.749 180.174 132.749Z" fill="#C7B4B8"/>
<path d="M172.494 131.451C171.673 132.305 172.155 134.085 173.571 135.428C174.988 136.771 176.801 137.169 177.622 136.315C178.442 135.461 177.964 133.677 176.547 132.334C175.131 130.992 173.317 130.597 172.494 131.451Z" fill="#BF2136"/>
<path d="M164.998 142.926L166.743 144.583L170.953 140.81L168.599 138.577L164.998 142.926Z" fill="#BF2136"/>
<path d="M168.954 138.91L168.599 138.577L166.577 136.658L178.764 123.979L181.141 126.234L178.403 129.082L177.381 128.111C177.218 127.956 177.01 127.882 176.801 127.882C176.58 127.882 176.358 127.969 176.196 128.137C175.873 128.474 175.886 129.001 176.222 129.318L177.244 130.286L175.831 131.758C175.105 131.263 174.343 130.998 173.692 130.998C173.207 130.998 172.787 131.144 172.493 131.451C171.806 132.166 172.034 133.532 172.956 134.745L168.954 138.91ZM183.219 124.073L181.513 122.455C182.02 122.192 182.46 121.811 182.789 121.351L184.381 122.862L183.219 124.073Z" fill="#C7B4B8"/>
<path d="M182.304 125.027L180.018 122.859C180.555 122.833 181.06 122.688 181.513 122.455L183.219 124.073L182.304 125.027Z" fill="#D8C8CC"/>
<path d="M181.141 126.234L178.765 123.979L179.839 122.862C179.898 122.862 179.956 122.862 180.018 122.859L182.304 125.027L181.141 126.234Z" fill="#A3868D"/>
<path d="M177.244 130.286L176.222 129.318C175.886 129.001 175.873 128.474 176.196 128.137C176.358 127.969 176.58 127.882 176.801 127.882C177.009 127.882 177.218 127.956 177.381 128.111L178.403 129.082L177.244 130.286Z" fill="#B79FA6"/>
<path d="M172.956 134.745C172.034 133.532 171.806 132.166 172.493 131.451C172.787 131.144 173.207 130.998 173.692 130.998C174.343 130.998 175.105 131.263 175.831 131.758L172.956 134.745Z" fill="#AB1B2A"/>
<path d="M210.328 210.183L214.896 185.565C215.062 184.679 215.632 183.921 216.439 183.51L225.221 179.074C225.595 178.886 226.048 179.012 226.266 179.365C226.513 179.766 226.36 180.287 225.94 180.494L217.205 184.828C216.791 185.031 216.495 185.417 216.407 185.866L211.529 210.412C211.467 210.726 211.168 210.94 210.846 210.898C210.5 210.849 210.266 210.526 210.328 210.183Z" fill="#91A321"/>
<path d="M222.066 194.394C222.492 190.248 219.539 186.484 215.352 185.915C211.168 185.345 207.303 188.183 206.593 192.29L222.066 194.394Z" fill="#87D4EB"/>
<path d="M207.505 197.63L210.146 212.393L216.706 211.305L216.505 208.852L213.822 207.001L216.534 206.474L216.928 205.338L213.812 202.801L217.95 202.264L219.324 198.821L207.505 197.63Z" fill="#6EBDE3"/>
<path d="M214.238 201.552L213.314 201.426L213.62 199.888L215.453 200.138L214.238 201.552ZM211.985 201.248L208.055 200.71L207.766 199.092L212.272 199.707L211.985 201.248Z" fill="#58A6DC"/>
<path d="M215.941 196.575L214.32 196.355L214.736 194.267L216.231 194.471L215.941 196.575ZM212.929 196.164L206.369 195.271L206.352 193.128L213.317 194.073L212.929 196.164Z" fill="#58A6DC"/>
<path d="M222.098 193.782L216.433 193.008L217.335 186.462C220.242 187.682 222.173 190.568 222.098 193.782Z" fill="#6FC6E6"/>
<path d="M213.724 211.801L212.796 204.047L213.004 202.995L214.238 201.552L218.028 202.066L218.627 200.568L218.285 201.426L217.95 202.264L213.815 202.801L216.928 205.338L216.534 206.474L213.825 207.001L216.504 208.853L216.706 211.305L213.724 211.801Z" fill="#58A6DC"/>
<path d="M218.028 202.066L214.238 201.552L215.453 200.138L218.627 200.568L218.028 202.066Z" fill="#4988CF"/>
<path d="M220.467 200.82L218.624 200.571L215.453 200.138L215.941 196.575L221.476 197.325L222.072 195.264L220.467 200.82ZM223.365 195.442L222.072 195.264L216.231 194.471L216.433 193.008L222.098 193.782L223.567 193.979L223.365 195.442Z" fill="#58A6DC"/>
<path d="M221.476 197.325L215.944 196.575L216.231 194.471L222.072 195.264L221.476 197.325Z" fill="#4988CF"/>
<path d="M205.258 191.491L205.057 192.95L206.352 193.128L206.395 198.908L220.467 200.82L222.072 195.264L223.365 195.442L223.567 193.979L205.258 191.491Z" fill="#6EBDE3"/>
<path d="M216.355 186.119C216.029 186.031 215.694 185.963 215.352 185.915C215.183 185.892 215.01 185.876 214.841 185.863L214.896 185.565C215.059 184.679 215.629 183.921 216.439 183.514L225.221 179.074C225.335 179.015 225.462 178.99 225.582 178.99C225.852 178.99 226.116 179.125 226.266 179.368C226.347 179.498 226.383 179.64 226.383 179.782C226.383 180.074 226.224 180.355 225.94 180.494L217.201 184.828C216.791 185.035 216.495 185.417 216.404 185.866L216.355 186.119Z" fill="#91A321"/>
<path d="M215.023 192.817L213.587 192.62L214.841 185.863C215.01 185.876 215.183 185.892 215.352 185.915C215.697 185.96 216.032 186.031 216.355 186.119L215.023 192.817Z" fill="#88BD6F"/>
<path d="M210.93 210.901C210.901 210.901 210.875 210.901 210.846 210.898C210.5 210.849 210.266 210.526 210.328 210.186L211.985 201.248L213.314 201.426L213.001 202.995L212.708 203.338L212.793 204.047L211.529 210.412C211.474 210.7 211.217 210.901 210.93 210.901Z" fill="#78B16D"/>
<path d="M213.317 201.426L211.989 201.244L212.272 199.707L213.62 199.888L213.317 201.426Z" fill="#6BA76B"/>
<path d="M213.62 199.888L212.275 199.707L212.929 196.164L214.323 196.355L213.62 199.888ZM214.74 194.267L213.32 194.073L213.587 192.62L215.026 192.818L214.74 194.267Z" fill="#78B16D"/>
<path d="M214.323 196.355L212.929 196.164L213.32 194.073L214.74 194.267L214.323 196.355Z" fill="#6BA76B"/>
<path d="M212.793 204.047L212.711 203.338L213.004 202.995L212.793 204.047Z" fill="#6BA76B"/>
<path d="M175.43 189.526C175.202 189.526 174.975 189.494 174.75 189.429L168.332 187.604C167.085 187.248 166.323 185.996 166.59 184.734L167.694 179.504C167.903 178.507 168.707 177.744 169.716 177.579C169.853 177.559 169.986 177.546 170.12 177.546C171.204 177.546 172.184 178.258 172.497 179.323L173.05 181.219C173.239 181.866 173.682 182.407 174.284 182.718L177.049 184.151C178.335 184.818 178.771 186.439 177.99 187.656L177.521 188.387C177.058 189.109 176.261 189.526 175.43 189.526Z" fill="#5C2E29"/>
<path d="M280.084 220.072C279.856 220.072 279.628 220.043 279.4 219.978L272.983 218.15C271.736 217.797 270.977 216.545 271.244 215.279L271.898 212.166L272.462 212.085L273.914 211.878L275.731 211.619L277.18 211.412L277.58 211.357L277.701 211.768C277.889 212.415 278.335 212.956 278.935 213.267L281.699 214.697C282.988 215.367 283.425 216.988 282.64 218.205L282.171 218.936C281.709 219.658 280.914 220.072 280.084 220.072Z" fill="#3D1F1C"/>
<path d="M231.257 172.139C228.089 172.139 225.325 169.89 224.742 166.741L224.101 163.249C223.573 160.385 225.839 157.939 228.535 157.939C229.014 157.939 229.506 158.016 229.997 158.181L233.384 159.317C236.714 160.437 238.59 163.948 237.646 167.317C236.906 169.964 234.591 171.873 231.84 172.113C231.645 172.129 231.449 172.139 231.257 172.139Z" fill="#5C2E29"/>
<path d="M286.365 201.494C283.737 201.494 281.39 199.95 280.331 197.63L279.309 190.53C279.859 188.653 281.634 187.293 283.643 187.293C284.121 187.293 284.613 187.371 285.101 187.536L288.488 188.669C291.825 189.789 293.694 193.303 292.753 196.672C292.014 199.316 289.699 201.228 286.947 201.468C286.752 201.484 286.557 201.494 286.365 201.494Z" fill="#3D1F1C"/>
<path d="M148.145 170.268C146.332 169.372 144.961 167.666 144.574 165.556L143.929 162.061C143.405 159.201 145.668 156.754 148.364 156.754C148.842 156.754 149.334 156.832 149.825 156.997L153.212 158.133C154.078 158.421 154.843 158.874 155.488 159.44C154.934 159.88 154.661 160.605 154.823 161.317L155.032 162.227C155.247 163.155 154.722 164.094 153.817 164.408L151.294 165.281C150.838 165.44 150.46 165.767 150.239 166.197L149.246 168.126L148.862 168.877L148.425 169.725L148.162 170.229L148.145 170.268Z" fill="#5C2E29"/>
<path d="M179.833 122.862C177.827 122.862 176.199 121.248 176.199 119.254C176.199 117.257 177.827 115.643 179.833 115.643C181.838 115.643 183.466 117.257 183.466 119.254C183.466 120.037 183.215 120.759 182.789 121.351L182.008 120.61L180.842 121.82L179.927 122.772L179.839 122.862C179.836 122.862 179.833 122.862 179.833 122.862Z" fill="#5C2E29"/>
<path d="M181.513 122.455L180.842 121.82L182.007 120.61L182.789 121.351C182.46 121.811 182.02 122.193 181.513 122.455Z" fill="#B79FA6"/>
<path d="M180.018 122.859L179.927 122.772L180.842 121.82L181.513 122.455C181.06 122.688 180.555 122.833 180.018 122.859Z" fill="#CCB9BD"/>
<path d="M179.839 122.863L179.927 122.772L180.018 122.859C179.956 122.863 179.897 122.863 179.839 122.863Z" fill="#88646F"/>
<path d="M250.783 142.188C248.774 142.188 247.146 140.57 247.146 138.577C247.146 136.584 248.774 134.965 250.783 134.965C252.789 134.965 254.417 136.584 254.417 138.577C254.417 140.57 252.789 142.188 250.783 142.188Z" fill="#3D1F1C"/>
<path d="M132.494 182.737C130.485 182.737 128.86 181.119 128.86 179.125C128.86 177.132 130.485 175.514 132.494 175.514C134.5 175.514 136.128 177.132 136.128 179.125C136.128 181.119 134.5 182.737 132.494 182.737Z" fill="#A45E50"/>
<path d="M87.3011 198.568C85.442 198.568 83.7521 197.335 83.2474 195.481C82.7916 193.801 83.4298 192.015 84.8526 190.999C85.5917 190.475 86.4513 190.216 87.3011 190.216C88.4798 190.216 89.6487 190.708 90.4757 191.649L91.9637 193.348C93.3995 194.989 92.5335 197.555 90.3943 198.008L88.1802 198.474C87.8839 198.539 87.5909 198.568 87.3011 198.568Z" fill="#A45E50"/>
<path d="M59.2704 218.875C56.9359 218.842 54.6665 218.713 52.5176 218.46C52.0259 217.71 51.8761 216.732 52.2766 215.791L53.159 213.716C53.833 212.131 55.3861 211.166 57.0303 211.166C57.5024 211.166 57.9843 211.244 58.4532 211.412C60.1007 212.001 61.211 213.545 61.2338 215.286C61.2533 216.784 60.4719 218.121 59.2704 218.875Z" fill="#A45E50"/>
<path d="M54.9075 219.752C53.8916 219.752 53.0223 219.224 52.5176 218.461C54.6665 218.713 56.9359 218.842 59.2705 218.875C58.7463 219.205 58.1374 219.422 57.4797 219.493L55.2265 219.732C55.1191 219.745 55.0117 219.752 54.9075 219.752Z" fill="#7E3E37"/>
<path d="M296.878 213.428C296.435 212.988 292.997 209.008 292.997 209.008L296.139 203.924L300.206 203.481L306.597 207.461L296.878 213.428Z" fill="#B79FA6"/>
<path d="M294.456 215.079L300.574 218.321L308.743 216.7L312.009 210.364L306.223 204.691L297.914 206.755L294.456 215.079Z" fill="#D3C3C7"/>
<path d="M312.009 210.364L306.223 204.691L303.683 205.322C303.839 208.665 304.071 213.092 304.071 213.092C304.071 213.092 299.721 215.05 296.872 216.36L300.574 218.321L308.743 216.7L312.009 210.364Z" fill="#B79FA6"/>
<path d="M273.002 177.184L270.176 157.615L267.975 157.929L266.161 158.188L263.964 158.502L266.786 178.067C264.416 178.407 262.769 180.588 263.11 182.944L267.086 210.487C267.275 211.765 268.467 212.655 269.756 212.47L272.465 212.085L273.914 211.878L275.731 211.619L277.18 211.412L279.888 211.027C281.175 210.843 282.07 209.658 281.884 208.377L277.909 180.834C277.57 178.478 275.372 176.844 273.002 177.184Z" fill="#C7B4B8"/>
<path d="M276.141 202.358L266.122 203.785L263.755 187.42L273.777 185.993L276.141 202.358Z" fill="#E68F3F"/>
<path d="M265.559 199.908L264.214 190.598L264.38 191.727L265.559 199.908Z" fill="#3D1F1C"/>
<path d="M266.422 199.963C266.129 199.963 265.842 199.943 265.559 199.905L264.377 191.727L264.218 190.598C264.745 190.365 265.318 190.196 265.927 190.109C266.243 190.064 266.555 190.041 266.861 190.041C269.6 190.041 271.934 191.766 272.286 194.196C272.677 196.901 270.462 199.452 267.34 199.898C267.031 199.94 266.725 199.963 266.422 199.963Z" fill="#E17130"/>
<path d="M271.846 169.207L270.173 157.615L263.964 158.502L265.637 170.094L271.846 169.207Z" fill="#2E3247"/>
<path d="M265.477 168.98L265.315 167.867L269.456 167.278L269.616 168.391L265.477 168.98Z" fill="#1F222F"/>
<path d="M276.209 177.996C275.48 177.452 274.575 177.139 273.621 177.139C274.578 177.139 275.48 177.452 276.209 177.996Z" fill="#3D1F1C"/>
<path d="M275.858 211.6L274.555 202.584L276.141 202.358L273.777 185.993L272.191 186.216L269.775 169.501L271.849 169.207L273.002 177.184C273.207 177.151 273.416 177.139 273.621 177.139C274.578 177.139 275.48 177.452 276.212 177.996C277.101 178.656 277.739 179.656 277.909 180.834L281.888 208.377C281.949 208.804 281.891 209.221 281.735 209.594C281.429 210.338 280.748 210.904 279.888 211.027L275.858 211.6Z" fill="#B79FA6"/>
<path d="M274.552 202.584L272.191 186.216L273.777 185.993L276.141 202.358L274.552 202.584Z" fill="#E17130"/>
<path d="M269.775 169.505L269.616 168.391L271.687 168.094L271.846 169.207L269.775 169.505ZM269.453 167.278L268.102 157.913L270.173 157.615L271.524 166.984L269.453 167.278Z" fill="#1F222F"/>
<path d="M269.616 168.391L269.456 167.278L271.527 166.98L271.687 168.094L269.616 168.391Z" fill="#161820"/>
<path d="M164.679 156.69L164.175 156.906L164.774 158.376L165.272 158.204C165.721 158.049 165.943 157.544 165.75 157.11C165.571 156.702 165.093 156.515 164.679 156.69Z" fill="#1A1C26"/>
<path d="M150.239 166.197L141.819 182.562C141.086 183.986 141.656 185.73 143.089 186.459L150.19 190.067C151.626 190.795 153.381 190.229 154.114 188.805L162 173.482C163.113 171.317 163.041 168.738 161.814 166.637L159.58 162.822C159.17 162.123 159.505 161.223 160.277 160.955L163.641 159.793C164.64 159.447 165.132 158.33 164.705 157.366C164.305 156.46 163.243 156.046 162.328 156.437L155.914 159.188C155.081 159.544 154.621 160.44 154.823 161.317L155.032 162.227C155.247 163.155 154.722 164.094 153.817 164.408L151.294 165.281C150.838 165.44 150.46 165.767 150.239 166.197Z" fill="#E8A81B"/>
<path d="M162.328 156.437L161.208 156.916L162.537 160.175L163.641 159.793C164.64 159.447 165.132 158.33 164.705 157.366C164.305 156.46 163.243 156.046 162.328 156.437Z" fill="#2E3247"/>
<path d="M156.416 172.715L148.862 168.877L149.246 168.126L149.705 167.236L157.259 171.074L156.416 172.715Z" fill="#E58E1A"/>
<path d="M142.848 180.559L155.146 186.805L160.72 175.967L148.425 169.725L142.848 180.559Z" fill="#BF2136"/>
<path d="M149.373 186.4L141.819 182.562L142.464 181.307L150.021 185.145L149.373 186.4Z" fill="#E58E1A"/>
<path d="M150.806 183.617L143.252 179.779L143.896 178.524L151.453 182.362L150.806 183.617Z" fill="#AB1B2A"/>
<path d="M153.902 174.148C152.505 173.44 150.688 174.2 149.839 175.851C148.992 177.498 149.435 179.41 150.828 180.119C152.225 180.828 154.045 180.067 154.892 178.417C155.742 176.766 155.299 174.857 153.902 174.148Z" fill="#E8A81B"/>
<path d="M151.515 190.384C151.069 190.384 150.617 190.28 150.19 190.067L148.048 188.976L149.373 186.4L154.114 188.805C153.817 189.384 153.352 189.818 152.808 190.083C152.407 190.28 151.965 190.384 151.515 190.384ZM154.758 187.549L150.021 185.145L150.405 184.397L155.146 186.805L154.758 187.549ZM157.65 181.934L160.72 175.967L155.979 173.563L156.416 172.715L161.156 175.119L162 173.482L157.65 181.934ZM162 173.482L157.259 171.074L160.603 164.576L161.814 166.637C162.462 167.744 162.788 168.987 162.788 170.229C162.788 171.343 162.524 172.456 162 173.482Z" fill="#E58E1A"/>
<path d="M161.156 175.119L156.416 172.715L157.259 171.074L162 173.482L161.156 175.119Z" fill="#E36F19"/>
<path d="M155.146 186.805L150.405 184.397L150.806 183.617L155.546 186.022L155.146 186.805ZM155.843 185.449L156.191 184.766L151.453 182.362L152.499 180.326C153.449 180.135 154.361 179.449 154.892 178.417C155.422 177.384 155.449 176.249 155.051 175.368L155.979 173.563L160.72 175.967L157.65 181.934L155.843 185.449Z" fill="#AB1B2A"/>
<path d="M154.114 188.805L149.373 186.4L150.021 185.145L154.758 187.549L154.114 188.805Z" fill="#E36F19"/>
<path d="M155.546 186.022L150.806 183.617L151.453 182.362L156.191 184.766L155.843 185.449L155.546 186.022Z" fill="#8E1822"/>
<path d="M152.499 180.326L155.051 175.368C155.449 176.249 155.423 177.384 154.892 178.417C154.361 179.449 153.449 180.135 152.499 180.326Z" fill="#E58E1A"/>
<mask id="mask0_377_931" style="mask-type:luminance" maskUnits="userSpaceOnUse" x="24" y="228" width="313" height="6">
<path d="M24.2134 228.001H336.787V233.055H24.2134V228.001Z" fill="white"/>
</mask>
<g mask="url(#mask0_377_931)">
<path d="M336.712 230.69C336.712 229.379 335.64 228.318 334.325 228.318H26.6781C25.3595 228.318 24.2915 229.379 24.2915 230.69C24.2915 232 25.3595 233.062 26.6781 233.062H334.325C335.64 233.062 336.712 232 336.712 230.69Z" fill="#48597E"/>
</g>
</g>
<defs>
<clipPath id="clip0_377_931">
<rect width="312.573" height="310.667" fill="white" transform="translate(24.2134 38.2865)"/>
</clipPath>
</defs>
</svg>
