<svg width="285" height="251" viewBox="0 0 285 251" fill="none" xmlns="http://www.w3.org/2000/svg">
<mask id="mask0_513_1226" style="mask-type:luminance" maskUnits="userSpaceOnUse" x="6" y="35" width="274" height="181">
<path d="M6.08008 35.2236H279.68V215.944H6.08008V35.2236Z" fill="white"/>
</mask>
<g mask="url(#mask0_513_1226)">
<path d="M221.122 64.3267L232.444 54.3547C232.715 54.1141 232.958 53.8527 233.172 53.5729C233.385 53.2905 233.567 52.9925 233.715 52.6787C233.86 52.365 233.973 52.0434 234.048 51.7113C234.122 51.3793 234.16 51.042 234.16 50.7021C234.16 50.3648 234.122 50.0275 234.048 49.6955C233.973 49.3634 233.86 49.0418 233.715 48.7281C233.567 48.4143 233.385 48.1163 233.172 47.8339C232.958 47.5541 232.715 47.2927 232.444 47.0521C232.171 46.8142 231.874 46.5998 231.554 46.4116C231.236 46.2233 230.898 46.0638 230.541 45.9331C230.185 45.805 229.82 45.7056 229.443 45.6403C229.066 45.5723 228.683 45.5409 228.297 45.5409C227.914 45.5409 227.531 45.5723 227.154 45.6403C226.777 45.7056 226.412 45.805 226.056 45.9331C225.699 46.0638 225.361 46.2233 225.043 46.4116C224.723 46.5998 224.426 46.8116 224.153 47.0521L211.806 57.9288C191.725 45.0154 168.245 35.3362 142.91 35.3362C68.2369 35.3362 9.56846 119.33 7.10736 122.906C6.83127 123.309 6.62049 123.738 6.47502 124.193C6.32955 124.648 6.2583 125.111 6.2583 125.584C6.2583 126.054 6.32955 126.52 6.47502 126.972C6.62049 127.427 6.83127 127.856 7.10736 128.261C15.031 139.308 23.8511 149.766 33.5738 159.636C43.2964 169.504 53.8058 178.67 65.1078 187.136L53.3783 197.469C53.1052 197.707 52.8617 197.968 52.648 198.251C52.4342 198.533 52.2531 198.829 52.1047 199.142C51.9563 199.456 51.8464 199.78 51.7692 200.112C51.695 200.445 51.6564 200.779 51.6564 201.119C51.6564 201.459 51.695 201.794 51.7692 202.128C51.8435 202.46 51.9533 202.785 52.1017 203.096C52.2502 203.409 52.4313 203.708 52.645 203.99C52.8588 204.272 53.1022 204.534 53.3724 204.774C53.6455 205.012 53.9424 205.227 54.263 205.415C54.5836 205.603 54.9191 205.763 55.2753 205.893C55.6316 206.021 55.9997 206.121 56.3767 206.186C56.7538 206.251 57.1367 206.285 57.5227 206.285C57.9056 206.285 58.2886 206.251 58.6656 206.186C59.0427 206.118 59.4108 206.021 59.7671 205.891C60.1203 205.76 60.4588 205.6 60.7794 205.412C61.1 205.224 61.3969 205.01 61.667 204.769L74.4505 193.508C94.4361 206.285 117.759 215.829 142.91 215.829C217.583 215.829 276.254 131.835 278.712 128.261C278.991 127.856 279.202 127.427 279.345 126.972C279.49 126.52 279.561 126.054 279.561 125.584C279.561 125.111 279.49 124.648 279.345 124.193C279.202 123.738 278.991 123.309 278.712 122.906C270.836 111.925 262.073 101.524 252.421 91.7066C242.767 81.8862 232.335 72.7613 221.122 64.3267ZM19.0774 125.581C29.6372 111.381 81.8219 45.6638 142.91 45.6638C148.372 45.8834 153.781 46.4743 159.137 47.4312C164.493 48.3908 169.735 49.7085 174.86 51.3845C179.984 53.0631 184.93 55.0763 189.7 57.4294C194.468 59.7825 199.004 62.4442 203.303 65.417L173.473 91.6909C172.303 90.8725 171.095 90.0986 169.848 89.377C168.601 88.6528 167.319 87.9808 166.001 87.3612C164.683 86.7415 163.335 86.1741 161.96 85.6643C160.583 85.1518 159.185 84.6943 157.76 84.2969C156.338 83.8968 154.895 83.5543 153.437 83.272C151.979 82.987 150.51 82.7621 149.025 82.5974C147.544 82.4327 146.057 82.3255 144.563 82.281C143.07 82.234 141.58 82.247 140.087 82.3202C138.596 82.3961 137.112 82.5294 135.633 82.7229C134.155 82.9138 132.691 83.1674 131.24 83.4785C129.788 83.7896 128.357 84.1557 126.941 84.5819C125.528 85.008 124.141 85.4891 122.776 86.0277C121.413 86.5663 120.08 87.1572 118.777 87.8004C117.477 88.4462 116.209 89.1417 114.98 89.8868C113.748 90.632 112.56 91.4268 111.411 92.2687C110.263 93.1106 109.161 93.997 108.104 94.9278C107.047 95.8586 106.044 96.8286 105.088 97.8404C104.132 98.8496 103.23 99.8981 102.383 100.983C101.534 102.066 100.745 103.182 100.014 104.327C99.2811 105.475 98.6102 106.649 98.0016 107.849C97.39 109.052 96.8438 110.273 96.3599 111.52C95.876 112.764 95.4574 114.025 95.1041 115.303C94.7538 116.582 94.4658 117.873 94.2461 119.173C94.0294 120.475 93.878 121.782 93.7919 123.097C93.7088 124.41 93.6939 125.725 93.7444 127.04C93.7978 128.355 93.9166 129.665 94.1066 130.97C94.2936 132.274 94.5489 133.571 94.8696 134.855C95.1931 136.139 95.582 137.41 96.0333 138.662C96.4875 139.917 97.0041 141.148 97.586 142.362C98.1678 143.572 98.812 144.759 99.5156 145.92C100.219 147.081 100.982 148.21 101.802 149.308C102.624 150.409 103.5 151.473 104.432 152.501L73.548 179.703C63.0505 171.872 53.2417 163.422 44.1158 154.357C34.9899 145.29 26.6447 135.697 19.0774 125.581ZM180.381 125.584C180.384 127.092 180.269 128.596 180.037 130.091C179.805 131.587 179.458 133.061 178.998 134.515C178.535 135.969 177.962 137.389 177.279 138.772C176.596 140.157 175.81 141.493 174.916 142.782C174.025 144.071 173.037 145.3 171.953 146.472C170.87 147.64 169.7 148.739 168.447 149.766C167.191 150.794 165.861 151.743 164.457 152.608C163.056 153.476 161.592 154.255 160.066 154.946C158.543 155.633 156.973 156.229 155.355 156.729C153.737 157.228 152.089 157.628 150.409 157.929C148.729 158.229 147.033 158.426 145.323 158.52C143.613 158.616 141.903 158.606 140.193 158.494C138.483 158.381 136.791 158.167 135.117 157.85C133.443 157.534 131.798 157.118 130.186 156.601C128.577 156.085 127.012 155.474 125.498 154.77C123.984 154.064 122.529 153.27 121.137 152.388L127.315 146.948C128.001 147.34 128.704 147.706 129.426 148.046C130.147 148.383 130.883 148.697 131.635 148.979C132.386 149.264 133.149 149.52 133.923 149.745C134.701 149.973 135.485 150.171 136.281 150.339C137.076 150.506 137.878 150.645 138.685 150.752C139.493 150.859 140.306 150.937 141.12 150.984C141.936 151.031 142.753 151.047 143.572 151.031C144.388 151.018 145.202 150.974 146.015 150.898C146.829 150.822 147.636 150.718 148.441 150.582C149.242 150.446 150.038 150.278 150.825 150.085C151.611 149.889 152.386 149.664 153.152 149.41C153.915 149.157 154.666 148.874 155.405 148.566C156.145 148.255 156.866 147.918 157.57 147.554C158.276 147.191 158.962 146.798 159.63 146.383C160.298 145.97 160.942 145.528 161.568 145.065C162.192 144.6 162.795 144.113 163.373 143.606C163.949 143.096 164.502 142.565 165.03 142.016C165.555 141.465 166.054 140.895 166.526 140.309C166.998 139.721 167.441 139.114 167.856 138.495C168.269 137.872 168.652 137.237 169.002 136.589C169.355 135.938 169.676 135.276 169.964 134.601C170.252 133.93 170.507 133.244 170.727 132.552C170.95 131.859 171.14 131.161 171.294 130.452C171.448 129.746 171.567 129.035 171.653 128.319C171.739 127.602 171.79 126.883 171.805 126.164C171.823 125.445 171.802 124.726 171.748 124.007C171.698 123.288 171.609 122.574 171.487 121.861C171.362 121.149 171.208 120.443 171.018 119.743C170.825 119.042 170.602 118.352 170.344 117.669C170.086 116.984 169.798 116.312 169.474 115.651C169.151 114.989 168.797 114.341 168.414 113.706C168.028 113.07 167.613 112.451 167.168 111.847L173.345 106.406C174.483 107.794 175.489 109.25 176.365 110.777C177.243 112.302 177.98 113.878 178.576 115.507C179.173 117.133 179.624 118.794 179.927 120.483C180.23 122.172 180.381 123.874 180.381 125.584ZM105.441 125.584C105.438 124.065 105.554 122.551 105.789 121.045C106.02 119.541 106.373 118.056 106.84 116.595C107.309 115.131 107.888 113.706 108.579 112.312C109.271 110.921 110.067 109.577 110.969 108.283C111.875 106.989 112.872 105.755 113.97 104.581C115.066 103.409 116.25 102.306 117.518 101.279C118.789 100.251 120.134 99.302 121.55 98.4392C122.969 97.5737 124.447 96.7998 125.988 96.1148C127.529 95.4298 129.114 94.8415 130.747 94.3499C132.38 93.8584 134.042 93.4688 135.734 93.1812C137.43 92.891 139.137 92.708 140.861 92.6269C142.583 92.5459 144.305 92.5694 146.021 92.7001C147.74 92.8283 149.441 93.0636 151.124 93.3982C152.808 93.7355 154.455 94.1721 156.067 94.7108C157.682 95.2467 159.244 95.8795 160.758 96.6089C162.275 97.3358 163.724 98.1515 165.11 99.0562L158.989 104.45C158.3 104.042 157.593 103.66 156.869 103.308C156.142 102.955 155.402 102.63 154.645 102.332C153.888 102.034 153.116 101.768 152.336 101.53C151.552 101.289 150.759 101.08 149.955 100.902C149.15 100.724 148.34 100.575 147.52 100.458C146.704 100.343 145.882 100.256 145.056 100.201C144.228 100.146 143.4 100.123 142.571 100.131C141.743 100.139 140.918 100.178 140.093 100.248C139.267 100.319 138.448 100.421 137.631 100.554C136.818 100.688 136.01 100.85 135.212 101.043C134.413 101.239 133.624 101.462 132.846 101.715C132.071 101.969 131.305 102.254 130.557 102.565C129.809 102.876 129.075 103.216 128.357 103.582C127.642 103.951 126.944 104.345 126.267 104.764C125.59 105.185 124.934 105.629 124.299 106.1C123.666 106.571 123.055 107.062 122.47 107.58C121.882 108.095 121.324 108.633 120.79 109.19C120.255 109.75 119.751 110.328 119.273 110.924C118.798 111.523 118.349 112.134 117.934 112.767C117.515 113.397 117.129 114.043 116.776 114.702C116.423 115.363 116.102 116.035 115.814 116.72C115.526 117.403 115.271 118.098 115.051 118.802C114.828 119.505 114.644 120.216 114.493 120.932C114.342 121.651 114.226 122.373 114.146 123.1C114.065 123.827 114.021 124.556 114.012 125.286C114.003 126.015 114.03 126.745 114.092 127.471C114.155 128.201 114.253 128.925 114.386 129.644C114.517 130.366 114.686 131.08 114.888 131.788C115.093 132.494 115.327 133.195 115.6 133.882C115.87 134.573 116.176 135.252 116.512 135.919C116.85 136.586 117.218 137.237 117.619 137.878C118.023 138.515 118.453 139.138 118.916 139.744L112.795 145.136C111.607 143.732 110.556 142.254 109.642 140.701C108.725 139.148 107.953 137.543 107.329 135.88C106.703 134.22 106.234 132.525 105.916 130.8C105.599 129.072 105.441 127.333 105.441 125.584ZM160.084 125.584C160.084 126.078 160.057 126.572 160.001 127.066C159.945 127.558 159.861 128.047 159.752 128.533C159.642 129.019 159.505 129.498 159.342 129.971C159.179 130.447 158.989 130.912 158.772 131.37C158.558 131.827 158.318 132.274 158.05 132.711C157.786 133.148 157.498 133.571 157.184 133.982C156.872 134.395 156.536 134.792 156.18 135.174C155.824 135.558 155.447 135.924 155.049 136.275C154.651 136.625 154.236 136.957 153.799 137.271C153.366 137.585 152.915 137.88 152.448 138.155C151.979 138.432 151.498 138.685 151.003 138.918C150.507 139.153 149.999 139.365 149.48 139.553C148.96 139.744 148.432 139.912 147.894 140.055C147.357 140.199 146.811 140.32 146.259 140.416C145.709 140.513 145.154 140.586 144.593 140.636C144.035 140.686 143.474 140.709 142.91 140.709C140.473 140.704 138.142 140.257 135.918 139.37L158.564 119.426C159.573 121.382 160.078 123.435 160.084 125.584ZM125.736 125.584C125.736 125.087 125.765 124.593 125.819 124.101C125.875 123.607 125.958 123.118 126.068 122.635C126.178 122.148 126.318 121.667 126.481 121.194C126.644 120.721 126.834 120.255 127.048 119.798C127.265 119.34 127.505 118.893 127.769 118.456C128.036 118.02 128.324 117.596 128.636 117.183C128.948 116.773 129.283 116.375 129.64 115.991C129.999 115.609 130.376 115.243 130.774 114.893C131.168 114.542 131.587 114.21 132.02 113.897C132.454 113.58 132.905 113.287 133.374 113.01C133.84 112.736 134.321 112.482 134.817 112.247C135.313 112.014 135.82 111.802 136.34 111.611C136.86 111.423 137.388 111.256 137.928 111.112C138.466 110.968 139.009 110.848 139.561 110.749C140.113 110.652 140.668 110.579 141.227 110.532C141.788 110.482 142.349 110.456 142.91 110.456C145.54 110.469 148.031 110.994 150.385 112.027L127.52 132.165C126.347 130.094 125.75 127.9 125.736 125.584ZM142.91 205.504C137.495 205.289 132.127 204.709 126.813 203.765C121.499 202.819 116.298 201.522 111.213 199.869C106.124 198.217 101.211 196.23 96.4727 193.908C91.7346 191.586 87.228 188.959 82.95 186.025L112.774 159.756C113.944 160.559 115.152 161.315 116.399 162.021C117.643 162.729 118.925 163.385 120.238 163.989C121.553 164.593 122.895 165.145 124.266 165.644C125.635 166.141 127.03 166.586 128.446 166.97C129.862 167.357 131.296 167.686 132.745 167.961C134.197 168.233 135.657 168.447 137.13 168.602C138.599 168.758 140.078 168.855 141.559 168.894C143.04 168.931 144.522 168.91 146.003 168.832C147.482 168.751 148.954 168.612 150.421 168.413C151.887 168.217 153.339 167.961 154.779 167.647C156.219 167.336 157.638 166.965 159.039 166.539C160.44 166.112 161.818 165.629 163.169 165.093C164.522 164.557 165.843 163.968 167.135 163.325C168.426 162.685 169.682 161.992 170.899 161.249C172.119 160.507 173.301 159.717 174.438 158.883C175.578 158.046 176.67 157.165 177.721 156.242C178.769 155.319 179.767 154.355 180.717 153.353C181.667 152.349 182.563 151.311 183.404 150.237C184.247 149.162 185.033 148.056 185.761 146.919C186.491 145.781 187.159 144.618 187.768 143.426C188.379 142.236 188.925 141.023 189.409 139.789C189.893 138.555 190.315 137.305 190.671 136.037C191.024 134.769 191.315 133.49 191.541 132.199C191.764 130.907 191.921 129.61 192.013 128.306C192.102 127.003 192.126 125.699 192.084 124.394C192.04 123.087 191.93 121.787 191.755 120.491C191.577 119.194 191.333 117.907 191.024 116.629C190.716 115.353 190.342 114.09 189.902 112.843C189.463 111.596 188.961 110.369 188.394 109.162C187.83 107.954 187.204 106.772 186.515 105.614C185.829 104.458 185.084 103.328 184.282 102.23C183.478 101.132 182.62 100.071 181.708 99.0405L212.681 71.7599C223.093 79.5592 232.824 87.9677 241.879 96.9854C250.937 106.001 259.223 115.533 266.745 125.586C256.185 139.786 203.998 205.504 142.91 205.504Z" fill="white"/>
</g>
</svg>
