<svg width="229" height="211" viewBox="0 0 229 211" fill="none" xmlns="http://www.w3.org/2000/svg">
<g clip-path="url(#clip0_513_1232)">
<path d="M114.042 48.9255C77.4449 48.9255 47.0666 73.3752 41.0959 105.493C47.0666 137.618 77.4449 162.066 114.042 162.066C150.639 162.066 181.01 137.618 186.988 105.493C181.01 73.3752 150.639 48.9255 114.042 48.9255Z" fill="#F77B55"/>
<path d="M114.042 72.8828C83.7616 72.8828 57.3169 86.0066 43.1809 105.489C57.3169 124.987 83.7592 138.108 114.042 138.108C144.313 138.108 170.765 124.987 184.91 105.489C170.765 86.0044 144.313 72.8828 114.042 72.8828Z" fill="white"/>
<mask id="mask0_513_1232" style="mask-type:luminance" maskUnits="userSpaceOnUse" x="70" y="72" width="89" height="67">
<path d="M70.2266 72.7949H158.163V138.205H70.2266V72.7949Z" fill="white"/>
</mask>
<g mask="url(#mask0_513_1232)">
<mask id="mask1_513_1232" style="mask-type:luminance" maskUnits="userSpaceOnUse" x="43" y="72" width="142" height="67">
<path d="M114.042 72.8828C83.7614 72.8828 57.3166 86.0066 43.1807 105.489C57.3166 124.987 83.759 138.108 114.042 138.108C144.313 138.108 170.765 124.987 184.91 105.489C170.765 86.0044 144.313 72.8828 114.042 72.8828Z" fill="white"/>
</mask>
<g mask="url(#mask1_513_1232)">
<path d="M114.042 60.6711C89.9705 60.6711 70.4387 78.6457 70.4387 100.805C70.4387 122.973 89.9705 140.926 114.042 140.926C138.118 140.926 157.642 122.973 157.642 100.805C157.642 78.6457 138.118 60.6711 114.042 60.6711Z" fill="#92DEEB"/>
</g>
</g>
<mask id="mask2_513_1232" style="mask-type:luminance" maskUnits="userSpaceOnUse" x="90" y="79" width="47" height="44">
<path d="M90.9893 79.3359H136.789V122.099H90.9893V79.3359Z" fill="white"/>
</mask>
<g mask="url(#mask2_513_1232)">
<mask id="mask3_513_1232" style="mask-type:luminance" maskUnits="userSpaceOnUse" x="43" y="72" width="142" height="67">
<path d="M114.042 72.8828C83.7614 72.8828 57.3166 86.0066 43.1807 105.489C57.3166 124.987 83.759 138.108 114.042 138.108C144.313 138.108 170.765 124.987 184.91 105.489C170.765 86.0044 144.313 72.8828 114.042 72.8828Z" fill="white"/>
</mask>
<g mask="url(#mask3_513_1232)">
<path d="M114.042 79.8677C101.492 79.8677 91.2993 89.2506 91.2993 100.805C91.2993 112.359 101.495 121.751 114.042 121.751C126.596 121.751 136.787 112.359 136.787 100.805C136.787 89.2506 126.596 79.8677 114.042 79.8677Z" fill="#232E38"/>
</g>
</g>
<mask id="mask4_513_1232" style="mask-type:luminance" maskUnits="userSpaceOnUse" x="101" y="88" width="12" height="13">
<path d="M101.371 88.9014H112.973V100.155H101.371V88.9014Z" fill="white"/>
</mask>
<g mask="url(#mask4_513_1232)">
<mask id="mask5_513_1232" style="mask-type:luminance" maskUnits="userSpaceOnUse" x="43" y="72" width="142" height="67">
<path d="M114.042 72.8831C83.7614 72.8831 57.3166 86.0068 43.1807 105.489C57.3166 124.987 83.759 138.108 114.042 138.108C144.313 138.108 170.765 124.987 184.91 105.489C170.765 86.0046 144.313 72.8831 114.042 72.8831Z" fill="white"/>
</mask>
<g mask="url(#mask5_513_1232)">
<path d="M111.604 90.6267C113.586 92.4444 113.259 95.6973 110.864 97.8865C108.493 100.076 104.951 100.39 102.983 98.5722C101.003 96.7479 101.335 93.5038 103.725 91.2971C106.098 89.1102 109.624 88.7981 111.604 90.6267Z" fill="white"/>
</g>
</g>
<mask id="mask6_513_1232" style="mask-type:luminance" maskUnits="userSpaceOnUse" x="79" y="72" width="26" height="20">
<path d="M79.9973 72.7949H104.424V91.7146H79.9973V72.7949Z" fill="white"/>
</mask>
<g mask="url(#mask6_513_1232)">
<mask id="mask7_513_1232" style="mask-type:luminance" maskUnits="userSpaceOnUse" x="43" y="72" width="142" height="67">
<path d="M114.042 72.8828C83.7614 72.8828 57.3166 86.0066 43.1807 105.489C57.3166 124.987 83.759 138.108 114.042 138.108C144.313 138.108 170.765 124.987 184.91 105.489C170.765 86.0044 144.313 72.8828 114.042 72.8828Z" fill="white"/>
</mask>
<g mask="url(#mask7_513_1232)">
<path d="M101.204 72.4586C105.321 76.2346 104.648 83.0152 99.6531 87.5759C94.7201 92.1299 87.3468 92.7783 83.2439 88.9979C79.1266 85.2065 79.8065 78.4413 84.7872 73.8499C89.7346 69.3024 97.0697 68.6474 101.204 72.4586Z" fill="white"/>
</g>
</g>
<path d="M114.042 163.169C77.2803 163.169 46.1053 138.992 39.9151 105.68C39.8913 105.555 39.8913 105.432 39.9151 105.307C46.1053 71.9994 77.2803 47.8223 114.042 47.8223C150.794 47.8223 181.969 71.9972 188.169 105.307C188.193 105.432 188.193 105.555 188.169 105.68C181.971 138.992 150.794 163.169 114.042 163.169ZM42.3101 105.493C48.3881 137.645 78.5207 160.96 114.042 160.96C149.554 160.96 179.689 137.642 185.771 105.493C179.689 73.3445 149.554 50.029 114.042 50.029C78.5207 50.029 48.3881 73.3445 42.3101 105.493Z" fill="#232E38"/>
<path d="M114.042 139.212C84.5273 139.212 56.9924 126.525 42.1838 106.1C41.9166 105.731 41.9166 105.245 42.1838 104.876C56.9948 84.4615 84.5321 71.7795 114.042 71.7795C143.547 71.7795 171.087 84.4615 185.908 104.876C186.175 105.247 186.175 105.731 185.908 106.1C171.089 126.525 143.552 139.212 114.042 139.212ZM44.6288 105.489C59.1011 124.949 85.6127 137.005 114.042 137.005C142.464 137.005 168.981 124.945 183.462 105.489C168.976 86.0396 142.46 73.9862 114.042 73.9862C85.6198 73.9862 59.1059 86.0396 44.6288 105.489Z" fill="#232E38"/>
<path d="M92.9454 137.007C92.7427 137.007 92.528 136.961 92.3514 136.871C78.0914 129.605 69.2344 115.786 69.2344 100.803C69.2344 93.2577 71.4671 85.8858 75.6917 79.4899C76.0352 78.9712 76.7747 78.8042 77.34 79.1229C77.9054 79.4372 78.0843 80.1163 77.7408 80.6372C73.7428 86.6881 71.6293 93.6599 71.6293 100.803C71.6293 114.969 79.9974 128.037 93.4702 134.917C93.8638 135.099 94.1357 135.473 94.1357 135.904C94.1357 136.513 93.6062 137.007 92.9454 137.007Z" fill="#232E38"/>
<path d="M135.172 137.007C134.75 137.007 134.34 136.803 134.122 136.438C133.803 135.908 134.01 135.236 134.588 134.939C148.065 128.066 156.438 114.984 156.438 100.803C156.438 93.6643 154.325 86.6881 150.327 80.6219C149.981 80.101 150.164 79.4218 150.73 79.1053C151.295 78.791 152.032 78.9559 152.376 79.4768C156.603 85.8859 158.835 93.2621 158.835 100.803C158.835 115.786 149.99 129.607 135.752 136.871C135.566 136.965 135.365 137.007 135.172 137.007Z" fill="#232E38"/>
<path d="M114.042 122.857C100.841 122.857 90.0996 112.964 90.0996 100.803C90.0996 97.1063 91.0752 93.572 92.9979 90.3037C93.3128 89.7674 94.0427 89.5696 94.6224 89.8575C95.2044 90.1499 95.4215 90.818 95.1066 91.3521C93.3748 94.2951 92.497 97.4755 92.497 100.803C92.497 111.749 102.163 120.65 114.042 120.65C125.924 120.65 135.59 111.749 135.59 100.803C135.59 89.8663 125.924 80.9692 114.042 80.9692C110.433 80.9692 106.979 81.7758 103.775 83.3737C103.196 83.6638 102.466 83.4616 102.151 82.9275C101.838 82.3934 102.055 81.723 102.637 81.4329C106.194 79.6592 110.032 78.7625 114.042 78.7625C127.248 78.7625 137.987 88.6487 137.987 100.803C137.984 112.964 127.245 122.857 114.042 122.857Z" fill="#232E38"/>
<path d="M90.0781 92.5543C87.1249 92.5543 84.3817 91.5938 82.3994 89.7717C79.2244 86.8683 78.4611 82.1669 80.4601 77.7997C80.7153 77.237 81.4214 76.9755 82.032 77.2106C82.6403 77.448 82.9266 78.0942 82.669 78.6525C81.054 82.1889 81.6122 85.9386 84.093 88.2068C86.383 90.3146 90.0494 90.9168 93.6657 89.7827C95.5526 89.1959 97.3321 88.1651 98.8135 86.8001C100.309 85.4221 101.435 83.778 102.072 82.0483C103.136 79.1646 102.823 76.3051 101.218 74.1973C100.836 73.7006 100.967 73.0104 101.509 72.661C102.05 72.3137 102.799 72.4324 103.179 72.9313C105.23 75.6193 105.652 79.202 104.34 82.756C103.587 84.8022 102.263 86.7408 100.507 88.3585C98.7657 89.9629 96.6666 91.1784 94.4362 91.8707C92.9763 92.3323 91.5022 92.5543 90.0781 92.5543Z" fill="#232E38"/>
<path d="M114.042 191.795C62.3452 191.795 20.2903 153.08 20.2903 105.498C20.2903 57.9128 62.3452 19.1987 114.042 19.1987C165.739 19.1987 207.794 57.9128 207.794 105.498C207.794 153.08 165.739 191.795 114.042 191.795ZM114.042 21.4054C63.6691 21.4054 22.6852 59.1283 22.6852 105.498C22.6852 151.865 63.6667 189.586 114.042 189.586C164.417 189.586 205.399 151.865 205.399 105.498C205.399 59.1283 164.415 21.4054 114.042 21.4054Z" fill="#232E38"/>
<path d="M114.042 12.8336C113.379 12.8336 112.844 12.3391 112.844 11.7325V1.10335C112.844 0.494531 113.379 0 114.042 0C114.705 0 115.239 0.494531 115.239 1.10335V11.7325C115.239 12.3391 114.705 12.8336 114.042 12.8336Z" fill="#232E38"/>
<path d="M92.8596 14.882C92.3062 14.882 91.8076 14.5281 91.6883 14.0072L89.2886 3.61328C89.1526 3.01545 89.5653 2.42861 90.2118 2.30332C90.8558 2.17585 91.4951 2.55828 91.6335 3.15392L94.0332 13.5479C94.1692 14.1457 93.7565 14.7303 93.11 14.8578C93.0242 14.8754 92.9407 14.882 92.8596 14.882Z" fill="#232E38"/>
<path d="M72.6073 20.9395C72.1469 20.9395 71.7104 20.6977 71.5124 20.2845L66.8155 10.5763C66.546 10.0224 66.8179 9.36747 67.4238 9.1213C68.0249 8.87074 68.7358 9.1235 69.0053 9.67957L73.6998 19.3878C73.9694 19.9438 73.6974 20.5988 73.0939 20.845C72.9341 20.9087 72.7695 20.9395 72.6073 20.9395Z" fill="#232E38"/>
<path d="M54.1633 30.7423C53.7936 30.7423 53.4262 30.584 53.1924 30.2873L46.4059 21.6869C46.0171 21.1967 46.1364 20.5066 46.6707 20.1483C47.2074 19.7879 47.9564 19.8977 48.3453 20.3923L55.1318 28.9905C55.5206 29.4851 55.4013 30.173 54.867 30.5313C54.6547 30.6741 54.409 30.7423 54.1633 30.7423Z" fill="#232E38"/>
<path d="M38.3335 43.8595C38.0473 43.8595 37.761 43.765 37.5297 43.576L28.9541 36.4635C28.4627 36.0547 28.4245 35.358 28.8658 34.9074C29.3095 34.4524 30.0657 34.4195 30.5595 34.8261L39.1374 41.9385C39.6288 42.3452 39.667 43.0441 39.2257 43.4947C38.9872 43.7386 38.6604 43.8595 38.3335 43.8595Z" fill="#232E38"/>
<path d="M25.815 59.7197C25.6098 59.7197 25.4047 59.6713 25.2186 59.5702L15.2214 54.2557C14.6465 53.9524 14.4509 53.2776 14.7824 52.7501C15.114 52.2226 15.8463 52.0424 16.4188 52.3457L26.4161 57.6625C26.9886 57.9658 27.1866 58.6405 26.855 59.168C26.6332 59.5219 26.2301 59.7197 25.815 59.7197Z" fill="#232E38"/>
<path d="M17.1534 77.6283C17.0318 77.6283 16.9077 77.6107 16.7837 77.5733L5.80601 74.2896C5.17626 74.1006 4.83276 73.4786 5.03552 72.9005C5.24305 72.3203 5.92051 72.0038 6.54788 72.1906L17.5256 75.4743C18.1529 75.6633 18.4988 76.2853 18.2937 76.8656C18.1291 77.3315 17.6591 77.6283 17.1534 77.6283Z" fill="#232E38"/>
<path d="M12.7263 96.8028C12.6858 96.8028 12.6428 96.8006 12.5999 96.7962L1.12126 95.6862C0.46527 95.6225 -0.0141992 95.0796 0.054978 94.473C0.124155 93.8686 0.696655 93.4224 1.37173 93.4905L12.8527 94.6049C13.5087 94.6664 13.9882 95.2093 13.919 95.8159C13.8546 96.3808 13.3322 96.8028 12.7263 96.8028Z" fill="#232E38"/>
<path d="M1.2453 117.516C0.64179 117.516 0.119384 117.094 0.054978 116.527C-0.0141992 115.923 0.46527 115.377 1.12126 115.314L12.5999 114.206C13.2726 114.133 13.8498 114.582 13.919 115.188C13.9882 115.795 13.5087 116.338 12.8527 116.399L1.37173 117.509C1.32879 117.514 1.28824 117.516 1.2453 117.516Z" fill="#232E38"/>
<path d="M6.17575 138.862C5.67004 138.862 5.20012 138.568 5.03552 138.1C4.83276 137.521 5.17626 136.897 5.80601 136.71L16.7837 133.431C17.4087 133.238 18.0885 133.559 18.2937 134.139C18.4988 134.719 18.1529 135.341 17.5256 135.528L6.54788 138.809C6.42384 138.845 6.29979 138.862 6.17575 138.862Z" fill="#232E38"/>
<path d="M15.8224 158.802C15.4074 158.802 15.0042 158.602 14.7824 158.25C14.4508 157.723 14.6488 157.048 15.2213 156.742L25.2186 151.432C25.7935 151.129 26.5234 151.311 26.855 151.837C27.1866 152.366 26.9886 153.041 26.4161 153.344L16.4188 158.654C16.2304 158.756 16.0228 158.802 15.8224 158.802Z" fill="#232E38"/>
<path d="M29.7556 176.46C29.4288 176.46 29.102 176.337 28.8658 176.093C28.4221 175.64 28.4627 174.945 28.9541 174.534L37.532 167.429C38.0234 167.02 38.7796 167.055 39.2233 167.508C39.667 167.963 39.6264 168.659 39.135 169.066L30.5571 176.176C30.3305 176.365 30.0418 176.46 29.7556 176.46Z" fill="#232E38"/>
<path d="M47.3768 191.06C47.1335 191.06 46.8878 190.994 46.6731 190.852C46.1388 190.493 46.0195 189.805 46.4084 189.311L53.1925 180.717C53.5813 180.222 54.3279 180.113 54.867 180.473C55.4038 180.831 55.5206 181.521 55.1318 182.014L48.3477 190.608C48.1139 190.904 47.7466 191.06 47.3768 191.06Z" fill="#232E38"/>
<path d="M67.9105 201.973C67.746 201.973 67.5814 201.942 67.4239 201.879C66.8204 201.633 66.5461 200.978 66.8156 200.421L71.5125 190.718C71.7821 190.162 72.4905 189.909 73.0941 190.159C73.6976 190.408 73.9695 191.061 73.7 191.614L69.0055 201.32C68.8075 201.731 68.3685 201.973 67.9105 201.973Z" fill="#232E38"/>
<path d="M90.4621 208.719C90.3786 208.719 90.2951 208.71 90.2116 208.694C89.5652 208.567 89.1525 207.982 89.2909 207.387L91.6882 196.997C91.8242 196.401 92.4611 196.017 93.1099 196.147C93.7564 196.274 94.1691 196.859 94.0331 197.454L91.6334 207.844C91.5141 208.363 91.0155 208.719 90.4621 208.719Z" fill="#232E38"/>
<path d="M114.042 211C113.379 211 112.844 210.506 112.844 209.897V199.274C112.844 198.665 113.379 198.171 114.042 198.171C114.705 198.171 115.239 198.665 115.239 199.274V209.897C115.239 210.506 114.705 211 114.042 211Z" fill="#232E38"/>
<path d="M137.619 208.719C137.068 208.719 136.57 208.362 136.451 207.844L134.051 197.454C133.913 196.861 134.325 196.274 134.974 196.146C135.616 196.019 136.255 196.399 136.393 196.997L138.793 207.387C138.931 207.982 138.519 208.567 137.87 208.694C137.789 208.71 137.705 208.719 137.619 208.719Z" fill="#232E38"/>
<path d="M160.174 201.973C159.716 201.973 159.277 201.731 159.079 201.32L154.384 191.614C154.115 191.061 154.387 190.408 154.99 190.159C155.591 189.909 156.302 190.162 156.572 190.718L161.268 200.421C161.538 200.978 161.264 201.63 160.66 201.879C160.503 201.942 160.338 201.973 160.174 201.973Z" fill="#232E38"/>
<path d="M180.707 191.06C180.337 191.06 179.97 190.904 179.736 190.608L172.952 182.014C172.561 181.522 172.68 180.831 173.215 180.473C173.751 180.113 174.5 180.225 174.889 180.717L181.673 189.309C182.065 189.803 181.945 190.493 181.411 190.849C181.196 190.992 180.951 191.06 180.707 191.06Z" fill="#232E38"/>
<path d="M198.326 176.46C198.04 176.46 197.753 176.365 197.524 176.176L188.946 169.07C188.453 168.661 188.415 167.965 188.856 167.512C189.3 167.059 190.06 167.024 190.549 167.428L199.13 174.534C199.624 174.943 199.662 175.64 199.218 176.093C198.982 176.337 198.655 176.46 198.326 176.46Z" fill="#232E38"/>
<path d="M212.259 158.802C212.059 158.802 211.851 158.753 211.663 158.652L201.668 153.344C201.095 153.039 200.897 152.364 201.227 151.839C201.558 151.311 202.29 151.129 202.865 151.432L212.86 156.742C213.433 157.046 213.631 157.72 213.299 158.25C213.08 158.604 212.677 158.802 212.259 158.802Z" fill="#232E38"/>
<path d="M221.908 138.862C221.784 138.862 221.66 138.845 221.536 138.809L210.558 135.53C209.931 135.341 209.585 134.721 209.79 134.141C209.993 133.563 210.668 133.244 211.3 133.431L222.278 136.71C222.908 136.899 223.251 137.521 223.046 138.1C222.884 138.568 222.414 138.862 221.908 138.862Z" fill="#232E38"/>
<mask id="mask8_513_1232" style="mask-type:luminance" maskUnits="userSpaceOnUse" x="213" y="113" width="16" height="5">
<path d="M213.733 113.659H228.084V117.597H213.733V113.659Z" fill="white"/>
</mask>
<g mask="url(#mask8_513_1232)">
<path d="M226.839 117.516C226.796 117.516 226.755 117.514 226.712 117.51L215.234 116.402C214.575 116.338 214.098 115.797 214.165 115.191C214.234 114.586 214.812 114.134 215.484 114.21L226.963 115.314C227.619 115.38 228.098 115.92 228.029 116.525C227.965 117.094 227.442 117.516 226.839 117.516Z" fill="#232E38"/>
</g>
<mask id="mask9_513_1232" style="mask-type:luminance" maskUnits="userSpaceOnUse" x="213" y="93" width="16" height="5">
<path d="M213.733 93.4026H228.084V97.3413H213.733V93.4026Z" fill="white"/>
</mask>
<g mask="url(#mask9_513_1232)">
<path d="M215.358 96.805C214.754 96.805 214.234 96.3852 214.168 95.8204C214.098 95.2137 214.575 94.6709 215.236 94.6049L226.712 93.4906C227.38 93.4224 227.96 93.8642 228.029 94.4708C228.098 95.0775 227.621 95.6204 226.963 95.6863L215.484 96.8006C215.444 96.805 215.401 96.805 215.358 96.805Z" fill="#232E38"/>
</g>
<path d="M210.935 77.6304C210.43 77.6304 209.96 77.3337 209.793 76.8678C209.59 76.2875 209.933 75.6655 210.563 75.4787L221.536 72.1906C222.161 71.9994 222.841 72.3203 223.046 72.8983C223.249 73.4786 222.905 74.1006 222.275 74.2896L211.303 77.5733C211.181 77.6128 211.057 77.6304 210.935 77.6304Z" fill="#232E38"/>
<path d="M202.274 59.7195C201.861 59.7195 201.458 59.5217 201.234 59.17C200.905 58.6425 201.1 57.9678 201.673 57.6623L211.663 52.3499C212.24 52.0422 212.968 52.2246 213.302 52.7521C213.631 53.2796 213.435 53.9544 212.863 54.2577L202.873 59.5745C202.684 59.6734 202.479 59.7195 202.274 59.7195Z" fill="#232E38"/>
<path d="M189.757 43.8594C189.428 43.8594 189.101 43.7385 188.865 43.4945C188.424 43.0439 188.462 42.345 188.954 41.9362L197.524 34.8237C198.018 34.4193 198.777 34.4523 199.22 34.905C199.662 35.36 199.624 36.0545 199.132 36.4656L190.559 43.5736C190.328 43.7648 190.041 43.8594 189.757 43.8594Z" fill="#232E38"/>
<path d="M173.925 30.7422C173.682 30.7422 173.436 30.674 173.224 30.5312C172.687 30.1729 172.568 29.4827 172.959 28.9904L179.739 20.3944C180.125 19.902 180.877 19.7921 181.411 20.1504C181.948 20.5087 182.067 21.1988 181.676 21.6911L174.896 30.285C174.663 30.5839 174.298 30.7422 173.925 30.7422Z" fill="#232E38"/>
<path d="M155.484 20.9373C155.319 20.9373 155.155 20.9066 154.997 20.8428C154.391 20.5967 154.119 19.9439 154.389 19.3856L159.081 9.68181C159.348 9.12573 160.059 8.87517 160.663 9.12354C161.266 9.3697 161.54 10.0225 161.269 10.5786L156.579 20.2824C156.381 20.6934 155.942 20.9373 155.484 20.9373Z" fill="#232E38"/>
<path d="M135.229 14.8798C135.148 14.8798 135.062 14.8732 134.979 14.8534C134.33 14.7281 133.917 14.1413 134.056 13.5457L136.45 3.15612C136.586 2.56048 137.221 2.17804 137.872 2.30552C138.519 2.433 138.934 3.01765 138.795 3.61328L136.398 14.005C136.281 14.5237 135.783 14.8798 135.229 14.8798Z" fill="#232E38"/>
</g>
<defs>
<clipPath id="clip0_513_1232">
<rect width="229" height="211" fill="white"/>
</clipPath>
</defs>
</svg>
